<svg width="57" height="57" viewBox="0 0 57 57" fill="none" xmlns="http://www.w3.org/2000/svg">
<rect width="57" height="57" fill="none"/>
<path fill-rule="evenodd" clip-rule="evenodd" d="M0 27.6661C0 43.7398 12.7973 56.0504 28.2059 56.018C56.5984 55.9774 68.2846 16.9693 39.8516 2.48516C34.0693 -0.466839 27.987 -0.353339 21.8965 0.603661C20.5341 0.822661 20.1286 0.936161 19.1311 1.34166C18.1741 1.74716 17.4767 2.00666 16.6657 2.37156C15.6357 2.85006 13.0487 4.10706 12.2377 4.84506C11.6863 5.32356 10.9158 5.83446 10.2508 6.35346C9.51278 6.94556 9.10732 7.23746 8.40987 8.01606C7.18529 9.37846 6.1959 10.2949 5.19839 11.6979C1.95447 16.2718 0 21.6892 0 27.6661ZM6.26888 42.5557C7.07987 42.1908 8.32878 40.6824 9.32628 39.9768C14.4922 36.3679 14.3057 38.2089 15.4816 34.9649C15.8871 33.7485 16.6657 32.013 16.8522 30.8371C14.4193 30.8695 3.76295 35.9219 3.90893 38.0223C3.94137 38.9469 5.82285 41.7447 6.26888 42.5557ZM21.8641 53.066C21.8235 53.95 22.6021 53.658 23.559 53.804C28.9764 54.615 34.5802 54.1365 39.3731 51.6306C41.7007 50.3736 43.9146 49.1571 45.788 47.2756C47.4911 45.6212 49.6645 43.5208 50.6214 41.4203C49.8834 41.5258 49.7375 41.8583 49.113 42.2313C48.594 42.5557 47.929 42.8882 47.4181 43.1477C42.8441 45.5482 37.4592 46.7971 32.3338 48.3461C27.176 49.9356 23.8185 52.401 21.8641 53.066ZM11.3213 48.0136C11.9863 47.8352 12.7162 47.0972 13.4218 46.6187C15.9682 44.9157 17.2901 44.1452 20.3151 42.8152C21.9776 42.0772 24.078 41.4933 25.7324 40.9338C28.9764 39.8714 33.8098 38.6549 36.6888 37.6168C43.9876 35.0379 47.8965 34.5919 47.8965 26.9281C47.8965 26.2226 47.929 26.4091 47.71 25.9712C46.972 26.0442 45.1635 28.0311 42.8766 29.3611C38.5622 31.8264 38.1567 31.6075 34.2153 32.9375C33.4043 33.2294 31.9689 33.7079 31.1579 33.8944C24.7755 35.2245 12.1647 38.4278 8.07737 43.5532C7.22584 44.5913 8.36932 45.2482 9.10732 46.0267C9.54528 46.4646 10.6887 47.7217 11.3213 48.0136ZM12.9027 49.2706C13.8272 49.9356 13.5272 49.9356 15.2627 50.8196C16.2926 51.3386 17.1847 51.8171 18.1417 52.2226C19.9826 52.993 20.0231 52.1496 23.705 50.0411C31.1903 45.8402 39.8192 45.1022 46.526 41.5258C48.521 40.4553 51.4324 38.6144 52.6489 37.0654C53.3869 36.1084 54.3114 31.6805 54.1979 30.0585C53.4599 30.318 51.7649 32.1995 50.0294 33.343C49.259 33.862 48.594 34.3405 47.783 34.819C45.3095 36.2949 42.6576 37.5114 39.9652 38.4684L34.2153 40.3498C30.4199 41.4933 26.3245 42.3773 22.7886 43.9263C19.3176 45.3617 18.3201 45.6212 15.1897 47.6487C14.5652 48.0542 13.4947 48.9381 12.9027 49.2706ZM1.84093 28.0311C1.84093 30.464 2.17343 33.6349 2.95197 35.484C3.57643 35.411 4.09546 34.9244 4.71991 34.4135C7.63133 31.94 17.8821 27.439 19.1311 28.7366C19.7636 29.799 17.5496 33.7809 17.3631 35.557C18.4336 35.5164 24.297 33.5619 26.0649 33.1565C31.8148 31.9075 37.3457 30.537 42.2927 27.4796C43.6146 26.7092 44.5715 26.0036 45.496 25.0872C47.9695 22.7272 49.5509 19.8888 49.6239 26.7416C49.6645 30.61 49.259 29.726 49.0725 31.648C49.924 31.5021 52.6165 28.8096 53.1274 28.2906C54.8953 26.4821 54.4168 25.8576 53.8329 22.4677C53.1679 18.6318 51.0269 14.8364 48.8859 11.998C37.5322 -3.11875 12.8703 -1.46434 4.16844 17.1558C2.65191 20.3997 1.84093 23.6842 1.84093 28.0311Z" fill="#4E7A9B"/>
<path fill-rule="evenodd" clip-rule="evenodd" d="M16.8847 18.0803C21.6046 18.5588 25.108 20.1402 26.73 25.0872C27.322 26.8876 26.584 29.0691 28.5709 28.8421C28.7575 28.5825 28.798 28.5825 29.017 28.4041C29.3819 23.4571 31.3364 20.1808 35.7238 18.6642C37.8242 17.9668 39.8192 18.4453 39.8192 17.2694C39.8517 15.6068 36.4293 17.3423 32.3339 13.8713C28.133 10.2625 29.828 6.23996 28.6115 5.72906L27.5815 5.65606C26.6165 7.01856 27.9465 13.5064 19.6501 15.9799C18.3201 16.3854 15.1898 16.0123 16.8847 18.0803ZM22.1966 17.3423C24.0376 18.4128 25.6271 19.3292 26.9165 21.3567C27.322 21.9487 27.614 22.5732 28.0195 23.1652C28.3925 22.9787 28.4655 22.8002 28.6845 22.4272C29.828 20.3673 31.8554 18.1858 34.0288 17.3423L33.1124 16.6368C32.6988 16.3854 32.5529 16.3124 32.1879 16.0529C29.536 14.2444 29.09 12.5089 28.425 11.6655C28.06 11.2194 28.279 11.5114 28.0195 11.333C27.249 12.5495 26.6895 13.6929 25.6595 14.7229C24.443 15.9799 23.2996 16.4178 22.6346 16.8963C22.1236 17.2694 22.4886 16.9693 22.1966 17.3423Z" fill="#4E7A9B"/>
</svg>
