<svg width="3149" height="573" viewBox="0 0 3149 573" fill="none" xmlns="http://www.w3.org/2000/svg">
<path d="M286.657 261.326H93.1129V447.987H0.980469V5.33319H314.496V82.6643H93.1129V183.328H286.657V261.326Z" fill="black"/>
<path d="M425.772 447.987H339.605V119.997H425.772V447.987ZM425.772 80.6643H339.605V0H425.772V80.6643Z" fill="black"/>
<path d="M774.008 573H687.841C687.841 573 687.841 547.317 687.841 466.653V407.321C663.317 440.654 632.164 456.653 592.395 456.653C508.216 456.653 458.504 386.655 458.504 287.325C458.504 176.662 517.496 111.33 599.686 111.33C639.455 111.33 669.945 126.663 690.492 159.995L691.155 119.997H774.008V467.32C774.008 511.985 774.008 573 774.008 573ZM620.233 382.655C667.956 382.655 692.481 347.323 692.481 275.992C692.481 220.66 660.665 181.995 619.57 181.995C576.487 181.995 545.997 222.66 545.997 281.325C545.997 348.656 569.859 382.655 620.233 382.655Z" fill="black"/>
<path d="M1098.59 447.987H1017.06V401.988C994.526 439.321 960.722 456.653 915.65 456.653C850.694 456.653 804.959 407.988 804.959 335.99V119.997H891.126V322.657C891.126 363.989 909.685 383.989 946.14 383.989C989.886 383.989 1013.09 352.656 1013.09 309.324V119.997H1098.59V447.987Z" fill="black"/>
<path d="M1217.9 251.993H1351.12C1349.8 203.327 1317.98 179.995 1284.18 179.995C1249.71 179.995 1221.21 206.661 1217.9 251.993ZM1439.94 306.658H1215.25C1217.9 355.99 1245.74 387.989 1288.16 387.989C1316 387.989 1340.52 373.989 1346.49 351.323H1435.3C1415.42 418.654 1361.73 456.653 1292.13 456.653C1183.43 456.653 1129.08 396.655 1129.08 277.992C1129.08 176.662 1186.74 111.33 1286.83 111.33C1386.92 111.33 1439.94 176.662 1439.94 306.658Z" fill="black"/>
<path d="M1718.94 280.658L1663.93 104.664H1663.27L1606.93 280.658H1718.94ZM1873.38 447.987H1773.3L1745.46 356.656H1583.07L1551.91 447.987H1454.48L1611.57 5.33319H1718.28L1873.38 447.987Z" fill="black"/>
<path d="M1981.81 447.987H1895.64V0H1981.81V447.987Z" fill="black"/>
<path d="M2099.5 251.993H2232.73C2231.41 203.327 2199.59 179.995 2165.79 179.995C2131.32 179.995 2102.82 206.661 2099.5 251.993ZM2321.55 306.658H2096.85C2099.5 355.99 2127.34 387.989 2169.76 387.989C2197.6 387.989 2222.13 373.989 2228.09 351.323H2316.91C2297.03 418.654 2243.34 456.653 2173.74 456.653C2065.04 456.653 2010.69 396.655 2010.69 277.992C2010.69 176.662 2068.35 111.33 2168.44 111.33C2268.52 111.33 2321.55 176.662 2321.55 306.658Z" fill="black"/>
<path d="M2437.5 447.987H2351.33V119.997H2432.19V159.329C2460.7 115.33 2493.84 111.33 2528.97 111.33H2540.23V199.994C2532.28 198.661 2524.33 197.994 2516.37 197.994C2463.35 197.994 2437.5 224.66 2437.5 277.325V447.987Z" fill="black"/>
<path d="M2749.22 317.324V231.993H2829.42V325.324C2829.42 394.655 2789.65 456.653 2697.51 456.653C2602.07 456.653 2564.29 395.322 2564.29 324.657V31.3325H2649.13V119.997H2829.42V181.328H2649.13V315.991C2649.13 357.323 2663.71 381.322 2698.84 381.322C2733.31 381.322 2749.22 357.99 2749.22 317.324Z" fill="black"/>
<path d="M3062.15 323.324L3062.81 287.325C3054.2 295.991 3038.95 300.658 3007.14 306.658C2958.09 315.991 2942.18 329.99 2942.18 357.99C2942.18 382.656 2956.76 394.655 2983.94 394.655C3028.35 394.655 3061.49 361.989 3062.15 323.324ZM3148.98 447.987H3068.78C3066.13 439.987 3064.14 428.654 3063.48 418.654C3042.93 441.32 3008.46 456.653 2964.72 456.653C2890.48 456.653 2856.01 419.988 2856.01 366.656C2856.01 271.992 2918.98 261.326 3005.81 249.326C3048.89 243.326 3060.82 234.66 3060.82 211.994C3060.82 190.661 3039.61 177.995 3005.81 177.995C2966.7 177.995 2950.8 197.328 2946.82 226.66H2866.62C2867.94 158.662 2905.06 111.33 3009.79 111.33C3113.19 111.33 3148.98 157.995 3148.98 240.66V447.987Z" fill="black"/>
</svg>
