<svg width="24" height="24" viewBox="0 0 24 24" fill="none" xmlns="http://www.w3.org/2000/svg">
<path d="M16 3C16.5304 3 17.0391 3.21071 17.4142 3.58579C17.7893 3.96086 18 4.46957 18 5V19C18 19.5304 17.7893 20.0391 17.4142 20.4142C17.0391 20.7893 16.5304 21 16 21H2C1.46957 21 0.960859 20.7893 0.585786 20.4142C0.210714 20.0391 0 19.5304 0 19V5C0 4.46957 0.210714 3.96086 0.585786 3.58579C0.960859 3.21071 1.46957 3 2 3H16ZM15.5 18.5V13.2C15.5 12.3354 15.1565 11.5062 14.5452 10.8948C13.9338 10.2835 13.1046 9.94 12.24 9.94C11.39 9.94 10.4 10.46 9.92 11.24V10.13H7.13V18.5H9.92V13.57C9.92 12.8 10.54 12.17 11.31 12.17C11.6813 12.17 12.0374 12.3175 12.2999 12.5801C12.5625 12.8426 12.71 13.1987 12.71 13.57V18.5H15.5ZM3.88 8.56C4.32556 8.56 4.75288 8.383 5.06794 8.06794C5.383 7.75288 5.56 7.32556 5.56 6.88C5.56 5.95 4.81 5.19 3.88 5.19C3.43178 5.19 3.00193 5.36805 2.68499 5.68499C2.36805 6.00193 2.19 6.43178 2.19 6.88C2.19 7.81 2.95 8.56 3.88 8.56ZM5.27 18.5V10.13H2.5V18.5H5.27Z" fill="white"/>
</svg>
