<?xml version="1.0" encoding="utf-8"?>
<!-- Generator: Adobe Illustrator 24.1.0, SVG Export Plug-In . SVG Version: 6.00 Build 0)  -->
<svg version="1.1" id="Layer_1" xmlns="http://www.w3.org/2000/svg" xmlns:xlink="http://www.w3.org/1999/xlink" x="0px" y="0px"
	 viewBox="0 0 201 82" style="enable-background:new 0 0 201 82;" xml:space="preserve">
<style type="text/css">
	.st0{clip-path:url(#SVGID_2_);}
	.st1{fill-rule:evenodd;clip-rule:evenodd;fill:#4E7A9B;}
</style>
<g>
	<defs>
		<rect id="SVGID_1_" x="0.5" y="0" width="200" height="81.3"/>
	</defs>
	<clipPath id="SVGID_2_">
		<use xlink:href="#SVGID_1_"  style="overflow:visible;"/>
	</clipPath>
	<g class="st0">
		<path class="st1" d="M0.7,39.4c0,16.1,12.8,28.4,28.2,28.4c28.4,0,40.1-39,11.6-53.5c-5.8-3-11.9-2.8-18-1.9
			c-1.4,0.2-1.8,0.3-2.8,0.7c-1,0.4-1.7,0.7-2.5,1c-1,0.5-3.6,1.7-4.4,2.5c-0.6,0.5-1.3,1-2,1.5c-0.7,0.6-1.1,0.9-1.8,1.7
			c-1.2,1.4-2.2,2.3-3.2,3.7C2.7,28,0.7,33.4,0.7,39.4z M7,54.3c0.8-0.4,2.1-1.9,3.1-2.6c5.2-3.6,5-1.8,6.2-5c0.4-1.2,1.2-3,1.4-4.1
			c-2.4,0-13.1,5.1-12.9,7.2C4.7,50.7,6.6,53.5,7,54.3z M22.6,64.8c0,0.9,0.7,0.6,1.7,0.7c5.4,0.8,11,0.3,15.8-2.2
			c2.3-1.3,4.5-2.5,6.4-4.4c1.7-1.7,3.9-3.8,4.8-5.9c-0.7,0.1-0.9,0.4-1.5,0.8c-0.5,0.3-1.2,0.7-1.7,0.9c-4.6,2.4-10,3.6-15.1,5.2
			C27.9,61.7,24.6,64.1,22.6,64.8z M12.1,59.7c0.7-0.2,1.4-0.9,2.1-1.4c2.5-1.7,3.9-2.5,6.9-3.8c1.7-0.7,3.8-1.3,5.4-1.9
			c3.2-1.1,8.1-2.3,11-3.3c7.3-2.6,11.2-3,11.2-10.7c0-0.7,0-0.5-0.2-1c-0.7,0.1-2.5,2.1-4.8,3.4c-4.3,2.5-4.7,2.2-8.7,3.6
			c-0.8,0.3-2.2,0.8-3.1,1c-6.4,1.3-19,4.5-23.1,9.7c-0.9,1,0.3,1.7,1,2.5C10.3,58.2,11.4,59.4,12.1,59.7z M13.7,61
			c0.9,0.7,0.6,0.7,2.4,1.5c1,0.5,1.9,1,2.9,1.4c1.8,0.8,1.9-0.1,5.6-2.2c7.5-4.2,16.1-4.9,22.8-8.5c2-1.1,4.9-2.9,6.1-4.5
			c0.7-1,1.7-5.4,1.5-7c-0.7,0.3-2.4,2.1-4.2,3.3c-0.8,0.5-1.4,1-2.2,1.5c-2.5,1.5-5.1,2.7-7.8,3.6L35,52.1c-3.8,1.1-7.9,2-11.4,3.6
			c-3.5,1.4-4.5,1.7-7.6,3.7C15.3,59.8,14.2,60.7,13.7,61z M2.6,39.7c0,2.4,0.3,5.6,1.1,7.5c0.6-0.1,1.1-0.6,1.8-1.1
			c2.9-2.5,13.2-7,14.4-5.7c0.6,1.1-1.6,5-1.8,6.8c1.1,0,6.9-2,8.7-2.4c5.7-1.2,11.3-2.6,16.2-5.7c1.3-0.8,2.3-1.5,3.2-2.4
			c2.5-2.4,4.1-5.2,4.1,1.7c0,3.9-0.4,3-0.6,4.9c0.9-0.1,3.5-2.8,4.1-3.4c1.8-1.8,1.3-2.4,0.7-5.8c-0.7-3.8-2.8-7.6-4.9-10.5
			c-11.4-15.1-36-13.5-44.7,5.2C3.4,32.1,2.6,35.4,2.6,39.7z"/>
		<path class="st1" d="M17.6,29.8c4.7,0.5,8.2,2.1,9.8,7c0.6,1.8-0.1,4,1.8,3.8c0.2-0.3,0.2-0.3,0.4-0.4c0.4-4.9,2.3-8.2,6.7-9.7
			c2.1-0.7,4.1-0.2,4.1-1.4c0-1.7-3.4,0.1-7.5-3.4c-4.2-3.6-2.5-7.6-3.7-8.1l-1-0.1c-1,1.4,0.4,7.9-7.9,10.3
			C19.1,28.1,15.9,27.7,17.6,29.8z M22.9,29.1c1.8,1.1,3.4,2,4.7,4c0.4,0.6,0.7,1.2,1.1,1.8c0.4-0.2,0.4-0.4,0.7-0.7
			c1.1-2.1,3.2-4.2,5.3-5.1l-0.9-0.7c-0.4-0.3-0.6-0.3-0.9-0.6c-2.7-1.8-3.1-3.5-3.8-4.4c-0.4-0.4-0.1-0.2-0.4-0.3
			c-0.8,1.2-1.3,2.4-2.4,3.4c-1.2,1.3-2.4,1.7-3,2.2C22.9,29,23.2,28.7,22.9,29.1z"/>
		<path class="st1" d="M124.9,51l-0.1-4.1c0-0.1,0-0.1,0-0.2c0-0.2,0-0.2-0.6-0.3c-1.3-0.2-3.6,0-3.7,0c-0.1,0-0.1,0.1-0.2,0.1
			c0,0-0.1,0-0.2,0c-0.5,1.3-0.1,30.6-0.1,34.8l5-0.1V70.1c1.5,0.1,2.6,1.7,7.3,1.4c4.8-0.3,8.3-3.2,10-7.4c1-2.6,1.4-4.3,1.3-7.4
			c-0.1-4.9-2.8-9.1-7-10.4C129.8,43.9,126,50.6,124.9,51z M125,53.8v10c0,5.4,5.6,6.4,8.3,5.4c6.6-2.4,6.4-16.4,1-19.5
			c-1.8-1-4.1-0.6-5.8,0.2c-0.9,0.5-1.3,0.8-2,1.5C125.6,52.1,125,52.6,125,53.8z"/>
		<path class="st1" d="M185.1,54.8c0,0-0.1,0-0.1,0.1l-1,0.4c-0.4,0.1-0.7,0.2-1.2,0.3c-4.5,1.2-12.3,3.7-12.4,9.2
			c-0.1,2.3,0.4,3.3,1.4,4.7c0.9,1.1,2.8,1.8,4.3,2c1.8,0.1,3.8-0.4,5.1-1c1.3-0.7,3.1-2.2,3.9-2.6c0.1,3.4-0.7,3.2,2.5,3.2
			c3.2,0,2.5,0.9,2.5-5.4c0-3.6,0-7.3,0-11c0-4.2,0-6-3-7.7c-4.4-2.5-14.3-1-15.7,3.6c-1.1,3.9,3.8,5.5,4.7,2.2c0.5-1.6,0-3,1.1-4.3
			C177.9,47.6,185.8,44.5,185.1,54.8z M185.1,56.9c-2.6,0.2-5.8,2.2-7.4,3.3c-5.1,3.5-1,11.7,6.4,6.4c1.5-1.1,1.1-1,1.1-4.2
			C185.2,60.5,185.2,58.7,185.1,56.9z"/>
		<path class="st1" d="M109.9,54.1l0,0.7c-0.7,0.5-3.6,1-4.6,1.4c-4.2,1.4-9.9,3.4-10.1,8.7c-0.1,6.7,6.8,7.7,11.3,5.2
			c0.8-0.5,1.2-0.8,1.9-1.3c0.3-0.2,1.7-1.6,1.4-1.1c0.5,0.4,0.2,2.3,0.2,3.1l4.8,0c0-3.5,0.1-17.7-0.1-20
			c-0.9-8.1-18.9-5.9-18.7,0.7c0.1,3.4,4.8,3.9,5,0.2c0.2-1.8,0.1-2.8,1.3-3.6C104.1,46.9,110.2,46,109.9,54.1z M109.9,56.8
			c-2.1,0.1-6.1,2.4-7.4,3.4c-2.4,1.8-3.5,4.5-1.1,7c2.8,2.9,8.4-0.3,8.6-2.2c0.1-0.8,0-2,0-2.8C109.9,60.4,110,58.6,109.9,56.8z"/>
		<path class="st1" d="M93,61.5c-0.6-0.3-0.4-0.3-1.2-0.3c-0.9,1.1-1.2,3.2-3.5,5.1c-4.6,3.5-13,0.5-13-10.2c0-4.5,2.5-8.4,6.9-8.4
			c2.6,0,4.1,0.9,4.3,3.4c0.1,1.4,0.2,2,1,2.6c2.2,1.8,7-0.4,4.4-4.4c-1.9-3.1-7.7-4.1-11.4-3.3c-5.5,1.2-10.1,6.3-10.3,12.5
			C70,63,72.1,67,74.9,69c0.7,0.6,1.3,1.1,2.2,1.5c5.2,2.2,10.1,0.8,13.6-3.5C91.5,66.1,93.1,63,93,61.5z"/>
		<path class="st1" d="M154.4,48.3l4.2,0.1c0.1,3.9-0.3,16.6,0.1,18.8c1.4,7.4,11.2,3.4,11.3,0.4c-2.1-1.3-1.1,0.8-4.1,0.6
			c-1.7-0.1-2.4-1.5-2.4-3.2V48.5l5.6-0.1c0.2-2.8,0-2.2-2.1-2.2c-1,0-2.5,0.1-3.3-0.2c-0.2-0.6-0.1-1.3-0.1-2l0-6
			c-1.8-0.7-1.5,0.4-2.1,2.7c-0.7,3-1.7,4.4-4.1,5.9c-0.6,0.4-1,0.4-1.9,0.5C154.4,47.2,154.2,47.1,154.4,48.3z"/>
		<path class="st1" d="M195.7,35.1l0,35.2c0,0.8,1.2,0.6,2,0.5c0.8,0,1.7,0,2.5,0l0-37.1C199.1,34,196.4,34.7,195.7,35.1z"/>
		<path class="st1" d="M147.3,46.9c-0.4,2.4-0.1,19.6-0.1,23.4c0,0.9,1.8,0.5,3.9,0.5c0.7,0,1.1,0.1,1.1-0.5c0-7.6,0.2-17.1,0-24.5
			C151,45.9,149,46.8,147.3,46.9z"/>
		<path class="st1" d="M148.4,38.1c-3.6,2.3-0.4,5.7,2.5,4.5c2.2-1,1.9-3.8-0.3-4.5C150.3,37.9,148.9,37.8,148.4,38.1z"/>
		<path class="st1" d="M130.1,29.1v3.4c0.1,0.8,0,0.4,0.6,0.6c0,0,3.9,0.1,4.3-0.2c0.4-0.4,0.2-19.4,0.2-21.4V9.3
			c-0.1-0.5,0,0.1-0.1-0.3c-0.3-1.1-3.8-0.6-4.8-0.5c-0.3,1.5,0,14-0.1,17.2c0,1.8-1.8,3.1-3.2,3.9c-0.7,0.4-1.7,0.9-2.5,1
			c-1.7,0.2-3.9-1.1-4.7-2.1c-1.3-1.6-0.9-3.7-0.9-6.2c0-2.3,0.1-12.5-0.1-13.8l-4.8,0c-0.4,1.8-0.1,9-0.1,11.2
			c0,3.6-0.5,7.9,1.2,10.4c2.9,4.3,7.3,4.6,11.8,1.7c0.7-0.4,1.1-0.8,1.5-1.2C129.3,29.7,129.3,29.3,130.1,29.1z"/>
		<path class="st1" d="M140.5,27.3c-0.6,0.3-1.9,1.4-1.9,1.8c0.6,1.5,3.6,3.5,5.5,4c4.6,1.3,11.5,0.2,12.7-5.3
			c2.1-9.7-13.7-8.9-14.2-14.6c-0.3-3.1,3.3-3.8,6-3.5c1.6,0.2,3.3,1.7,4.3,2.9c0.3,0.4,0.2,0.3,0.5,0.7c0.3,0.5,0.2,0.4,0.6,0.7
			c0,0,2.8-0.6,1-2.5c-0.7-0.8-1.5-1.7-2.5-2.3c-6.5-3.8-15.5,0.9-13.3,7.7c1.9,6.1,13.4,6.3,12.9,11.5c-0.3,3-5.7,6-10.5,0.3
			C141.2,28.2,141,27.8,140.5,27.3z"/>
		<path class="st1" d="M68.6,9.4v1l4.3,0.1c0.2,3.8-0.3,16.8,0.2,19c1.5,7.4,11,3.3,11.3,0.4c-2-1.7-2.2,1.7-4.8,0.4
			c-2.1-1-1.7-3.2-1.7-5.5c0-4.6-0.1-9.7,0-14.3l5.3-0.1c1-3.4-1.6-1.5-5.4-2.1l0-8.4l-1.4,0c-0.5,1-0.7,6.6-4.3,8.5
			C71.1,9.1,69.9,9.1,68.6,9.4z"/>
		<path class="st1" d="M91.6,15.6c0.7-1.4,2.5-4.1,4.8-3.1c1.3,0.6,1.6,1,3.5,0.8c1.4-0.1,2.2-0.9,2.1-2.5c-0.1-2.4-3.4-3.3-5.5-2.5
			c-1.5,0.6-3.9,2.6-4.7,4.1c-0.4-0.3-0.3,0.5-0.4-0.6l0-3.3c-0.8-0.3-4-0.3-4.5-0.2l-0.6,0.3C85.8,9,86.1,27,86.1,30.3
			c0,0.7-0.3,2.4,0.2,2.8c0.4,0.5,4.4,0.5,4.9,0C91.9,32.4,91.1,18,91.6,15.6z"/>
		<path class="st1" d="M104.2,9.7v22.5c0,1.2,0.1,1,4,1l0.9,0c0.2-2.1,0.1-21.6,0.1-25c-1.1,0-1.8,0.3-2.7,0.6
			c-0.5,0.1-0.7,0.2-1.2,0.3C104.7,9.1,104.5,9.2,104.2,9.7z"/>
		<path class="st1" d="M105.6,0.3c-1.1,0.6-2.3,1.6-1.4,3.3c0.7,1.2,2.3,1.8,3.7,1.1C111.5,3,108.2-1.2,105.6,0.3z"/>
	</g>
</g>
</svg>
