<?xml version="1.0" encoding="utf-8"?>
<!-- Generator: Adobe Illustrator 24.1.0, SVG Export Plug-In . SVG Version: 6.00 Build 0)  -->
<svg version="1.1" id="Layer_1" xmlns="http://www.w3.org/2000/svg" xmlns:xlink="http://www.w3.org/1999/xlink" x="0px" y="0px"
	 viewBox="0 0 57.5 56.8" style="enable-background:new 0 0 57.5 56.8;" xml:space="preserve">
<style type="text/css">
	.st0{clip-path:url(#SVGID_2_);}
	.st1{fill-rule:evenodd;clip-rule:evenodd;fill:#4E7A9B;}
</style>
<g>
	<defs>
		<rect id="SVGID_1_" x="0.5" y="-11.3" width="200" height="81.3"/>
	</defs>
	<clipPath id="SVGID_2_">
		<use xlink:href="#SVGID_1_"  style="overflow:visible;"/>
	</clipPath>
	<g class="st0">
		<path class="st1" d="M0.7,28.1c0,16.1,12.8,28.4,28.2,28.4c28.4,0,40.1-39,11.6-53.5c-5.8-3-11.9-2.8-18-1.9
			c-1.4,0.2-1.8,0.3-2.8,0.7c-1,0.4-1.7,0.7-2.5,1c-1,0.5-3.6,1.7-4.4,2.5c-0.6,0.5-1.3,1-2,1.5c-0.7,0.6-1.1,0.9-1.8,1.7
			c-1.2,1.4-2.2,2.3-3.2,3.7C2.7,16.7,0.7,22.1,0.7,28.1z M7,43c0.8-0.4,2.1-1.9,3.1-2.6c5.2-3.6,5-1.8,6.2-5c0.4-1.2,1.2-3,1.4-4.1
			c-2.4,0-13.1,5.1-12.9,7.2C4.7,39.4,6.6,42.2,7,43z M22.6,53.5c0,0.9,0.7,0.6,1.7,0.7c5.4,0.8,11,0.3,15.8-2.2
			c2.3-1.3,4.5-2.5,6.4-4.4c1.7-1.7,3.9-3.8,4.8-5.9c-0.7,0.1-0.9,0.4-1.5,0.8c-0.5,0.3-1.2,0.7-1.7,0.9c-4.6,2.4-10,3.6-15.1,5.2
			C27.9,50.4,24.6,52.8,22.6,53.5z M12.1,48.4c0.7-0.2,1.4-0.9,2.1-1.4c2.5-1.7,3.9-2.5,6.9-3.8c1.7-0.7,3.8-1.3,5.4-1.9
			c3.2-1.1,8.1-2.3,11-3.3c7.3-2.6,11.2-3,11.2-10.7c0-0.7,0-0.5-0.2-1c-0.7,0.1-2.5,2.1-4.8,3.4c-4.3,2.5-4.7,2.2-8.7,3.6
			c-0.8,0.3-2.2,0.8-3.1,1c-6.4,1.3-19,4.5-23.1,9.7c-0.9,1,0.3,1.7,1,2.5C10.3,46.9,11.4,48.1,12.1,48.4z M13.7,49.7
			c0.9,0.7,0.6,0.7,2.4,1.5c1,0.5,1.9,1,2.9,1.4c1.8,0.8,1.9-0.1,5.6-2.2c7.5-4.2,16.1-4.9,22.8-8.5c2-1.1,4.9-2.9,6.1-4.5
			c0.7-1,1.7-5.4,1.5-7c-0.7,0.3-2.4,2.1-4.2,3.3c-0.8,0.5-1.4,1-2.2,1.5c-2.5,1.5-5.1,2.7-7.8,3.6L35,40.8c-3.8,1.1-7.9,2-11.4,3.6
			c-3.5,1.4-4.5,1.7-7.6,3.7C15.3,48.5,14.2,49.4,13.7,49.7z M2.6,28.4c0,2.4,0.3,5.6,1.1,7.5c0.6-0.1,1.1-0.6,1.8-1.1
			c2.9-2.5,13.2-7,14.4-5.7c0.6,1.1-1.6,5-1.8,6.8c1.1,0,6.9-2,8.7-2.4c5.7-1.2,11.3-2.6,16.2-5.7c1.3-0.8,2.3-1.5,3.2-2.4
			c2.5-2.4,4.1-5.2,4.1,1.7c0,3.9-0.4,3-0.6,4.9c0.9-0.1,3.5-2.8,4.1-3.4c1.8-1.8,1.3-2.4,0.7-5.8c-0.7-3.8-2.8-7.6-4.9-10.5
			C38.3-2.7,13.6-1,4.9,17.6C3.4,20.8,2.6,24.1,2.6,28.4z"/>
		<path class="st1" d="M17.6,18.5c4.7,0.5,8.2,2.1,9.8,7c0.6,1.8-0.1,4,1.8,3.8c0.2-0.3,0.2-0.3,0.4-0.4c0.4-4.9,2.3-8.2,6.7-9.7
			c2.1-0.7,4.1-0.2,4.1-1.4c0-1.7-3.4,0.1-7.5-3.4c-4.2-3.6-2.5-7.6-3.7-8.1l-1-0.1c-1,1.4,0.4,7.9-7.9,10.3
			C19.1,16.8,15.9,16.4,17.6,18.5z M22.9,17.8c1.8,1.1,3.4,2,4.7,4c0.4,0.6,0.7,1.2,1.1,1.8c0.4-0.2,0.4-0.4,0.7-0.7
			c1.1-2.1,3.2-4.2,5.3-5.1l-0.9-0.7c-0.4-0.3-0.6-0.3-0.9-0.6c-2.7-1.8-3.1-3.5-3.8-4.4c-0.4-0.4-0.1-0.2-0.4-0.3
			c-0.8,1.2-1.3,2.4-2.4,3.4c-1.2,1.3-2.4,1.7-3,2.2C22.9,17.7,23.2,17.4,22.9,17.8z"/>
	</g>
</g>
</svg>
