<svg width="430" height="63" viewBox="0 0 430 63" fill="none" xmlns="http://www.w3.org/2000/svg">
<g clip-path="url(#clip0_2156_20)">
<path d="M146.207 31.1563H127.017V49.6631H117.883V5.77539H148.967V13.4425H127.017V23.423H146.207V31.1563Z" fill="#EA0606"/>
<path d="M160 49.6626H151.457V17.1434H160V49.6626ZM160 13.2438H151.457V5.24609H160V13.2438Z" fill="#EA0606"/>
<path d="M194.528 62.0563H185.984C185.984 62.0563 185.984 59.51 185.984 51.5124V45.6299C183.553 48.9346 180.464 50.521 176.521 50.521C168.176 50.521 163.246 43.5809 163.246 33.7326C163.246 22.7607 169.096 16.2832 177.245 16.2832C181.187 16.2832 184.21 17.8034 186.247 21.1083L186.314 17.1425H194.528V51.5785C194.528 56.0069 194.528 62.0563 194.528 62.0563ZM179.281 43.1843C184.013 43.1843 186.444 39.6812 186.444 32.6089C186.444 27.1229 183.291 23.2894 179.216 23.2894C174.944 23.2894 171.921 27.3212 171.921 33.1377C171.921 39.8134 174.287 43.1843 179.281 43.1843Z" fill="#EA0606"/>
<path d="M226.71 49.6618H218.627V45.1011C216.393 48.8026 213.041 50.5211 208.572 50.5211C202.132 50.5211 197.598 45.696 197.598 38.5576V17.1426H206.141V37.2357C206.141 41.3337 207.98 43.3166 211.595 43.3166C215.933 43.3166 218.233 40.2101 218.233 35.9139V17.1426H226.71V49.6618Z" fill="#EA0606"/>
<path d="M238.537 30.2295H251.745C251.614 25.4045 248.459 23.0911 245.108 23.0911C241.691 23.0911 238.865 25.735 238.537 30.2295ZM260.551 35.6494H238.274C238.537 40.5405 241.297 43.7131 245.503 43.7131C248.263 43.7131 250.694 42.325 251.286 40.0778H260.091C258.12 46.7535 252.797 50.521 245.896 50.521C235.119 50.521 229.73 44.5723 229.73 32.8072C229.73 22.7607 235.447 16.2832 245.371 16.2832C255.294 16.2832 260.551 22.7607 260.551 35.6494Z" fill="#EA0606"/>
<path d="M288.213 33.0731L282.758 15.6237H282.693L277.107 33.0731H288.213ZM303.525 49.6631H293.602L290.842 40.6079H274.741L271.652 49.6631H261.992L277.567 5.77539H288.147L303.525 49.6631Z" fill="#EA0606"/>
<path d="M314.278 49.6626H305.734V5.24609H314.278V49.6626Z" fill="#EA0606"/>
<path d="M325.946 30.2295H339.155C339.024 25.4045 335.869 23.0911 332.518 23.0911C329.101 23.0911 326.275 25.735 325.946 30.2295ZM347.961 35.6494H325.683C325.946 40.5405 328.706 43.7131 332.912 43.7131C335.672 43.7131 338.104 42.325 338.695 40.0778H347.501C345.53 46.7535 340.207 50.521 333.307 50.521C322.529 50.521 317.141 44.5723 317.141 32.8072C317.141 22.7607 322.857 16.2832 332.781 16.2832C342.704 16.2832 347.961 22.7607 347.961 35.6494Z" fill="#EA0606"/>
<path d="M359.458 49.6617H350.914V17.1425H358.931V21.0422C361.758 16.6798 365.043 16.2832 368.527 16.2832H369.643V25.074C368.855 24.9418 368.066 24.8757 367.277 24.8757C362.02 24.8757 359.458 27.5195 359.458 32.7411V49.6617Z" fill="#EA0606"/>
<path d="M390.363 36.7067V28.2464H398.314V37.4999C398.314 44.3738 394.371 50.5208 385.236 50.5208C375.773 50.5208 372.027 44.44 372.027 37.4338V8.35156H380.439V17.1424H398.314V23.2231H380.439V36.5746C380.439 40.6725 381.885 43.0519 385.368 43.0519C388.785 43.0519 390.363 40.7386 390.363 36.7067Z" fill="#EA0606"/>
<path d="M421.387 37.3017L421.453 33.7326C420.599 34.5919 419.087 35.0545 415.933 35.6494C411.07 36.5747 409.493 37.9628 409.493 40.7388C409.493 43.1843 410.938 44.374 413.633 44.374C418.036 44.374 421.322 41.1354 421.387 37.3017ZM429.996 49.6617H422.045C421.782 48.8685 421.585 47.7449 421.519 46.7535C419.482 49.0008 416.064 50.521 411.727 50.521C404.367 50.521 400.949 46.8857 400.949 41.598C400.949 32.2123 407.193 31.1548 415.801 29.9651C420.073 29.3702 421.255 28.511 421.255 26.2637C421.255 24.1486 419.153 22.8928 415.801 22.8928C411.924 22.8928 410.347 24.8096 409.953 27.7178H402.001C402.132 20.976 405.812 16.2832 416.196 16.2832C426.448 16.2832 429.996 20.91 429.996 29.1059V49.6617Z" fill="#EA0606"/>
<path d="M44.4484 50.4488L29.7657 30.8769C25.8807 32.8893 17.2137 39.1443 13.625 48.0657C49.5119 72.2559 86.8241 54.2704 99.3589 30.1643C97.0535 26.9082 91.6873 19.9684 88.6688 18.2578C82.3969 33.82 69.3575 44.2129 44.4484 50.4488Z" fill="#EA0606"/>
<path d="M65.1497 19.6412L64.8562 33.6019C78.3725 27.0282 84.0434 17.9502 85.1894 14.233C53.1595 -13.311 14.1703 2.95529 0 30.4994C2.75021 36.9725 6.73577 41.7211 8.38478 43.2862C20.3917 20.6138 38.7656 13.0172 46.4517 12.053L65.1497 19.6412Z" fill="#EA0606"/>
<path fill-rule="evenodd" clip-rule="evenodd" d="M36.5938 29.9739L45.0593 17.9746L53.1527 20.9464C51.9296 21.9219 51.1458 23.425 51.1458 25.1112C51.1458 28.0517 53.5296 30.4355 56.4701 30.4355C57.3555 30.4355 58.1903 30.2194 58.9249 29.8371L58.7939 36.2113L45.5095 41.3589L36.5938 29.9739Z" fill="#EA0606"/>
<path d="M44.4484 50.4488L29.7657 30.8769C25.8807 32.8893 17.2137 39.1443 13.625 48.0657C49.5119 72.2559 86.8241 54.2704 99.3589 30.1643C97.0535 26.9082 91.6873 19.9684 88.6688 18.2578C82.3969 33.82 69.3575 44.2129 44.4484 50.4488Z" fill="#EA0606"/>
<path d="M65.1497 19.6412L64.8562 33.6019C78.3725 27.0282 84.0434 17.9502 85.1894 14.233C53.1595 -13.311 14.1703 2.95529 0 30.4994C2.75021 36.9725 6.73577 41.7211 8.38478 43.2862C20.3917 20.6138 38.7656 13.0172 46.4517 12.053L65.1497 19.6412Z" fill="#EA0606"/>
<path fill-rule="evenodd" clip-rule="evenodd" d="M36.5938 29.9739L45.0593 17.9746L53.1527 20.9464C51.9296 21.9219 51.1458 23.425 51.1458 25.1112C51.1458 28.0517 53.5296 30.4355 56.4701 30.4355C57.3555 30.4355 58.1903 30.2194 58.9249 29.8371L58.7939 36.2113L45.5095 41.3589L36.5938 29.9739Z" fill="#EA0606"/>
</g>
<defs>
<clipPath id="clip0_2156_20">
<rect width="430" height="62.0659" fill="white"/>
</clipPath>
</defs>
</svg>
