<svg width="236" height="57" viewBox="0 0 236 57" fill="none" xmlns="http://www.w3.org/2000/svg">
<path d="M65.2642 23V8.45455H75.0653V10.9901H68.3395V14.456H74.5611V16.9915H68.3395V20.4645H75.0938V23H65.2642ZM79.9819 12.0909L81.9847 15.9048L84.0373 12.0909H87.141L83.9805 17.5455L87.2262 23H84.1367L81.9847 19.2287L79.8683 23H76.7433L79.9819 17.5455L76.8569 12.0909H79.9819ZM88.9379 27.0909V12.0909H91.9208V13.9233H92.0558C92.1883 13.6297 92.3801 13.3314 92.631 13.0284C92.8867 12.7206 93.2182 12.465 93.6254 12.2614C94.0373 12.053 94.5487 11.9489 95.1594 11.9489C95.9549 11.9489 96.6888 12.1572 97.3612 12.5739C98.0335 12.9858 98.5709 13.6084 98.9734 14.4418C99.3758 15.2704 99.5771 16.3097 99.5771 17.5597C99.5771 18.7765 99.3806 19.804 98.9876 20.642C98.5993 21.4754 98.069 22.1075 97.3967 22.5384C96.729 22.9645 95.9809 23.1776 95.1523 23.1776C94.5652 23.1776 94.0657 23.0805 93.6538 22.8864C93.2466 22.6922 92.9128 22.4484 92.6523 22.1548C92.3919 21.8565 92.1931 21.5559 92.0558 21.2528H91.9634V27.0909H88.9379ZM91.8995 17.5455C91.8995 18.1941 91.9895 18.7599 92.1694 19.2429C92.3493 19.7259 92.6097 20.1023 92.9506 20.3722C93.2915 20.6373 93.7058 20.7699 94.1935 20.7699C94.686 20.7699 95.1026 20.6349 95.4435 20.3651C95.7844 20.0904 96.0425 19.7116 96.2177 19.2287C96.3976 18.741 96.4876 18.1799 96.4876 17.5455C96.4876 16.9157 96.4 16.3617 96.2248 15.8835C96.0496 15.4053 95.7915 15.0312 95.4506 14.7614C95.1097 14.4915 94.6907 14.3565 94.1935 14.3565C93.7011 14.3565 93.2844 14.4867 92.9435 14.7472C92.6074 15.0076 92.3493 15.3769 92.1694 15.8551C91.9895 16.3333 91.8995 16.8968 91.8995 17.5455ZM106.566 23.2131C105.444 23.2131 104.478 22.9858 103.668 22.5312C102.863 22.072 102.243 21.4233 101.807 20.5852C101.372 19.7424 101.154 18.7457 101.154 17.5952C101.154 16.473 101.372 15.4882 101.807 14.6406C102.243 13.7931 102.856 13.1326 103.647 12.6591C104.442 12.1856 105.375 11.9489 106.445 11.9489C107.165 11.9489 107.835 12.0649 108.455 12.2969C109.08 12.5241 109.624 12.8674 110.088 13.3267C110.557 13.786 110.922 14.3636 111.182 15.0597C111.443 15.7509 111.573 16.5606 111.573 17.4886V18.3196H102.361V16.4446H108.725C108.725 16.009 108.63 15.6231 108.441 15.2869C108.251 14.9508 107.989 14.688 107.652 14.4986C107.321 14.3045 106.935 14.2074 106.495 14.2074C106.035 14.2074 105.628 14.3139 105.273 14.527C104.923 14.7353 104.648 15.017 104.449 15.3722C104.25 15.7225 104.149 16.1132 104.144 16.544V18.3267C104.144 18.8665 104.243 19.3329 104.442 19.7259C104.646 20.1188 104.932 20.4219 105.301 20.6349C105.671 20.848 106.109 20.9545 106.615 20.9545C106.952 20.9545 107.259 20.9072 107.539 20.8125C107.818 20.7178 108.057 20.5758 108.256 20.3864C108.455 20.197 108.606 19.965 108.711 19.6903L111.509 19.875C111.367 20.5473 111.076 21.1345 110.635 21.6364C110.2 22.1335 109.636 22.5218 108.945 22.8011C108.258 23.0758 107.465 23.2131 106.566 23.2131ZM113.547 23V12.0909H116.48V13.9943H116.594C116.793 13.3172 117.127 12.8059 117.596 12.4602C118.064 12.1098 118.604 11.9347 119.215 11.9347C119.366 11.9347 119.53 11.9441 119.705 11.9631C119.88 11.982 120.034 12.008 120.167 12.0412V14.7259C120.025 14.6832 119.828 14.6454 119.577 14.6122C119.326 14.5791 119.096 14.5625 118.888 14.5625C118.443 14.5625 118.045 14.6596 117.695 14.8537C117.349 15.0431 117.075 15.3082 116.871 15.6491C116.672 15.9901 116.573 16.383 116.573 16.8281V23H113.547ZM121.731 23V12.0909H124.756V23H121.731ZM123.251 10.6847C122.801 10.6847 122.415 10.5355 122.093 10.2372C121.776 9.93419 121.617 9.57197 121.617 9.15057C121.617 8.7339 121.776 8.37642 122.093 8.07812C122.415 7.77509 122.801 7.62358 123.251 7.62358C123.701 7.62358 124.084 7.77509 124.401 8.07812C124.723 8.37642 124.884 8.7339 124.884 9.15057C124.884 9.57197 124.723 9.93419 124.401 10.2372C124.084 10.5355 123.701 10.6847 123.251 10.6847ZM132.152 23.2131C131.029 23.2131 130.064 22.9858 129.254 22.5312C128.449 22.072 127.829 21.4233 127.393 20.5852C126.958 19.7424 126.74 18.7457 126.74 17.5952C126.74 16.473 126.958 15.4882 127.393 14.6406C127.829 13.7931 128.442 13.1326 129.233 12.6591C130.028 12.1856 130.961 11.9489 132.031 11.9489C132.751 11.9489 133.421 12.0649 134.041 12.2969C134.666 12.5241 135.21 12.8674 135.674 13.3267C136.143 13.786 136.508 14.3636 136.768 15.0597C137.029 15.7509 137.159 16.5606 137.159 17.4886V18.3196H127.947V16.4446H134.311C134.311 16.009 134.216 15.6231 134.027 15.2869C133.837 14.9508 133.574 14.688 133.238 14.4986C132.907 14.3045 132.521 14.2074 132.081 14.2074C131.621 14.2074 131.214 14.3139 130.859 14.527C130.509 14.7353 130.234 15.017 130.035 15.3722C129.836 15.7225 129.734 16.1132 129.73 16.544V18.3267C129.73 18.8665 129.829 19.3329 130.028 19.7259C130.232 20.1188 130.518 20.4219 130.887 20.6349C131.257 20.848 131.695 20.9545 132.201 20.9545C132.538 20.9545 132.845 20.9072 133.125 20.8125C133.404 20.7178 133.643 20.5758 133.842 20.3864C134.041 20.197 134.192 19.965 134.297 19.6903L137.095 19.875C136.953 20.5473 136.662 21.1345 136.221 21.6364C135.786 22.1335 135.222 22.5218 134.531 22.8011C133.844 23.0758 133.051 23.2131 132.152 23.2131ZM133.387 10.7841L131.96 9.05114L130.532 10.7841H127.954V10.6847L130.831 7.55966H133.082L135.966 10.6847V10.7841H133.387ZM142.159 16.6932V23H139.133V12.0909H142.017V14.0156H142.145C142.386 13.3812 142.791 12.8793 143.359 12.5099C143.927 12.1359 144.616 11.9489 145.426 11.9489C146.183 11.9489 146.844 12.1146 147.407 12.446C147.971 12.7775 148.409 13.2509 148.721 13.8665C149.034 14.4773 149.19 15.2064 149.19 16.054V23H146.164V16.5938C146.169 15.9261 145.999 15.4053 145.653 15.0312C145.307 14.6525 144.832 14.4631 144.225 14.4631C143.818 14.4631 143.458 14.5507 143.146 14.7259C142.838 14.901 142.597 15.1567 142.422 15.4929C142.251 15.8243 142.163 16.2244 142.159 16.6932ZM156.504 23.2131C155.386 23.2131 154.425 22.9763 153.62 22.5028C152.82 22.0246 152.204 21.3617 151.773 20.5142C151.347 19.6667 151.134 18.6913 151.134 17.5881C151.134 16.4706 151.35 15.4905 151.781 14.6477C152.216 13.8002 152.834 13.1397 153.634 12.6662C154.434 12.188 155.386 11.9489 156.489 11.9489C157.441 11.9489 158.274 12.1217 158.989 12.4673C159.704 12.813 160.27 13.2983 160.687 13.9233C161.103 14.5483 161.333 15.2822 161.376 16.125H158.521C158.44 15.5805 158.227 15.1425 157.881 14.8111C157.54 14.4749 157.093 14.3068 156.539 14.3068C156.07 14.3068 155.661 14.4347 155.31 14.6903C154.965 14.9413 154.695 15.3082 154.501 15.7912C154.307 16.2741 154.21 16.8589 154.21 17.5455C154.21 18.2415 154.304 18.8333 154.494 19.321C154.688 19.8087 154.96 20.1804 155.31 20.4361C155.661 20.6918 156.07 20.8196 156.539 20.8196C156.885 20.8196 157.195 20.7486 157.469 20.6065C157.749 20.4645 157.978 20.2585 158.158 19.9886C158.343 19.714 158.464 19.3849 158.521 19.0014H161.376C161.328 19.8348 161.101 20.5687 160.694 21.2031C160.291 21.8329 159.735 22.3253 159.025 22.6804C158.315 23.0355 157.474 23.2131 156.504 23.2131ZM163.313 23V12.0909H166.338V23H163.313ZM164.833 10.6847C164.383 10.6847 163.997 10.5355 163.675 10.2372C163.358 9.93419 163.199 9.57197 163.199 9.15057C163.199 8.7339 163.358 8.37642 163.675 8.07812C163.997 7.77509 164.383 7.62358 164.833 7.62358C165.283 7.62358 165.666 7.77509 165.983 8.07812C166.305 8.37642 166.466 8.7339 166.466 9.15057C166.466 9.57197 166.305 9.93419 165.983 10.2372C165.666 10.5355 165.283 10.6847 164.833 10.6847ZM171.873 23.206C171.177 23.206 170.557 23.0852 170.012 22.8438C169.468 22.5975 169.037 22.2353 168.719 21.7571C168.407 21.2741 168.251 20.6728 168.251 19.9531C168.251 19.3471 168.362 18.8381 168.585 18.4261C168.807 18.0142 169.11 17.6828 169.494 17.4318C169.877 17.1809 170.313 16.9915 170.8 16.8636C171.293 16.7358 171.809 16.6458 172.349 16.5938C172.983 16.5275 173.495 16.4659 173.883 16.4091C174.271 16.3475 174.553 16.2576 174.728 16.1392C174.903 16.0208 174.991 15.8456 174.991 15.6136V15.571C174.991 15.1212 174.849 14.7732 174.565 14.527C174.285 14.2808 173.888 14.1577 173.371 14.1577C172.827 14.1577 172.394 14.2784 172.072 14.5199C171.75 14.7566 171.537 15.0549 171.433 15.4148L168.634 15.1875C168.776 14.5246 169.056 13.9517 169.472 13.4688C169.889 12.9811 170.426 12.607 171.085 12.3466C171.747 12.0814 172.514 11.9489 173.386 11.9489C173.992 11.9489 174.572 12.0199 175.126 12.1619C175.684 12.304 176.179 12.5241 176.61 12.8224C177.046 13.1207 177.389 13.5043 177.64 13.973C177.891 14.437 178.016 14.9934 178.016 15.642V23H175.147V21.4872H175.062C174.887 21.8281 174.652 22.1288 174.359 22.3892C174.065 22.6449 173.712 22.8461 173.3 22.9929C172.888 23.1349 172.413 23.206 171.873 23.206ZM172.739 21.1179C173.184 21.1179 173.577 21.0303 173.918 20.8551C174.259 20.6752 174.527 20.4337 174.721 20.1307C174.915 19.8277 175.012 19.4844 175.012 19.1009V17.9432C174.917 18.0047 174.787 18.0616 174.621 18.1136C174.46 18.161 174.278 18.206 174.075 18.2486C173.871 18.2865 173.667 18.322 173.464 18.3551C173.26 18.3835 173.076 18.4096 172.91 18.4332C172.555 18.4853 172.245 18.5682 171.979 18.6818C171.714 18.7955 171.508 18.9493 171.362 19.1435C171.215 19.3329 171.141 19.5696 171.141 19.8537C171.141 20.2656 171.29 20.5805 171.589 20.7983C171.892 21.0114 172.275 21.1179 172.739 21.1179ZM74.7727 39H73.3636C73.2803 38.5947 73.1345 38.2386 72.9261 37.9318C72.7216 37.625 72.4716 37.3674 72.1761 37.1591C71.8845 36.947 71.5606 36.7879 71.2045 36.6818C70.8485 36.5758 70.4773 36.5227 70.0909 36.5227C69.3864 36.5227 68.7481 36.7008 68.1761 37.0568C67.608 37.4129 67.1553 37.9375 66.8182 38.6307C66.4848 39.3239 66.3182 40.1742 66.3182 41.1818C66.3182 42.1894 66.4848 43.0398 66.8182 43.733C67.1553 44.4261 67.608 44.9508 68.1761 45.3068C68.7481 45.6629 69.3864 45.8409 70.0909 45.8409C70.4773 45.8409 70.8485 45.7879 71.2045 45.6818C71.5606 45.5758 71.8845 45.4186 72.1761 45.2102C72.4716 44.9981 72.7216 44.7386 72.9261 44.4318C73.1345 44.1212 73.2803 43.7652 73.3636 43.3636H74.7727C74.6667 43.9583 74.4735 44.4905 74.1932 44.9602C73.9129 45.4299 73.5644 45.8295 73.1477 46.1591C72.7311 46.4848 72.2633 46.733 71.7443 46.9034C71.2292 47.0739 70.678 47.1591 70.0909 47.1591C69.0985 47.1591 68.2159 46.9167 67.4432 46.4318C66.6705 45.947 66.0625 45.2576 65.6193 44.3636C65.1761 43.4697 64.9545 42.4091 64.9545 41.1818C64.9545 39.9545 65.1761 38.8939 65.6193 38C66.0625 37.1061 66.6705 36.4167 67.4432 35.9318C68.2159 35.447 69.0985 35.2045 70.0909 35.2045C70.678 35.2045 71.2292 35.2898 71.7443 35.4602C72.2633 35.6307 72.7311 35.8807 73.1477 36.2102C73.5644 36.536 73.9129 36.9337 74.1932 37.4034C74.4735 37.8693 74.6667 38.4015 74.7727 39ZM80.4134 47.1818C79.6255 47.1818 78.9342 46.9943 78.3395 46.6193C77.7486 46.2443 77.2865 45.7197 76.9531 45.0455C76.6236 44.3712 76.4588 43.5833 76.4588 42.6818C76.4588 41.7727 76.6236 40.9792 76.9531 40.3011C77.2865 39.6231 77.7486 39.0966 78.3395 38.7216C78.9342 38.3466 79.6255 38.1591 80.4134 38.1591C81.2012 38.1591 81.8906 38.3466 82.4815 38.7216C83.0762 39.0966 83.5384 39.6231 83.8679 40.3011C84.2012 40.9792 84.3679 41.7727 84.3679 42.6818C84.3679 43.5833 84.2012 44.3712 83.8679 45.0455C83.5384 45.7197 83.0762 46.2443 82.4815 46.6193C81.8906 46.9943 81.2012 47.1818 80.4134 47.1818ZM80.4134 45.9773C81.0118 45.9773 81.5043 45.8239 81.8906 45.517C82.277 45.2102 82.563 44.8068 82.7486 44.3068C82.9342 43.8068 83.027 43.2652 83.027 42.6818C83.027 42.0985 82.9342 41.5549 82.7486 41.0511C82.563 40.5473 82.277 40.1402 81.8906 39.8295C81.5043 39.5189 81.0118 39.3636 80.4134 39.3636C79.8149 39.3636 79.3224 39.5189 78.9361 39.8295C78.5497 40.1402 78.2637 40.5473 78.0781 41.0511C77.8925 41.5549 77.7997 42.0985 77.7997 42.6818C77.7997 43.2652 77.8925 43.8068 78.0781 44.3068C78.2637 44.8068 78.5497 45.2102 78.9361 45.517C79.3224 45.8239 79.8149 45.9773 80.4134 45.9773ZM87.7557 41.75V47H86.4148V38.2727H87.7102V39.6364H87.8239C88.0284 39.1932 88.339 38.8371 88.7557 38.5682C89.1723 38.2955 89.7102 38.1591 90.3693 38.1591C90.9602 38.1591 91.4773 38.2803 91.9205 38.5227C92.3636 38.7614 92.7083 39.125 92.9545 39.6136C93.2008 40.0985 93.3239 40.7121 93.3239 41.4545V47H91.983V41.5455C91.983 40.8598 91.8049 40.3258 91.4489 39.9432C91.0928 39.5568 90.6042 39.3636 89.983 39.3636C89.5549 39.3636 89.1723 39.4564 88.8352 39.642C88.5019 39.8277 88.2386 40.0985 88.0455 40.4545C87.8523 40.8106 87.7557 41.2424 87.7557 41.75ZM101.956 40.2273L100.751 40.5682C100.676 40.3674 100.564 40.1723 100.416 39.983C100.272 39.7898 100.075 39.6307 99.8253 39.5057C99.5753 39.3807 99.2552 39.3182 98.8651 39.3182C98.331 39.3182 97.8859 39.4413 97.5298 39.6875C97.1776 39.9299 97.0014 40.2386 97.0014 40.6136C97.0014 40.947 97.1226 41.2102 97.3651 41.4034C97.6075 41.5966 97.9863 41.7576 98.5014 41.8864L99.7969 42.2045C100.577 42.3939 101.159 42.6837 101.541 43.0739C101.924 43.4602 102.115 43.9583 102.115 44.5682C102.115 45.0682 101.971 45.5152 101.683 45.9091C101.399 46.303 101.001 46.6136 100.49 46.8409C99.9787 47.0682 99.384 47.1818 98.706 47.1818C97.8158 47.1818 97.0791 46.9886 96.4957 46.6023C95.9124 46.2159 95.5431 45.6515 95.3878 44.9091L96.6605 44.5909C96.7817 45.0606 97.0109 45.4129 97.348 45.6477C97.6889 45.8826 98.134 46 98.6832 46C99.3082 46 99.8045 45.8674 100.172 45.6023C100.543 45.3333 100.729 45.0114 100.729 44.6364C100.729 44.3333 100.623 44.0795 100.411 43.875C100.198 43.6667 99.8726 43.5114 99.4332 43.4091L97.9787 43.0682C97.1795 42.8788 96.5923 42.5852 96.2173 42.1875C95.8461 41.786 95.6605 41.2841 95.6605 40.6818C95.6605 40.1894 95.7988 39.7538 96.0753 39.375C96.3556 38.9962 96.7363 38.6989 97.2173 38.483C97.7022 38.267 98.2514 38.1591 98.8651 38.1591C99.7287 38.1591 100.407 38.3485 100.899 38.7273C101.395 39.1061 101.748 39.6061 101.956 40.2273ZM109.634 43.4318V38.2727H110.974V47H109.634V45.5227H109.543C109.338 45.9659 109.02 46.3428 108.588 46.6534C108.156 46.9602 107.611 47.1136 106.952 47.1136C106.406 47.1136 105.921 46.9943 105.497 46.7557C105.073 46.5133 104.74 46.1496 104.497 45.6648C104.255 45.1761 104.134 44.5606 104.134 43.8182V38.2727H105.474V43.7273C105.474 44.3636 105.652 44.8712 106.009 45.25C106.368 45.6288 106.827 45.8182 107.384 45.8182C107.717 45.8182 108.056 45.733 108.401 45.5625C108.749 45.392 109.041 45.1307 109.276 44.7784C109.514 44.4261 109.634 43.9773 109.634 43.4318ZM114.771 35.3636V47H113.43V35.3636H114.771ZM121.023 38.2727V39.4091H116.5V38.2727H121.023ZM117.818 36.1818H119.159V44.5C119.159 44.8788 119.214 45.1629 119.324 45.3523C119.438 45.5379 119.581 45.6629 119.756 45.7273C119.934 45.7879 120.121 45.8182 120.318 45.8182C120.466 45.8182 120.587 45.8106 120.682 45.7955C120.777 45.7765 120.852 45.7614 120.909 45.75L121.182 46.9545C121.091 46.9886 120.964 47.0227 120.801 47.0568C120.638 47.0947 120.432 47.1136 120.182 47.1136C119.803 47.1136 119.432 47.0322 119.068 46.8693C118.708 46.7064 118.409 46.4583 118.17 46.125C117.936 45.7917 117.818 45.3712 117.818 44.8636V36.1818ZM126.491 47.1818C125.704 47.1818 125.012 46.9943 124.418 46.6193C123.827 46.2443 123.365 45.7197 123.031 45.0455C122.702 44.3712 122.537 43.5833 122.537 42.6818C122.537 41.7727 122.702 40.9792 123.031 40.3011C123.365 39.6231 123.827 39.0966 124.418 38.7216C125.012 38.3466 125.704 38.1591 126.491 38.1591C127.279 38.1591 127.969 38.3466 128.56 38.7216C129.154 39.0966 129.616 39.6231 129.946 40.3011C130.279 40.9792 130.446 41.7727 130.446 42.6818C130.446 43.5833 130.279 44.3712 129.946 45.0455C129.616 45.7197 129.154 46.2443 128.56 46.6193C127.969 46.9943 127.279 47.1818 126.491 47.1818ZM126.491 45.9773C127.09 45.9773 127.582 45.8239 127.969 45.517C128.355 45.2102 128.641 44.8068 128.827 44.3068C129.012 43.8068 129.105 43.2652 129.105 42.6818C129.105 42.0985 129.012 41.5549 128.827 41.0511C128.641 40.5473 128.355 40.1402 127.969 39.8295C127.582 39.5189 127.09 39.3636 126.491 39.3636C125.893 39.3636 125.401 39.5189 125.014 39.8295C124.628 40.1402 124.342 40.5473 124.156 41.0511C123.971 41.5549 123.878 42.0985 123.878 42.6818C123.878 43.2652 123.971 43.8068 124.156 44.3068C124.342 44.8068 124.628 45.2102 125.014 45.517C125.401 45.8239 125.893 45.9773 126.491 45.9773ZM132.493 47V38.2727H133.788V39.5909H133.879C134.038 39.1591 134.326 38.8087 134.743 38.5398C135.16 38.2708 135.629 38.1364 136.152 38.1364C136.25 38.1364 136.374 38.1383 136.521 38.142C136.669 38.1458 136.781 38.1515 136.857 38.1591V39.5227C136.811 39.5114 136.707 39.4943 136.544 39.4716C136.385 39.4451 136.216 39.4318 136.038 39.4318C135.614 39.4318 135.235 39.5208 134.902 39.6989C134.572 39.8731 134.311 40.1155 134.118 40.4261C133.929 40.733 133.834 41.0833 133.834 41.4773V47H132.493ZM138.446 47V38.2727H139.787V47H138.446ZM139.128 36.8182C138.866 36.8182 138.641 36.7292 138.452 36.5511C138.266 36.3731 138.173 36.1591 138.173 35.9091C138.173 35.6591 138.266 35.4451 138.452 35.267C138.641 35.089 138.866 35 139.128 35C139.389 35 139.613 35.089 139.798 35.267C139.988 35.4451 140.082 35.6591 140.082 35.9091C140.082 36.1591 139.988 36.3731 139.798 36.5511C139.613 36.7292 139.389 36.8182 139.128 36.8182ZM144.811 47.2045C144.258 47.2045 143.756 47.1004 143.305 46.892C142.855 46.6799 142.497 46.375 142.232 45.9773C141.966 45.5758 141.834 45.0909 141.834 44.5227C141.834 44.0227 141.932 43.6174 142.129 43.3068C142.326 42.9924 142.589 42.7462 142.919 42.5682C143.249 42.3902 143.612 42.2576 144.01 42.1705C144.411 42.0795 144.815 42.0076 145.22 41.9545C145.75 41.8864 146.18 41.8352 146.51 41.8011C146.843 41.7633 147.086 41.7008 147.237 41.6136C147.393 41.5265 147.47 41.375 147.47 41.1591V41.1136C147.47 40.553 147.317 40.1174 147.01 39.8068C146.707 39.4962 146.247 39.3409 145.629 39.3409C144.989 39.3409 144.487 39.4811 144.124 39.7614C143.76 40.0417 143.504 40.3409 143.357 40.6591L142.084 40.2045C142.311 39.6742 142.614 39.2614 142.993 38.9659C143.375 38.6667 143.792 38.4583 144.243 38.3409C144.697 38.2197 145.144 38.1591 145.584 38.1591C145.864 38.1591 146.186 38.1932 146.55 38.2614C146.917 38.3258 147.271 38.4602 147.612 38.6648C147.957 38.8693 148.243 39.178 148.47 39.5909C148.697 40.0038 148.811 40.5568 148.811 41.25V47H147.47V45.8182H147.402C147.311 46.0076 147.16 46.2102 146.947 46.4261C146.735 46.642 146.453 46.8258 146.101 46.9773C145.749 47.1288 145.319 47.2045 144.811 47.2045ZM145.016 46C145.546 46 145.993 45.8958 146.357 45.6875C146.724 45.4792 147 45.2102 147.186 44.8807C147.375 44.5511 147.47 44.2045 147.47 43.8409V42.6136C147.413 42.6818 147.288 42.7443 147.095 42.8011C146.906 42.8542 146.686 42.9015 146.436 42.9432C146.19 42.9811 145.949 43.0152 145.714 43.0455C145.483 43.072 145.296 43.0947 145.152 43.1136C144.804 43.1591 144.478 43.233 144.175 43.3352C143.875 43.4337 143.633 43.5833 143.447 43.7841C143.266 43.9811 143.175 44.25 143.175 44.5909C143.175 45.0568 143.347 45.4091 143.692 45.6477C144.04 45.8826 144.482 46 145.016 46ZM157.713 31.6136V50.75H156.577V31.6136H157.713ZM166.152 47H164.675L168.947 35.3636H170.402L174.675 47H173.197L169.72 37.2045H169.629L166.152 47ZM166.697 42.4545H172.652V43.7045H166.697V42.4545ZM179.601 47.1818C178.874 47.1818 178.232 46.9981 177.675 46.6307C177.118 46.2595 176.682 45.7367 176.368 45.0625C176.054 44.3845 175.896 43.5833 175.896 42.6591C175.896 41.7424 176.054 40.947 176.368 40.2727C176.682 39.5985 177.12 39.0777 177.68 38.7102C178.241 38.3428 178.889 38.1591 179.624 38.1591C180.192 38.1591 180.641 38.2538 180.97 38.4432C181.304 38.6288 181.557 38.8409 181.732 39.0795C181.91 39.3144 182.048 39.5076 182.146 39.6591H182.26V35.3636H183.601V47H182.305V45.6591H182.146C182.048 45.8182 181.908 46.0189 181.726 46.2614C181.544 46.5 181.285 46.714 180.947 46.9034C180.61 47.089 180.161 47.1818 179.601 47.1818ZM179.783 45.9773C180.321 45.9773 180.775 45.8371 181.146 45.5568C181.518 45.2727 181.8 44.8807 181.993 44.3807C182.186 43.8769 182.283 43.2955 182.283 42.6364C182.283 41.9848 182.188 41.4148 181.999 40.9261C181.809 40.4337 181.529 40.0511 181.158 39.7784C180.786 39.5019 180.328 39.3636 179.783 39.3636C179.214 39.3636 178.741 39.5095 178.362 39.8011C177.987 40.089 177.705 40.4811 177.516 40.9773C177.33 41.4697 177.237 42.0227 177.237 42.6364C177.237 43.2576 177.332 43.822 177.521 44.3295C177.714 44.8333 177.999 45.2348 178.374 45.5341C178.752 45.8295 179.222 45.9773 179.783 45.9773ZM193.379 38.2727L190.152 47H188.788L185.561 38.2727H187.016L189.425 45.2273H189.516L191.925 38.2727H193.379ZM195.149 47V38.2727H196.49V47H195.149ZM195.831 36.8182C195.57 36.8182 195.344 36.7292 195.155 36.5511C194.969 36.3731 194.876 36.1591 194.876 35.9091C194.876 35.6591 194.969 35.4451 195.155 35.267C195.344 35.089 195.57 35 195.831 35C196.092 35 196.316 35.089 196.501 35.267C196.691 35.4451 196.786 35.6591 196.786 35.9091C196.786 36.1591 196.691 36.3731 196.501 36.5511C196.316 36.7292 196.092 36.8182 195.831 36.8182ZM205.128 40.2273L203.923 40.5682C203.848 40.3674 203.736 40.1723 203.588 39.983C203.444 39.7898 203.247 39.6307 202.997 39.5057C202.747 39.3807 202.427 39.3182 202.037 39.3182C201.503 39.3182 201.058 39.4413 200.702 39.6875C200.349 39.9299 200.173 40.2386 200.173 40.6136C200.173 40.947 200.295 41.2102 200.537 41.4034C200.779 41.5966 201.158 41.7576 201.673 41.8864L202.969 42.2045C203.749 42.3939 204.33 42.6837 204.713 43.0739C205.096 43.4602 205.287 43.9583 205.287 44.5682C205.287 45.0682 205.143 45.5152 204.855 45.9091C204.571 46.303 204.173 46.6136 203.662 46.8409C203.151 47.0682 202.556 47.1818 201.878 47.1818C200.988 47.1818 200.251 46.9886 199.668 46.6023C199.084 46.2159 198.715 45.6515 198.56 44.9091L199.832 44.5909C199.954 45.0606 200.183 45.4129 200.52 45.6477C200.861 45.8826 201.306 46 201.855 46C202.48 46 202.976 45.8674 203.344 45.6023C203.715 45.3333 203.901 45.0114 203.901 44.6364C203.901 44.3333 203.795 44.0795 203.582 43.875C203.37 43.6667 203.045 43.5114 202.605 43.4091L201.151 43.0682C200.351 42.8788 199.764 42.5852 199.389 42.1875C199.018 41.786 198.832 41.2841 198.832 40.6818C198.832 40.1894 198.971 39.7538 199.247 39.375C199.527 38.9962 199.908 38.6989 200.389 38.483C200.874 38.267 201.423 38.1591 202.037 38.1591C202.901 38.1591 203.579 38.3485 204.071 38.7273C204.567 39.1061 204.92 39.6061 205.128 40.2273ZM210.851 47.1818C210.063 47.1818 209.372 46.9943 208.777 46.6193C208.186 46.2443 207.724 45.7197 207.391 45.0455C207.061 44.3712 206.896 43.5833 206.896 42.6818C206.896 41.7727 207.061 40.9792 207.391 40.3011C207.724 39.6231 208.186 39.0966 208.777 38.7216C209.372 38.3466 210.063 38.1591 210.851 38.1591C211.639 38.1591 212.328 38.3466 212.919 38.7216C213.514 39.0966 213.976 39.6231 214.305 40.3011C214.639 40.9792 214.805 41.7727 214.805 42.6818C214.805 43.5833 214.639 44.3712 214.305 45.0455C213.976 45.7197 213.514 46.2443 212.919 46.6193C212.328 46.9943 211.639 47.1818 210.851 47.1818ZM210.851 45.9773C211.449 45.9773 211.942 45.8239 212.328 45.517C212.714 45.2102 213 44.8068 213.186 44.3068C213.372 43.8068 213.464 43.2652 213.464 42.6818C213.464 42.0985 213.372 41.5549 213.186 41.0511C213 40.5473 212.714 40.1402 212.328 39.8295C211.942 39.5189 211.449 39.3636 210.851 39.3636C210.252 39.3636 209.76 39.5189 209.374 39.8295C208.987 40.1402 208.701 40.5473 208.516 41.0511C208.33 41.5549 208.237 42.0985 208.237 42.6818C208.237 43.2652 208.33 43.8068 208.516 44.3068C208.701 44.8068 208.987 45.2102 209.374 45.517C209.76 45.8239 210.252 45.9773 210.851 45.9773ZM216.852 47V38.2727H218.148V39.5909H218.239C218.398 39.1591 218.686 38.8087 219.102 38.5398C219.519 38.2708 219.989 38.1364 220.511 38.1364C220.61 38.1364 220.733 38.1383 220.881 38.142C221.028 38.1458 221.14 38.1515 221.216 38.1591V39.5227C221.17 39.5114 221.066 39.4943 220.903 39.4716C220.744 39.4451 220.576 39.4318 220.398 39.4318C219.973 39.4318 219.595 39.5208 219.261 39.6989C218.932 39.8731 218.67 40.1155 218.477 40.4261C218.288 40.733 218.193 41.0833 218.193 41.4773V47H216.852ZM223.935 50.2727C223.707 50.2727 223.505 50.2538 223.327 50.2159C223.149 50.1818 223.026 50.1477 222.957 50.1136L223.298 48.9318C223.624 49.0152 223.912 49.0455 224.162 49.0227C224.412 49 224.634 48.8883 224.827 48.6875C225.024 48.4905 225.204 48.1705 225.366 47.7273L225.616 47.0455L222.389 38.2727H223.844L226.253 45.2273H226.344L228.753 38.2727H230.207L226.503 48.2727C226.336 48.7235 226.13 49.0966 225.884 49.392C225.637 49.6913 225.351 49.9129 225.026 50.0568C224.704 50.2008 224.34 50.2727 223.935 50.2727ZM232.408 47.0909C232.127 47.0909 231.887 46.9905 231.686 46.7898C231.485 46.589 231.385 46.3485 231.385 46.0682C231.385 45.7879 231.485 45.5473 231.686 45.3466C231.887 45.1458 232.127 45.0455 232.408 45.0455C232.688 45.0455 232.929 45.1458 233.129 45.3466C233.33 45.5473 233.43 45.7879 233.43 46.0682C233.43 46.2538 233.383 46.4242 233.288 46.5795C233.197 46.7348 233.074 46.8598 232.919 46.9545C232.768 47.0455 232.597 47.0909 232.408 47.0909Z" fill="white"/>
<path fill-rule="evenodd" clip-rule="evenodd" d="M0 27.6661C0 43.7397 12.7973 56.0504 28.2059 56.0179C56.5983 55.9774 68.2846 16.9692 39.8516 2.48512C34.0693 -0.466852 27.9869 -0.353315 21.8965 0.603642C20.534 0.822607 20.1285 0.936145 19.131 1.34163C18.1741 1.74713 17.4766 2.00664 16.6657 2.37158C15.6357 2.85006 13.0487 4.10708 12.2377 4.84507C11.6862 5.32355 10.9158 5.83447 10.2508 6.3535C9.5128 6.94551 9.10731 7.23746 8.40987 8.01601C7.18529 9.37845 6.19589 10.2949 5.19839 11.6979C1.95446 16.2718 0 21.6891 0 27.6661ZM6.26888 42.5557C7.07986 42.1907 8.32877 40.6823 9.32628 39.9768C14.4922 36.3679 14.3057 38.2088 15.4816 34.9649C15.8871 33.7484 16.6657 32.0129 16.8522 30.837C14.4192 30.8694 3.76295 35.9218 3.90893 38.0223C3.94137 38.9468 5.82284 41.7447 6.26888 42.5557ZM21.864 53.066C21.8235 53.9499 22.602 53.658 23.559 53.804C28.9763 54.615 34.5802 54.1365 39.3731 51.6305C41.7006 50.3735 43.9146 49.1571 45.788 47.2756C47.491 45.6212 49.6645 43.5207 50.6214 41.4203C49.8834 41.5257 49.7374 41.8582 49.113 42.2313C48.594 42.5557 47.929 42.8882 47.418 43.1477C42.8441 45.5482 37.4592 46.7971 32.3338 48.3461C27.176 49.9356 23.8185 52.401 21.864 53.066ZM11.3213 48.0136C11.9863 47.8352 12.7162 47.0972 13.4217 46.6187C15.9682 44.9156 17.2901 44.1452 20.3151 42.8152C21.9776 42.0772 24.078 41.4933 25.7324 40.9337C28.9763 39.8713 33.8098 38.6549 36.6888 37.6168C43.9876 35.0379 47.8965 34.5918 47.8965 26.9281C47.8965 26.2225 47.929 26.409 47.71 25.9711C46.972 26.0441 45.1635 28.031 42.8766 29.361C38.5621 31.8264 38.1566 31.6074 34.2153 32.9374C33.4043 33.2294 31.9689 33.7079 31.1579 33.8944C24.7755 35.2244 12.1647 38.4278 8.07737 43.5532C7.22584 44.5912 8.36932 45.2481 9.10731 46.0267C9.54524 46.4646 10.6887 47.7216 11.3213 48.0136ZM12.9027 49.2706C13.8272 49.9356 13.5272 49.9356 15.2627 50.8196C16.2926 51.3386 17.1847 51.8171 18.1416 52.2226C19.9826 52.993 20.0231 52.1496 23.705 50.041C31.1903 45.8401 39.8192 45.1021 46.526 41.5257C48.521 40.4552 51.4324 38.6143 52.6489 37.0653C53.3869 36.1084 54.3114 31.6804 54.1978 30.0585C53.4599 30.318 51.7649 32.1994 50.0294 33.3429C49.259 33.862 48.594 34.3404 47.783 34.8189C45.3095 36.2949 42.6576 37.5114 39.9651 38.4683L34.2153 40.3498C30.4199 41.4933 26.3244 42.3773 22.7886 43.9262C19.3176 45.3617 18.3201 45.6212 15.1897 47.6486C14.5652 48.0541 13.4947 48.9381 12.9027 49.2706ZM1.84093 28.031C1.84093 30.4639 2.17343 33.6349 2.95197 35.4839C3.57643 35.4109 4.09545 34.9243 4.71991 34.4134C7.63133 31.9399 17.8821 27.439 19.131 28.7366C19.7636 29.7989 17.5496 33.7809 17.3631 35.5569C18.4336 35.5164 24.297 33.5619 26.0649 33.1564C31.8148 31.9075 37.3457 30.5369 42.2926 27.4795C43.6145 26.7091 44.5715 26.0036 45.496 25.0871C47.9695 22.7272 49.5509 19.8888 49.6239 26.7415C49.6645 30.6099 49.259 29.726 49.0724 31.648C49.924 31.502 52.6164 28.8095 53.1273 28.2905C54.8953 26.482 54.4168 25.8576 53.8329 22.4677C53.1679 18.6317 51.0269 14.8364 48.8859 11.9979C37.5322 -3.11876 12.8703 -1.46436 4.16844 17.1558C2.65191 20.3997 1.84093 23.6841 1.84093 28.031Z" fill="white"/>
<path fill-rule="evenodd" clip-rule="evenodd" d="M16.8847 18.0802C21.6046 18.5587 25.108 20.1401 26.73 25.0871C27.322 26.8875 26.584 29.069 28.5709 28.8419C28.7574 28.5824 28.798 28.5824 29.017 28.404C29.3819 23.457 31.3364 20.1807 35.7238 18.6641C37.8242 17.9667 39.8192 18.4452 39.8192 17.2693C39.8517 15.6067 36.4293 17.3422 32.3339 13.8712C28.133 10.2624 29.8279 6.23991 28.6115 5.72899L27.5815 5.65601C26.6164 7.01845 27.9465 13.5063 19.6501 15.9798C18.3201 16.3853 15.1897 16.0122 16.8847 18.0802ZM22.1966 17.3422C24.0375 18.4127 25.6271 19.3291 26.9165 21.3566C27.322 21.9486 27.614 22.5731 28.0194 23.1651C28.3925 22.9786 28.4655 22.8001 28.6845 22.4271C29.8279 20.3672 31.8554 18.1857 34.0288 17.3422L33.1124 16.6367C32.6988 16.3853 32.5528 16.3123 32.1879 16.0528C29.536 14.2443 29.0899 12.5088 28.4249 11.6654C28.06 11.2193 28.279 11.5113 28.0194 11.3329C27.249 12.5493 26.6894 13.6928 25.6595 14.7228C24.443 15.9798 23.2995 16.4177 22.6345 16.8962C22.1236 17.2692 22.4886 16.9692 22.1966 17.3422Z" fill="white"/>
</svg>
