<svg width="40" height="40" viewBox="0 0 40 40" fill="none" xmlns="http://www.w3.org/2000/svg">
<mask id="mask0_1_4" style="mask-type:luminance" maskUnits="userSpaceOnUse" x="0" y="0" width="37" height="37">
<path d="M36.5 0H0.5V36.3186H36.5V0Z" fill="white"/>
</mask>
<g mask="url(#mask0_1_4)">
<path fill-rule="evenodd" clip-rule="evenodd" d="M0.627426 17.9044C0.627426 28.1628 8.78318 36 18.5956 36C36.6911 36 44.146 11.1504 25.9867 1.91151C22.2911 8.4673e-07 18.4044 0.127435 14.5177 0.700886C13.6257 0.82832 13.3708 0.892036 12.7336 1.1469C12.0965 1.40177 11.6504 1.59292 11.1407 1.78407C10.5035 2.10266 8.8469 2.86726 8.33716 3.37699C7.95486 3.69558 7.50884 4.01416 7.06282 4.33274C6.61681 4.71505 6.36194 4.9062 5.91592 5.41593C5.15132 6.30797 4.51415 6.88142 3.87698 7.77345C1.90176 10.6407 0.627426 14.0814 0.627426 17.9044ZM4.64159 27.3982C5.15132 27.1434 5.97964 26.1876 6.61681 25.7416C9.93008 23.4478 9.80265 24.5947 10.5672 22.5558C10.8221 21.7912 11.3319 20.6442 11.4593 19.9434C9.93008 19.9434 3.11238 23.1929 3.23982 24.531C3.1761 25.1044 4.38672 26.8885 4.64159 27.3982ZM14.5814 34.0885C14.5814 34.6619 15.0274 34.4708 15.6646 34.5345C19.1053 35.0443 22.6734 34.7257 25.7318 33.1327C27.1973 32.3044 28.5991 31.5398 29.8097 30.3292C30.8929 29.246 32.2947 27.908 32.8681 26.5699C32.4221 26.6336 32.2947 26.8248 31.9124 27.0796C31.5938 27.2708 31.1478 27.5257 30.8292 27.6531C27.8982 29.1823 24.4575 29.9469 21.208 30.9664C17.9584 32.1133 15.8557 33.6425 14.5814 34.0885ZM7.89114 30.8389C8.33716 30.7115 8.78318 30.2655 9.2292 29.9469C10.8221 28.8637 11.7142 28.354 13.6257 27.5257C14.7088 27.0796 16.0469 26.6973 17.0664 26.315C19.1053 25.6142 22.2274 24.8496 24.0752 24.2124C28.7265 22.5558 31.2115 22.3009 31.2115 17.3947C31.2115 16.9487 31.2115 17.0761 31.0841 16.7575C30.638 16.8212 29.4911 18.0956 28.0257 18.9239C25.2858 20.5168 25.031 20.3257 22.4823 21.2177C21.9726 21.4089 21.0805 21.7274 20.5071 21.8549C16.4292 22.6832 8.40088 24.7221 5.78849 28.0354C5.21504 28.6726 5.97964 29.1186 6.42566 29.6283C6.74424 29.8832 7.44513 30.6478 7.89114 30.8389ZM8.91061 31.6673C9.48406 32.1133 9.29291 32.1133 10.4398 32.623C11.077 32.9416 11.6504 33.2602 12.2876 33.515C13.4345 34.0248 13.4982 33.4513 15.8557 32.1133C20.6345 29.4372 26.1142 28.9912 30.3832 26.6973C31.6575 25.9965 33.5053 24.8496 34.2699 23.8301C34.7159 23.1929 35.3531 20.3894 35.2257 19.3699C34.7796 19.5611 33.6965 20.708 32.5495 21.4726C32.0398 21.7912 31.6575 22.1097 31.1478 22.4283C29.5549 23.3841 27.8982 24.1487 26.1779 24.7221L22.4823 25.9965C20.0611 26.6973 17.4487 27.2708 15.2186 28.2903C12.9885 29.1823 12.3513 29.3735 10.3761 30.6478C9.93008 30.9027 9.2292 31.4761 8.91061 31.6673ZM1.83805 18.0956C1.83805 19.6248 2.0292 21.6637 2.53893 22.8743C2.92123 22.8106 3.23982 22.492 3.68583 22.1735C5.53362 20.5805 12.0965 17.7133 12.8611 18.5416C13.2434 19.2425 11.8416 21.7274 11.7142 22.8743C12.415 22.8743 16.1106 21.6 17.2575 21.3451C20.8894 20.5805 24.4575 19.6885 27.5796 17.7133C28.408 17.2035 29.0451 16.7575 29.6186 16.1841C31.2115 14.6549 32.231 12.8708 32.231 17.2673C32.231 19.7522 31.9761 19.1788 31.8487 20.3894C32.4221 20.3257 34.0788 18.6053 34.4611 18.223C35.608 17.0761 35.2894 16.6938 34.9071 14.5274C34.4611 12.1062 33.123 9.68496 31.7849 7.83717C24.5849 -1.72035 8.84689 -0.637168 3.30353 11.2142C2.34778 13.2531 1.83805 15.3558 1.83805 18.0956Z" fill="#4E7A9B"/>
<path fill-rule="evenodd" clip-rule="evenodd" d="M11.3956 11.7876C14.3903 12.1062 16.6204 13.1257 17.6398 16.2478C18.0221 17.3947 17.5761 18.7964 18.7867 18.669C18.9142 18.4779 18.9142 18.4779 19.0416 18.4141C19.2965 15.292 20.5071 13.1894 23.3106 12.2336C24.6487 11.7876 25.923 12.1062 25.923 11.3416C25.923 10.2584 23.7566 11.4053 21.1442 9.17521C18.4681 6.88141 19.5513 4.33273 18.7867 4.01415L18.1496 3.95043C17.5124 4.84247 18.4044 8.98406 13.1159 10.5133C12.3513 10.7044 10.3124 10.4495 11.3956 11.7876ZM14.7726 11.3416C15.9195 12.0425 16.9389 12.6159 17.7673 13.8903C18.0221 14.2726 18.2133 14.6549 18.4681 15.0372C18.723 14.9097 18.723 14.7823 18.9142 14.5911C19.615 13.2531 20.9531 11.915 22.2912 11.3416L21.7177 10.8956C21.4628 10.7044 21.3354 10.7044 21.1442 10.5133C19.4239 9.36636 19.169 8.28318 18.723 7.70972C18.4681 7.45486 18.6593 7.58229 18.4681 7.51857C17.9584 8.28318 17.6398 9.04778 16.9389 9.68495C16.1743 10.5133 15.4097 10.7681 15.0274 11.0867C14.7726 11.2779 14.9637 11.0867 14.7726 11.3416Z" fill="#4E7A9B"/>
</g>
</svg>
