<svg width="800" height="116" viewBox="0 0 800 116" fill="none" xmlns="http://www.w3.org/2000/svg">
<g clip-path="url(#clip0_2154_2)">
<path d="M272.015 57.9634H236.313V92.3947H219.318V10.7432H277.15V25.0075H236.313V43.5759H272.015V57.9634Z" fill="white"/>
<path d="M297.674 92.3951H281.781V31.8943H297.674V92.3951ZM297.674 24.6391H281.781V9.75977H297.674V24.6391Z" fill="white"/>
<path d="M361.912 115.455H346.017C346.017 115.455 346.017 110.718 346.017 95.8385V84.8944C341.494 91.0428 335.746 93.9941 328.41 93.9941C312.884 93.9941 303.713 81.0823 303.713 62.7598C303.713 42.347 314.596 30.2959 329.757 30.2959C337.091 30.2959 342.715 33.1242 346.506 39.2728L346.629 31.8946H361.912V95.9616C361.912 104.2 361.912 115.455 361.912 115.455ZM333.545 80.3445C342.35 80.3445 346.873 73.827 346.873 60.6693C346.873 50.4628 341.005 43.3307 333.424 43.3307C325.477 43.3307 319.853 50.8318 319.853 61.6531C319.853 74.0731 324.254 80.3445 333.545 80.3445Z" fill="white"/>
<path d="M421.782 92.3953H406.743V83.9104C402.587 90.7968 396.351 93.994 388.037 93.994C376.054 93.994 367.619 85.0172 367.619 71.7364V31.8945H383.514V69.2771C383.514 76.9013 386.936 80.5903 393.661 80.5903C401.731 80.5903 406.011 74.8108 406.011 66.8178V31.8945H421.782V92.3953Z" fill="white"/>
<path d="M443.79 56.2425H468.364C468.12 47.2658 462.251 42.9618 456.016 42.9618C449.658 42.9618 444.4 47.8806 443.79 56.2425ZM484.747 66.326H443.301C443.79 75.4257 448.925 81.3282 456.75 81.3282C461.885 81.3282 466.408 78.7458 467.51 74.5648H483.891C480.224 86.9849 470.321 93.9941 457.482 93.9941C437.432 93.9941 427.406 82.9268 427.406 61.0383C427.406 42.347 438.042 30.2959 456.505 30.2959C474.967 30.2959 484.747 42.347 484.747 66.326Z" fill="white"/>
<path d="M536.212 61.5295L526.065 29.0656H525.943L515.55 61.5295H536.212ZM564.7 92.3947H546.239L541.104 75.5479H511.149L505.402 92.3947H487.43L516.406 10.7432H536.09L564.7 92.3947Z" fill="white"/>
<path d="M584.702 92.3951H568.807V9.75977H584.702V92.3951Z" fill="white"/>
<path d="M606.409 56.2425H630.985C630.741 47.2658 624.872 42.9618 618.637 42.9618C612.279 42.9618 607.022 47.8806 606.409 56.2425ZM647.368 66.326H605.92C606.409 75.4257 611.545 81.3282 619.369 81.3282C624.505 81.3282 629.029 78.7458 630.129 74.5648H646.512C642.845 86.9849 632.942 93.9941 620.103 93.9941C600.053 93.9941 590.027 82.9268 590.027 61.0383C590.027 42.347 600.663 30.2959 619.126 30.2959C637.586 30.2959 647.368 42.347 647.368 66.326Z" fill="white"/>
<path d="M668.758 92.3954H652.863V31.8946H667.779V39.1498C673.038 31.0337 679.151 30.2959 685.631 30.2959H687.708V46.6508C686.241 46.4049 684.775 46.2819 683.306 46.2819C673.526 46.2819 668.758 51.2007 668.758 60.9152V92.3954Z" fill="white"/>
<path d="M726.257 68.2928V52.5527H741.05V69.7685C741.05 82.5573 733.714 93.9936 716.718 93.9936C699.113 93.9936 692.145 82.6803 692.145 69.6455V15.5391H707.794V31.894H741.05V43.2071H707.794V68.047C707.794 75.671 710.483 80.0979 716.964 80.0979C723.322 80.0979 726.257 75.7941 726.257 68.2928Z" fill="white"/>
<path d="M783.98 69.4002L784.101 62.7598C782.513 64.3585 779.7 65.2192 773.832 66.326C764.785 68.0475 761.85 70.63 761.85 75.7946C761.85 80.3445 764.539 82.5578 769.553 82.5578C777.745 82.5578 783.858 76.5325 783.98 69.4002ZM799.996 92.3954H785.202C784.714 90.9197 784.347 88.8293 784.225 86.9849C780.434 91.1658 774.076 93.9941 766.008 93.9941C752.313 93.9941 745.955 87.2307 745.955 77.3932C745.955 59.9315 757.57 57.9641 773.587 55.7505C781.534 54.6438 783.734 53.0453 783.734 48.8643C783.734 44.9292 779.822 42.5929 773.587 42.5929C766.373 42.5929 763.44 46.159 762.706 51.5696H747.912C748.156 39.0267 755.003 30.2959 774.321 30.2959C793.394 30.2959 799.996 38.9039 799.996 54.152V92.3954Z" fill="white"/>
<path d="M82.6935 93.858L55.3769 57.4452C48.149 61.1892 32.0243 72.8263 25.3477 89.4244C92.114 134.429 161.532 100.968 184.853 56.1193C180.564 50.0615 170.58 37.1503 164.964 33.9678C153.295 62.9207 129.036 82.2563 82.6935 93.858Z" fill="white"/>
<path d="M121.209 36.5417L120.663 62.5151C145.809 50.285 156.36 33.3958 158.492 26.48C98.9014 -24.7646 26.3633 5.49821 0 56.7431C5.11666 68.7861 12.5317 77.6206 15.5996 80.5325C37.9381 38.3513 72.1221 24.218 86.4218 22.4241L121.209 36.5417Z" fill="white"/>
<path fill-rule="evenodd" clip-rule="evenodd" d="M68.082 55.7666L83.8319 33.4424L98.8893 38.9714C96.6138 40.7863 95.1557 43.5827 95.1557 46.7198C95.1557 52.1905 99.5906 56.6254 105.061 56.6254C106.709 56.6254 108.262 56.2235 109.628 55.5122L109.385 67.3711L84.6695 76.948L68.082 55.7666Z" fill="white"/>
<path d="M82.6935 93.858L55.3769 57.4452C48.149 61.1892 32.0243 72.8263 25.3477 89.4244C92.114 134.429 161.532 100.968 184.853 56.1193C180.564 50.0615 170.58 37.1503 164.964 33.9678C153.295 62.9207 129.036 82.2563 82.6935 93.858Z" fill="white"/>
<path d="M121.209 36.5417L120.663 62.5151C145.809 50.285 156.36 33.3958 158.492 26.48C98.9014 -24.7646 26.3633 5.49821 0 56.7431C5.11666 68.7861 12.5317 77.6206 15.5996 80.5325C37.9381 38.3513 72.1221 24.218 86.4218 22.4241L121.209 36.5417Z" fill="white"/>
<path fill-rule="evenodd" clip-rule="evenodd" d="M68.082 55.7666L83.8319 33.4424L98.8893 38.9714C96.6138 40.7863 95.1557 43.5827 95.1557 46.7198C95.1557 52.1905 99.5906 56.6254 105.061 56.6254C106.709 56.6254 108.262 56.2235 109.628 55.5122L109.385 67.3711L84.6695 76.948L68.082 55.7666Z" fill="white"/>
</g>
<defs>
<clipPath id="clip0_2154_2">
<rect width="800" height="115.472" fill="white"/>
</clipPath>
</defs>
</svg>
