<svg width="36" height="36" viewBox="0 0 36 36" fill="none" xmlns="http://www.w3.org/2000/svg">
<path fill-rule="evenodd" clip-rule="evenodd" d="M0.127441 17.9044C0.127441 28.1628 8.2832 36 18.0956 36C36.1911 36 43.646 11.1504 25.4867 1.91151C21.7911 3.57628e-07 17.9044 0.127435 14.0177 0.700886C13.1257 0.82832 12.8708 0.892036 12.2336 1.1469C11.5965 1.40177 11.1504 1.59292 10.6407 1.78407C10.0035 2.10266 8.34692 2.86726 7.83718 3.37699C7.45488 3.69558 7.00886 4.01416 6.56284 4.33274C6.11683 4.71505 5.86196 4.9062 5.41594 5.41593C4.65134 6.30797 4.01417 6.88142 3.377 7.77345C1.40178 10.6407 0.127441 14.0814 0.127441 17.9044ZM4.14161 27.3982C4.65134 27.1434 5.47966 26.1876 6.11683 25.7416C9.4301 23.4478 9.30266 24.5947 10.0672 22.5558C10.3221 21.7912 10.8319 20.6442 10.9593 19.9434C9.4301 19.9434 2.6124 23.1929 2.73984 24.531C2.67612 25.1044 3.88674 26.8885 4.14161 27.3982ZM14.0814 34.0885C14.0814 34.6619 14.5274 34.4708 15.1646 34.5345C18.6053 35.0443 22.1734 34.7257 25.2318 33.1327C26.6973 32.3044 28.0991 31.5398 29.3097 30.3292C30.3929 29.246 31.7947 27.908 32.3681 26.5699C31.9221 26.6336 31.7947 26.8248 31.4124 27.0796C31.0938 27.2708 30.6478 27.5257 30.3292 27.6531C27.3982 29.1823 23.9575 29.9469 20.708 30.9664C17.4584 32.1133 15.3557 33.6425 14.0814 34.0885ZM7.39116 30.8389C7.83718 30.7115 8.2832 30.2655 8.72922 29.9469C10.3221 28.8637 11.2142 28.354 13.1257 27.5257C14.2088 27.0796 15.5469 26.6973 16.5664 26.315C18.6053 25.6142 21.7274 24.8496 23.5752 24.2124C28.2265 22.5558 30.7115 22.3009 30.7115 17.3947C30.7115 16.9487 30.7115 17.0761 30.5841 16.7575C30.138 16.8212 28.9911 18.0956 27.5257 18.9239C24.7858 20.5168 24.531 20.3257 21.9823 21.2177C21.4726 21.4089 20.5805 21.7274 20.0071 21.8549C15.9292 22.6832 7.9009 24.7221 5.28851 28.0354C4.71506 28.6726 5.47966 29.1186 5.92568 29.6283C6.24426 29.8832 6.94515 30.6478 7.39116 30.8389ZM8.41063 31.6673C8.98408 32.1133 8.79293 32.1133 9.93982 32.623C10.577 32.9416 11.1504 33.2602 11.7876 33.515C12.9345 34.0248 12.9982 33.4513 15.3557 32.1133C20.1345 29.4372 25.6142 28.9912 29.8832 26.6973C31.1575 25.9965 33.0053 24.8496 33.7699 23.8301C34.2159 23.1929 34.8531 20.3894 34.7257 19.3699C34.2796 19.5611 33.1965 20.708 32.0495 21.4726C31.5398 21.7912 31.1575 22.1097 30.6478 22.4283C29.0549 23.3841 27.3982 24.1487 25.6779 24.7221L21.9823 25.9965C19.5611 26.6973 16.9487 27.2708 14.7186 28.2903C12.4885 29.1823 11.8513 29.3735 9.87611 30.6478C9.43009 30.9027 8.72922 31.4761 8.41063 31.6673ZM1.33807 18.0956C1.33807 19.6248 1.52922 21.6637 2.03895 22.8743C2.42125 22.8106 2.73984 22.492 3.18585 22.1735C5.03364 20.5805 11.5965 17.7133 12.3611 18.5416C12.7434 19.2425 11.3416 21.7274 11.2142 22.8743C11.915 22.8743 15.6106 21.6 16.7575 21.3451C20.3894 20.5805 23.9575 19.6885 27.0796 17.7133C27.908 17.2035 28.5451 16.7575 29.1186 16.1841C30.7115 14.6549 31.731 12.8708 31.731 17.2673C31.731 19.7522 31.4761 19.1788 31.3487 20.3894C31.9221 20.3257 33.5788 18.6053 33.9611 18.223C35.108 17.0761 34.7894 16.6938 34.4071 14.5274C33.9611 12.1062 32.623 9.68496 31.2849 7.83717C24.0849 -1.72035 8.34691 -0.637168 2.80355 11.2142C1.8478 13.2531 1.33807 15.3558 1.33807 18.0956Z" fill="#4E7A9B"/>
<path fill-rule="evenodd" clip-rule="evenodd" d="M10.8956 11.7876C13.8903 12.1062 16.1204 13.1257 17.1398 16.2478C17.5221 17.3947 17.0761 18.7964 18.2867 18.669C18.4142 18.4779 18.4142 18.4779 18.5416 18.4141C18.7965 15.292 20.0071 13.1894 22.8106 12.2336C24.1487 11.7876 25.423 12.1062 25.423 11.3416C25.423 10.2584 23.2566 11.4053 20.6442 9.1752C17.9681 6.8814 19.0513 4.33272 18.2867 4.01414L17.6496 3.95042C17.0124 4.84246 17.9044 8.98405 12.6159 10.5133C11.8513 10.7044 9.81236 10.4495 10.8956 11.7876ZM14.2726 11.3416C15.4195 12.0425 16.4389 12.6159 17.2673 13.8903C17.5221 14.2726 17.7133 14.6549 17.9681 15.0372C18.223 14.9097 18.223 14.7823 18.4142 14.5911C19.115 13.2531 20.4531 11.915 21.7912 11.3416L21.2177 10.8956C20.9628 10.7044 20.8354 10.7044 20.6442 10.5133C18.9239 9.36635 18.669 8.28317 18.223 7.70971C17.9681 7.45485 18.1593 7.58228 17.9681 7.51856C17.4584 8.28317 17.1398 9.04777 16.4389 9.68494C15.6743 10.5133 14.9097 10.7681 14.5274 11.0867C14.2726 11.2779 14.4637 11.0867 14.2726 11.3416Z" fill="#4E7A9B"/>
</svg>
