<svg width="38" height="38" viewBox="0 0 38 38" fill="none" xmlns="http://www.w3.org/2000/svg">
<rect width="38" height="38" rx="19" fill="#BF1515"/>
<path d="M18.1818 23.9091H19.8182V26.3636H18.1818V23.9091ZM22.2727 26.3636V28H15.7273V26.3636H22.2727ZM25.5455 23.9091H12.4545C11.8038 23.9084 11.1798 23.6496 10.7196 23.1895C10.2595 22.7293 10.0006 22.1053 10 21.4545V12.4545C10.0006 11.8038 10.2595 11.1798 10.7196 10.7196C11.1798 10.2595 11.8038 10.0006 12.4545 10H25.5455C26.1962 10.0006 26.8202 10.2595 27.2804 10.7196C27.7405 11.1798 27.9993 11.8038 28 12.4545V21.4545C27.9993 22.1053 27.7405 22.7293 27.2804 23.1895C26.8202 23.6496 26.1962 23.9084 25.5455 23.9091ZM12.4545 11.6364C12.2376 11.6364 12.0294 11.7226 11.876 11.876C11.7226 12.0294 11.6364 12.2376 11.6364 12.4545V21.4545C11.6364 21.6715 11.7226 21.8796 11.876 22.0331C12.0294 22.1865 12.2376 22.2727 12.4545 22.2727H25.5455C25.7625 22.2727 25.9706 22.1865 26.124 22.0331C26.2774 21.8796 26.3636 21.6715 26.3636 21.4545V12.4545C26.3636 12.2376 26.2774 12.0294 26.124 11.876C25.9706 11.7226 25.7625 11.6364 25.5455 11.6364H12.4545Z" fill="white"/>
<path d="M25.3337 23.75L22.3032 13.6483L20.5837 20.5833L18.5111 15.8333H17.987L15.8337 22.1666L14.0017 15.7272L13.1562 17.4166H7.91699V15.8333H12.1777L14.2503 11.0833L15.9413 16.9622L16.847 14.25H19.4896L20.2607 15.7906L22.167 6.33331L25.3337 19L26.347 15.8333H30.0837V17.4166H27.487L25.3337 23.75Z" fill="white"/>
</svg>
