<svg width="2252" height="1350" viewBox="0 0 2252 1350" fill="none" xmlns="http://www.w3.org/2000/svg">
<path d="M1007.42 1143.83L674.632 700.226C586.578 745.836 390.136 887.609 308.797 1089.82C1122.19 1638.09 1967.88 1230.45 2252 684.072C2199.74 610.271 2078.11 452.978 2009.69 414.209C1867.54 766.931 1572 1002.49 1007.42 1143.83Z" fill="#EA0606"/>
<path d="M1476.64 445.556L1469.99 761.98C1776.34 612.985 1904.88 407.23 1930.85 322.977C1204.88 -301.318 321.175 67.3641 0 691.663C62.3345 838.378 152.669 946.006 190.044 981.481C462.188 467.601 878.638 295.421 1052.85 273.566L1476.64 445.556Z" fill="#EA0606"/>
<path fill-rule="evenodd" clip-rule="evenodd" d="M829.426 679.77L1021.3 407.801L1204.75 475.161C1177.02 497.272 1159.26 531.34 1159.26 569.557C1159.26 636.206 1213.29 690.235 1279.94 690.235C1300 690.235 1318.92 685.338 1335.57 676.675L1332.6 821.142L1031.51 937.814L829.426 679.77Z" fill="#EA0606"/>
<path d="M1007.42 1143.83L674.632 700.226C586.578 745.836 390.136 887.609 308.797 1089.82C1122.19 1638.09 1967.88 1230.45 2252 684.072C2199.74 610.271 2078.11 452.978 2009.69 414.209C1867.54 766.931 1572 1002.49 1007.42 1143.83Z" fill="#EA0606"/>
<path d="M1476.64 445.556L1469.99 761.98C1776.34 612.985 1904.88 407.23 1930.85 322.977C1204.88 -301.318 321.175 67.3641 0 691.663C62.3345 838.378 152.669 946.006 190.044 981.481C462.188 467.601 878.638 295.421 1052.85 273.566L1476.64 445.556Z" fill="#EA0606"/>
<path fill-rule="evenodd" clip-rule="evenodd" d="M829.426 679.77L1021.3 407.801L1204.75 475.161C1177.02 497.272 1159.26 531.34 1159.26 569.557C1159.26 636.206 1213.29 690.235 1279.94 690.235C1300 690.235 1318.92 685.338 1335.57 676.675L1332.6 821.142L1031.51 937.814L829.426 679.77Z" fill="#EA0606"/>
</svg>
