<svg width="39" height="39" viewBox="0 0 39 39" fill="none" xmlns="http://www.w3.org/2000/svg">
<rect width="39" height="38.0496" rx="19.0248" fill="#BF1515"/>
<path d="M10 12.6125C10 11.9196 10.2752 11.2551 10.7652 10.7652C11.2551 10.2752 11.9196 10 12.6125 10H24.4875C25.1804 10 25.8449 10.2752 26.3348 10.7652C26.8248 11.2551 27.1 11.9196 27.1 12.6125V17.3511C26.4644 17.1174 25.8546 16.7146 25.2589 16.118C25.2399 16.099 25.2203 16.0803 25.2 16.0619V12.6125C25.2 12.4235 25.1249 12.2423 24.9913 12.1087C24.8577 11.9751 24.6765 11.9 24.4875 11.9H12.6125C12.4235 11.9 12.2423 11.9751 12.1087 12.1087C11.9751 12.2423 11.9 12.4235 11.9 12.6125V24.4875C11.9 24.8808 12.2192 25.2 12.6125 25.2H19.2435C19.5815 25.9134 20.0493 26.5577 20.6229 27.1H12.6125C11.9196 27.1 11.2551 26.8248 10.7652 26.3348C10.2752 25.8449 10 25.1804 10 24.4875V12.6125ZM24.5872 16.7897C25.7652 17.9696 27.0705 18.55 28.525 18.55C28.6362 18.55 28.7438 18.5889 28.8292 18.6601C28.9147 18.7313 28.9724 18.8301 28.9924 18.9395L29 19.025V21.8759C29 24.934 27.4411 27.0117 24.4001 28.0253C24.3027 28.0578 24.1973 28.0578 24.0999 28.0253C21.1511 27.043 19.596 25.0584 19.5048 22.1515L19.5 21.8759V19.025C19.5 18.899 19.55 18.7782 19.6391 18.6891C19.7282 18.6 19.849 18.55 19.975 18.55C21.4285 18.55 22.7338 17.9695 23.9146 16.7887C23.9588 16.7445 24.0112 16.7094 24.0689 16.6854C24.1266 16.6615 24.1885 16.6492 24.2509 16.6492C24.3134 16.6492 24.3753 16.6615 24.433 16.6854C24.4907 16.7094 24.5431 16.7445 24.5872 16.7887M22.3167 20.2961L22.2512 20.3503L22.197 20.4167C22.1423 20.4961 22.113 20.5902 22.113 20.6865C22.113 20.7829 22.1423 20.877 22.197 20.9564L22.2512 21.0229L23.5783 22.35L22.2512 23.6762L22.197 23.7427C22.1423 23.822 22.113 23.9161 22.113 24.0125C22.113 24.1089 22.1423 24.203 22.197 24.2823L22.2512 24.3488L22.3177 24.4029C22.397 24.4577 22.4911 24.487 22.5875 24.487C22.6839 24.487 22.778 24.4577 22.8573 24.4029L22.9238 24.3488L24.25 23.0217L25.5762 24.3488L25.6427 24.4029C25.722 24.4577 25.8161 24.487 25.9125 24.487C26.0089 24.487 26.103 24.4577 26.1823 24.4029L26.2488 24.3488L26.3029 24.2823C26.3577 24.203 26.387 24.1089 26.387 24.0125C26.387 23.9161 26.3577 23.822 26.3029 23.7427L26.2488 23.6762L24.9217 22.35L26.2488 21.0238L26.3029 20.9573C26.3577 20.878 26.387 20.7839 26.387 20.6875C26.387 20.5911 26.3577 20.497 26.3029 20.4177L26.2488 20.3512L26.1823 20.297C26.103 20.2423 26.0089 20.213 25.9125 20.213C25.8161 20.213 25.722 20.2423 25.6427 20.297L25.5762 20.3512L24.25 21.6784L22.9238 20.3512L22.8573 20.297C22.7897 20.2502 22.7111 20.2217 22.6291 20.2144C22.5472 20.2071 22.4648 20.2211 22.3899 20.2552L22.3167 20.2961Z" fill="white"/>
</svg>
