<svg width="63" height="63" viewBox="0 0 63 63" fill="none" xmlns="http://www.w3.org/2000/svg">
<rect x="0.5" y="0.694702" width="62" height="62" rx="31" fill="#BF1515"/>
<rect x="1.5" y="1.6947" width="60" height="60" rx="30" fill="#BF1515"/>
<path d="M31.4996 11.0697C30.4848 11.0697 29.5566 11.9322 29.6246 12.9447L30.5621 38.2572C30.5621 38.5058 30.6609 38.7443 30.8367 38.9201C31.0125 39.0959 31.251 39.1947 31.4996 39.1947C31.7482 39.1947 31.9867 39.0959 32.1625 38.9201C32.3383 38.7443 32.4371 38.5058 32.4371 38.2572L33.3746 12.9447C33.4426 11.9322 32.5145 11.0697 31.4996 11.0697Z" stroke="#F8F8F8" stroke-width="4" stroke-linecap="round" stroke-linejoin="round"/>
<path d="M31.5 52.3197C32.5355 52.3197 33.375 51.4802 33.375 50.4447C33.375 49.4092 32.5355 48.5697 31.5 48.5697C30.4645 48.5697 29.625 49.4092 29.625 50.4447C29.625 51.4802 30.4645 52.3197 31.5 52.3197Z" stroke="#F8F8F8" stroke-width="4" stroke-linecap="round" stroke-linejoin="round"/>
</svg>
