<svg width="37" height="37" viewBox="0 0 37 37" fill="none" xmlns="http://www.w3.org/2000/svg">
<path d="M20.7138 13.6002C20.5151 13.3869 20.4069 13.1049 20.412 12.8134C20.4172 12.522 20.5352 12.2439 20.7414 12.0378C20.9475 11.8316 21.2256 11.7136 21.517 11.7084C21.8085 11.7033 22.0905 11.8115 22.3038 12.0102L28.3038 18.0102C28.5145 18.2211 28.6328 18.5071 28.6328 18.8052C28.6328 19.1033 28.5145 19.3893 28.3038 19.6002L22.3038 25.6002C22.2008 25.7107 22.0766 25.7994 21.9386 25.8609C21.8006 25.9223 21.6516 25.9554 21.5006 25.9581C21.3495 25.9607 21.1995 25.933 21.0594 25.8764C20.9193 25.8198 20.7921 25.7356 20.6852 25.6287C20.5784 25.5219 20.4942 25.3947 20.4376 25.2546C20.381 25.1145 20.3532 24.9645 20.3559 24.8134C20.3586 24.6624 20.3916 24.5134 20.4531 24.3754C20.5146 24.2374 20.6033 24.1132 20.7138 24.0102L24.7938 19.9302H10.2588C9.96042 19.9302 9.67427 19.8117 9.46329 19.6007C9.25232 19.3897 9.13379 19.1036 9.13379 18.8052C9.13379 18.5068 9.25232 18.2207 9.46329 18.0097C9.67427 17.7987 9.96042 17.6802 10.2588 17.6802H24.7938L20.7138 13.6002Z" fill="#fff"/>
</svg>
