<svg width="38" height="38" viewBox="0 0 38 38" fill="none" xmlns="http://www.w3.org/2000/svg">
<rect width="38" height="38" rx="19" fill="#BF1515"/>
<path d="M26.6 28L20.3 21.7C19.8 22.1 19.225 22.4167 18.575 22.65C17.925 22.8833 17.2333 23 16.5 23C14.6833 23 13.146 22.3707 11.888 21.112C10.63 19.8533 10.0007 18.316 10 16.5C9.99933 14.684 10.6287 13.1467 11.888 11.888C13.1473 10.6293 14.6847 10 16.5 10C18.3153 10 19.853 10.6293 21.113 11.888C22.373 13.1467 23.002 14.684 23 16.5C23 17.2333 22.8833 17.925 22.65 18.575C22.4167 19.225 22.1 19.8 21.7 20.3L28 26.6L26.6 28ZM16.5 21C17.75 21 18.8127 20.5627 19.688 19.688C20.5633 18.8133 21.0007 17.7507 21 16.5C20.9993 15.2493 20.562 14.187 19.688 13.313C18.814 12.439 17.7513 12.0013 16.5 12C15.2487 11.9987 14.1863 12.4363 13.313 13.313C12.4397 14.1897 12.002 15.252 12 16.5C11.998 17.748 12.4357 18.8107 13.313 19.688C14.1903 20.5653 15.2527 21.0027 16.5 21Z" fill="white"/>
</svg>
