<svg width="38" height="38" viewBox="0 0 38 38" fill="none" xmlns="http://www.w3.org/2000/svg">
<g clip-path="url(#clip0_95_5012)">
<path d="M37.2578 15.4931H32.5078C32.0979 15.4931 31.7656 15.8254 31.7656 16.2353V19.9833C31.7656 20.3932 32.0979 20.7255 32.5078 20.7255C32.9177 20.7255 33.25 20.3932 33.25 19.9833V16.9775H36.5156V36.5156H34.8828H33.25V25.5497C33.25 25.1399 32.9177 24.8075 32.5078 24.8075C32.0979 24.8075 31.7656 25.1399 31.7656 25.5497V36.5156H30.2812V21.1523C30.2812 20.7425 29.949 20.4102 29.5391 20.4102H24.7891C24.3792 20.4102 24.0469 20.7425 24.0469 21.1523V36.5156H22.5625V26.3477C22.5625 25.9378 22.2302 25.6055 21.8203 25.6055H17.0703C16.6604 25.6055 16.3281 25.9378 16.3281 26.3477V36.5156H14.8438V30.606C14.8438 30.1961 14.5115 29.8638 14.1016 29.8638H9.35156C8.94165 29.8638 8.60938 30.1961 8.60938 30.606V36.5156H2.22656C1.81732 36.5156 1.48438 36.1827 1.48438 35.7734V2.22656C1.48438 1.81732 1.81732 1.48438 2.22656 1.48438H21.3731V6.38304C21.3731 7.61076 22.372 8.6096 23.5997 8.6096H28.4981V17.7383C28.4981 18.1481 28.8304 18.4805 29.2403 18.4805C29.6502 18.4805 29.9825 18.1481 29.9825 17.7383V7.86741C29.9825 7.67058 29.9043 7.48184 29.7651 7.34261L22.6401 0.217387C22.5009 0.0782266 22.3122 0 22.1153 0H2.22656C0.998836 0 0 0.998836 0 2.22656V35.7734C0 37.0012 0.998836 38 2.22656 38H37.2578C37.6677 38 38 37.6676 38 37.2578V16.2353C38 15.8254 37.6677 15.4931 37.2578 15.4931ZM22.8575 2.53405L27.4486 7.12522H23.5997C23.1904 7.12522 22.8575 6.79228 22.8575 6.38304V2.53405ZM13.3594 36.5156H10.0938V31.3481H13.3594V36.5156ZM21.0781 36.5156H17.8125V27.0898H21.0781V36.5156ZM28.7969 36.5156H25.5312V21.8945H28.7969V36.5156Z" fill="white"/>
<path d="M33.0325 22.1038C32.8945 21.9651 32.703 21.8864 32.5078 21.8864C32.3126 21.8864 32.1211 21.9651 31.9831 22.1038C31.845 22.2419 31.7656 22.4333 31.7656 22.6285C31.7656 22.8237 31.845 23.0152 31.9831 23.1533C32.1211 23.2912 32.3126 23.3707 32.5078 23.3707C32.703 23.3707 32.8945 23.2913 33.0325 23.1533C33.1706 23.0152 33.25 22.8237 33.25 22.6285C33.25 22.4333 33.1706 22.2419 33.0325 22.1038Z" fill="white"/>
<path d="M10.8048 4.06189C10.3949 4.06189 10.0626 4.39424 10.0626 4.80408V6.1392C6.64623 6.51007 3.97852 9.41202 3.97852 12.9254C3.97852 16.6894 7.04078 19.7517 10.8048 19.7517C14.3182 19.7517 17.2201 17.084 17.591 13.6676H18.926C19.3359 13.6676 19.6682 13.3352 19.6682 12.9254C19.6682 8.03801 15.6921 4.06189 10.8048 4.06189ZM10.8048 18.2672C7.85926 18.2672 5.46289 15.8708 5.46289 12.9253C5.46289 10.2317 7.46717 7.99726 10.0626 7.63485V12.9253C10.0626 13.3352 10.3949 13.6675 10.8048 13.6675H16.0952C15.7328 16.2629 13.4984 18.2672 10.8048 18.2672ZM11.547 12.1832V12.1831V5.5833C15.0243 5.93228 17.7978 8.7059 18.1468 12.1832H11.547Z" fill="white"/>
<path d="M18.9258 21.8389H4.75C4.34009 21.8389 4.00781 22.1712 4.00781 22.5811C4.00781 22.9909 4.34009 23.3232 4.75 23.3232H18.9258C19.3357 23.3232 19.668 22.9909 19.668 22.5811C19.668 22.1712 19.3357 21.8389 18.9258 21.8389Z" fill="white"/>
<path d="M9.5 25.4199H4.75C4.34009 25.4199 4.00781 25.7523 4.00781 26.1621C4.00781 26.5719 4.34009 26.9043 4.75 26.9043H9.5C9.90991 26.9043 10.2422 26.5719 10.2422 26.1621C10.2422 25.7523 9.90991 25.4199 9.5 25.4199Z" fill="white"/>
<path d="M13.7415 25.6374C13.6035 25.4993 13.412 25.4199 13.2168 25.4199C13.0209 25.4199 12.8301 25.4993 12.6921 25.6374C12.5533 25.7754 12.4746 25.9669 12.4746 26.1621C12.4746 26.3573 12.5533 26.5488 12.6921 26.6868C12.8301 26.8248 13.0209 26.9043 13.2168 26.9043C13.412 26.9043 13.6035 26.8249 13.7415 26.6868C13.8796 26.5488 13.959 26.3573 13.959 26.1621C13.959 25.9669 13.8796 25.7754 13.7415 25.6374Z" fill="white"/>
</g>
<defs>
<clipPath id="clip0_95_5012">
<rect width="38" height="38" fill="white"/>
</clipPath>
</defs>
</svg>
