<svg width="38" height="38" viewBox="0 0 38 38" fill="none" xmlns="http://www.w3.org/2000/svg">
<g clip-path="url(#clip0_95_4999)">
<path d="M29.419 13.4838V12.258C30.4328 12.258 31.2577 11.4331 31.2577 10.4193C31.2577 9.40558 30.4328 8.58062 29.419 8.58062H28.1932C27.8549 8.58062 27.5803 8.30604 27.5803 7.96771C27.5803 7.62939 27.8549 7.35481 28.1932 7.35481H30.0319V7.96771H31.2577V6.129H29.419V4.9032H28.1932V6.129C27.1795 6.129 26.3545 6.95397 26.3545 7.96771C26.3545 8.98146 27.1795 9.80642 28.1932 9.80642H29.419C29.7573 9.80642 30.0319 10.081 30.0319 10.4193C30.0319 10.7576 29.7573 11.0322 29.419 11.0322H27.5803V10.4193H26.3545V12.258H28.1932V13.4838H29.419Z" fill="white"/>
<path d="M35.5483 9.1936C35.5483 5.47634 32.5236 2.45166 28.8064 2.45166C25.0891 2.45166 22.0645 5.47634 22.0645 9.1936C22.0645 12.9109 25.0891 15.9355 28.8064 15.9355C32.5236 15.9355 35.5483 12.9109 35.5483 9.1936ZM23.2903 9.1936C23.2903 6.15176 25.7645 3.67747 28.8064 3.67747C31.8482 3.67747 34.3225 6.15176 34.3225 9.1936C34.3225 12.2354 31.8482 14.7097 28.8064 14.7097C25.7645 14.7097 23.2903 12.2354 23.2903 9.1936Z" fill="white"/>
<path d="M38 9.19355C38 4.12423 33.8758 0 28.8065 0C23.7371 0 19.6129 4.12423 19.6129 9.19355C19.6129 13.0965 22.0615 16.4307 25.5005 17.7619L24.2624 19H19.3346L15.0443 23.9032H7.6999L0.163032 32.0677L1.06339 32.8994L8.23619 25.129H15.6015L19.8918 20.2258H24.7705L26.8292 18.1671C27.3906 18.2909 27.9711 18.3595 28.5656 18.3748L25.4882 21.4516H19.9194L16.2419 26.3548H8.91529L0 36.5437V38H35.5484V15.4231C37.0647 13.783 38 11.598 38 9.19355ZM20.8387 9.19355C20.8387 4.80026 24.4132 1.22581 28.8065 1.22581C33.1997 1.22581 36.7742 4.80026 36.7742 9.19355C36.7742 13.5868 33.1997 17.1613 28.8065 17.1613C24.4132 17.1613 20.8387 13.5868 20.8387 9.19355ZM30.6452 18.202V36.7742H28.1935V20.4795L30.4398 18.2333C30.5079 18.221 30.5777 18.2155 30.6452 18.202ZM25.9957 22.6774L26.9677 21.7054V36.7742H24.5161V22.6774H25.9957ZM8.58065 36.7742H6.12903V31.4009L8.58065 28.5993V36.7742ZM9.80645 27.5806H12.2581V36.7742H9.80645V27.5806ZM13.4839 27.5806H15.9355V36.7742H13.4839V27.5806ZM17.1613 27.1718L19.6129 23.9032V36.7742H17.1613V27.1718ZM20.8387 22.6774H23.2903V36.7742H20.8387V22.6774ZM4.90323 32.802V36.7742H1.42745L4.90323 32.802ZM31.871 36.7742V17.8508C32.7591 17.5352 33.5834 17.0884 34.3226 16.5312V36.7742H31.871Z" fill="white"/>
<path d="M3.67698 22.6774H4.90278V20.2258H6.12859V12.8709H4.90278V10.4193H3.67698V12.8709H2.45117V20.2258H3.67698V22.6774ZM3.67698 14.0967H4.90278V19H3.67698V14.0967Z" fill="white"/>
<path d="M8.5803 19.6129H9.80611V17.1613H11.0319V11.0323H9.80611V8.58069H8.5803V11.0323H7.35449V17.1613H8.5803V19.6129ZM8.5803 12.2581H9.80611V15.9355H8.5803V12.2581Z" fill="white"/>
<path d="M13.4836 15.3226H14.7094V12.871H15.9352V7.96773H14.7094V5.51611H13.4836V7.96773H12.2578V12.871H13.4836V15.3226ZM13.4836 9.19353H14.7094V11.6451H13.4836V9.19353Z" fill="white"/>
</g>
<defs>
<clipPath id="clip0_95_4999">
<rect width="38" height="38" fill="white"/>
</clipPath>
</defs>
</svg>
