<svg width="65" height="65" viewBox="0 0 65 65" fill="none" xmlns="http://www.w3.org/2000/svg">
<path fill-rule="evenodd" clip-rule="evenodd" d="M0.127441 31.7373C0.127441 50.0692 14.7018 64.0743 32.2367 64.0743C64.5735 64.0743 77.8954 19.6679 45.4446 3.15793C38.8406 -0.257948 31.895 -0.0302219 24.9495 0.994539C23.3554 1.22226 22.8999 1.33613 21.7613 1.79157C20.6228 2.24702 19.8256 2.58861 18.9147 2.9302C17.7761 3.49952 14.8157 4.86586 13.9048 5.77675C13.2216 6.34608 12.4246 6.91538 11.6275 7.48469C10.8305 8.16788 10.3751 8.50946 9.57801 9.42035C8.21167 11.0144 7.07304 12.0392 5.93442 13.6333C2.40468 18.7571 0.127441 24.9056 0.127441 31.7373ZM7.30078 48.7028C8.21167 48.2475 9.69188 46.5395 10.8305 45.7425C16.7513 41.6434 16.5236 43.6929 17.8899 40.0494C18.3454 38.6831 19.2564 36.6334 19.4841 35.381C16.7513 35.381 4.56807 41.1879 4.79581 43.5791C4.68194 44.6038 6.84532 47.792 7.30078 48.7028ZM25.0633 60.6584C25.0633 61.6831 25.8603 61.3416 26.999 61.4554C33.1475 62.3664 39.5237 61.7971 44.9891 58.9504C47.608 57.4702 50.113 56.1039 52.2764 53.9405C54.212 52.0048 56.7171 49.6138 57.7417 47.2226C56.9447 47.3365 56.7171 47.6781 56.0339 48.1335C55.4646 48.4751 54.6675 48.9307 54.0982 49.1583C48.8605 51.891 42.7119 53.2574 36.9051 55.0792C31.098 57.1287 27.3405 59.8614 25.0633 60.6584ZM13.1077 54.8514C13.9048 54.6237 14.7018 53.8267 15.4989 53.2574C18.3454 51.3217 19.9396 50.4108 23.3554 48.9307C25.2909 48.1335 27.6821 47.4503 29.504 46.7671C33.1475 45.5148 38.7267 44.1484 42.0288 43.0098C50.3407 40.0494 54.7814 39.5939 54.7814 30.8265C54.7814 30.0295 54.7814 30.2572 54.5537 29.6878C53.7565 29.8016 51.707 32.079 49.0883 33.5592C44.1921 36.4057 43.7368 36.0642 39.1822 37.6582C38.2714 37.9999 36.6772 38.5691 35.6525 38.7969C28.3653 40.2771 14.0187 43.9206 9.3503 49.8415C8.32554 50.9802 9.69188 51.7772 10.4889 52.688C11.0582 53.1435 12.3107 54.5099 13.1077 54.8514ZM14.9295 56.3317C15.9543 57.1287 15.6127 57.1287 17.6622 58.0396C18.8009 58.6089 19.8256 59.1782 20.9642 59.6336C23.0138 60.5446 23.1276 59.5197 27.3405 57.1287C35.8802 52.3465 45.6725 51.5495 53.3012 47.4503C55.5784 46.198 58.8804 44.1484 60.2468 42.3266C61.0438 41.1879 62.1824 36.178 61.9548 34.3562C61.1576 34.6979 59.2221 36.7474 57.1724 38.1137C56.2616 38.6831 55.5784 39.2522 54.6675 39.8216C51.821 41.5296 48.8605 42.8959 45.7863 43.9206L39.1822 46.198C34.8555 47.4503 30.1872 48.4751 26.202 50.297C22.2168 51.891 21.0781 52.2327 17.5484 54.5099C16.7513 54.9654 15.4989 55.99 14.9295 56.3317ZM2.29083 32.079C2.29083 34.8117 2.63242 38.4552 3.54331 40.6186C4.22648 40.5047 4.79581 39.9354 5.59283 39.3662C8.89484 36.5195 20.6228 31.3958 21.9891 32.876C22.6723 34.1285 20.1672 38.5691 19.9396 40.6186C21.1919 40.6186 27.796 38.3414 29.8455 37.8859C36.3357 36.5195 42.7119 34.9255 48.2912 31.3958C49.7715 30.4848 50.91 29.6878 51.9349 28.6631C54.7814 25.9305 56.6032 22.7423 56.6032 30.5988C56.6032 35.0394 56.1477 34.0147 55.9201 36.178C56.9447 36.0642 59.9053 32.9898 60.5884 32.3067C62.638 30.2572 62.0686 29.574 61.3854 25.7026C60.5884 21.3759 58.1972 17.0491 55.8061 13.7471C42.9396 -3.33223 14.8157 -1.39657 4.90966 19.7819C3.20173 23.4254 2.29083 27.183 2.29083 32.079Z" fill="#4E7A9B"/>
<path d="M40.5042 21.1292L40.501 21.1303C37.9039 22.0158 36.015 23.4453 34.723 25.3983C33.4767 27.2824 32.809 29.6183 32.5579 32.3463C32.5226 32.3725 32.4871 32.4024 32.4523 32.4371C32.4007 32.4888 32.3519 32.5504 32.3033 32.6183C32.0121 32.6162 31.8723 32.5341 31.7908 32.4544C31.6656 32.332 31.5638 32.1063 31.49 31.7041C31.4382 31.4214 31.4091 31.1131 31.376 30.7637C31.362 30.6158 31.3474 30.4606 31.33 30.2969C31.2739 29.7689 31.1914 29.185 31.0034 28.6204C30.0613 25.7359 28.5445 23.7865 26.5445 22.4932C24.6097 21.2421 22.2613 20.6303 19.6354 20.3327C19.2892 19.863 19.3101 19.6684 19.3202 19.6352C19.3279 19.6099 19.3942 19.4919 19.7998 19.3819C20.1687 19.2819 20.6462 19.2346 21.1576 19.1912C21.201 19.1876 21.245 19.1839 21.2892 19.1802C21.734 19.1431 22.2099 19.1034 22.5656 19.0145L22.5744 19.0123L22.5832 19.0097C27.4605 17.5994 29.5445 14.9536 30.5252 12.4189C31.0081 11.1708 31.2174 9.96579 31.376 9.00352C31.3836 8.95754 31.391 8.91226 31.3984 8.86767C31.4689 8.43806 31.529 8.07257 31.6007 7.76437C31.6423 7.58586 31.6842 7.44403 31.7262 7.33267L32.4259 7.40266C32.4474 7.42234 32.4732 7.45628 32.502 7.51824C32.558 7.63826 32.6049 7.82094 32.6458 8.09414C32.6792 8.31791 32.7046 8.5709 32.7341 8.86448C32.7402 8.92572 32.7465 8.98873 32.7531 9.05361C32.7908 9.42286 32.8365 9.83834 32.9102 10.2847C33.2086 12.0899 33.9627 14.3726 36.4655 16.5179L36.4663 16.5185C38.8977 18.5941 41.1345 19.1017 42.7388 19.3372C42.9369 19.3662 43.125 19.3911 43.3002 19.4141L43.3544 19.4212C43.5099 19.4415 43.6534 19.4603 43.7883 19.4797C44.0939 19.5237 44.3237 19.567 44.4976 19.6238C44.671 19.6804 44.7415 19.7357 44.7722 19.7724C44.7945 19.7989 44.8307 19.8554 44.8307 20.0096C44.8307 20.109 44.8107 20.1606 44.7944 20.189C44.7779 20.2178 44.7473 20.2538 44.6794 20.2948C44.5228 20.3892 44.2541 20.4614 43.8202 20.5254C43.6346 20.5528 43.4252 20.5775 43.1976 20.6043C42.4349 20.6942 41.4678 20.8081 40.5042 21.1292ZM25.0048 19.7097L24.675 20.1495L25.1441 20.4362C25.2571 20.5053 25.369 20.5734 25.4799 20.641C27.397 21.8085 29.0056 22.7881 30.3372 24.8366L30.3372 24.8366L30.3403 24.8414C30.5584 25.1686 30.7504 25.4974 30.9507 25.8408L30.9539 25.8464C31.1511 26.1845 31.3567 26.5369 31.5927 26.8909L31.8375 27.2583L32.2324 27.0608C32.5361 26.9089 32.7059 26.7431 32.8447 26.5647C32.8901 26.5063 32.9244 26.4589 32.9551 26.4164C33.017 26.3307 33.0644 26.265 33.1595 26.17L33.2134 26.1161L33.2488 26.0485C34.4563 23.743 36.7679 21.4418 39.0376 20.4692L39.8167 20.1353L39.1476 19.6149L38.1227 18.8179L38.1228 18.8178L38.1158 18.8126C37.8847 18.6392 37.6978 18.5386 37.5554 18.4619C37.5362 18.4515 37.5177 18.4416 37.5001 18.432C37.3635 18.3575 37.2675 18.2988 37.1444 18.1758L37.1094 18.1408L37.0683 18.1134C34.8774 16.6527 34.1285 15.333 33.5247 14.2691C33.3044 13.881 33.1035 13.5269 32.8589 13.2124L32.8398 13.1878L32.8178 13.1658C32.7108 13.0588 32.6572 12.9986 32.6318 12.9683C32.6197 12.954 32.6132 12.9454 32.6091 12.9399L32.6045 12.9338L32.5966 12.9234C32.5932 12.9189 32.5742 12.8938 32.5474 12.867C32.5155 12.8351 32.4602 12.7878 32.3784 12.7543C32.3027 12.7233 32.2373 12.718 32.2093 12.7165C32.2007 12.7142 32.1868 12.7101 32.1668 12.7035L31.8045 12.5827L31.5927 12.9005C31.3229 13.3052 31.066 13.7377 30.8216 14.1491C30.658 14.4245 30.5 14.6904 30.3476 14.9322C29.9466 15.5682 29.519 16.1526 28.9397 16.6792L28.9235 16.6939L28.9086 16.71C28.2663 17.4059 27.6232 17.8625 27.0488 18.2181C26.8546 18.3382 26.6756 18.4426 26.502 18.5438C26.4119 18.5964 26.3232 18.6482 26.2346 18.7008C25.9913 18.8453 25.7521 18.995 25.5506 19.1613C25.4504 19.2361 25.4017 19.2679 25.3817 19.2803C25.3723 19.286 25.3684 19.2882 25.3592 19.2934L25.3586 19.2938C25.3545 19.2961 25.3388 19.305 25.3219 19.316C25.3004 19.3301 25.2692 19.3527 25.2363 19.3856C25.2033 19.4185 25.1808 19.4498 25.1667 19.4713C25.1556 19.4882 25.1467 19.5039 25.1444 19.508L25.1441 19.5086L25.1421 19.5121C25.1382 19.519 25.1359 19.5231 25.1309 19.5312C25.1181 19.5518 25.0847 19.603 25.0048 19.7097Z" fill="#4E7A9B" stroke="#4E7A9B"/>
</svg>
