<svg width="68" height="67" viewBox="0 0 68 67" fill="none" xmlns="http://www.w3.org/2000/svg">
<path fill-rule="evenodd" clip-rule="evenodd" d="M24.3456 32.9496L32.3712 21.67L45.6448 26.5096L45.3888 38.8308L32.7936 43.6703L24.3456 32.9496ZM0 34.3723L10.752 27.3733L13.2864 29.266L24.1152 13.7692L20.6848 11.3939L24.7808 0.0126953L34.8928 7.01163L33.3824 10.1999L51.2896 16.6272L53.3376 12.3339L64.5376 12.4228L62.1696 23.461L57.6768 23.4737L57.5744 42.4255L62.6816 42.6922L67.136 54.0989L54.464 53.6924L52.9664 49.869L36.672 56.1312L38.1696 59.9546L26.9568 66.2422L22.8608 55.7628L26.368 51.9268L14.2336 38.437L11.1872 41.3331L0 34.3723Z" fill="#A00000"/>
</svg>
