<svg width="240" height="67" viewBox="0 0 240 67" fill="none" xmlns="http://www.w3.org/2000/svg">
<g clip-path="url(#clip0_113_292)">
<mask id="mask0_113_292" style="mask-type:luminance" maskUnits="userSpaceOnUse" x="230" y="24" width="10" height="10">
<path d="M235.328 33.9658C237.908 33.9658 240 31.8901 240 29.3295C240 26.7689 237.908 24.6932 235.328 24.6932C232.747 24.6932 230.656 26.7689 230.656 29.3295C230.656 31.8901 232.747 33.9658 235.328 33.9658Z" fill="white"/>
</mask>
<g mask="url(#mask0_113_292)">
<path d="M235.328 25.6458C237.376 25.6458 239.04 27.2971 239.04 29.3295H240.96C240.96 26.2429 238.438 23.7405 235.328 23.7405V25.6458ZM231.616 29.3295C231.616 27.2971 233.28 25.6458 235.328 25.6458V23.7405C232.217 23.7405 229.696 26.2429 229.696 29.3295H231.616ZM235.328 33.0131C233.28 33.0131 231.616 31.3619 231.616 29.3295H229.696C229.696 32.4161 232.217 34.9185 235.328 34.9185V33.0131ZM239.04 29.3295C239.04 31.3619 237.376 33.0131 235.328 33.0131V34.9185C238.438 34.9185 240.96 32.4161 240.96 29.3295H239.04Z" fill="#FBFBFB"/>
</g>
<path d="M237.261 31.6794H236.288V30.46C236.288 30.0027 236.121 29.8249 235.545 29.8249H234.483V31.6794H233.51V26.9542H235.929C236.813 26.9542 237.389 27.5385 237.389 28.326C237.389 28.8341 237.133 29.2533 236.685 29.4184C237.107 29.5581 237.261 29.7868 237.261 30.3457V31.6794ZM235.763 27.7798H234.483V29.0373H235.725C236.249 29.0373 236.454 28.7706 236.454 28.4149C236.454 28.0466 236.249 27.7798 235.763 27.7798Z" fill="#FBFBFB"/>
<mask id="mask1_113_292" style="mask-type:luminance" maskUnits="userSpaceOnUse" x="0" y="0" width="240" height="67">
<path d="M240 0H0V66.2295H240V0Z" fill="white"/>
</mask>
<g mask="url(#mask1_113_292)">
<path fill-rule="evenodd" clip-rule="evenodd" d="M218.752 48.548V44.966C217.946 46.9348 215.514 48.0907 212.762 48.0907C208.128 48.0907 204.659 44.966 204.659 40.1391V25.8999H210.509V39.3008C210.509 42.0317 211.763 43.4163 214.246 43.4163C216.909 43.4163 218.752 41.6761 218.752 39.3008V25.8999H224.602V48.4591C224.602 54.6705 220.096 58.2906 214.426 58.2906C207.949 58.2906 204.659 54.7594 204.659 49.0815H210.112C210.112 51.6727 211.648 53.2859 214.707 53.2859C216.806 53.2859 218.752 51.4441 218.752 48.548ZM202.074 47.8748H196.621C196.442 47.3413 196.301 46.5791 196.262 45.9059C194.867 47.4302 192.525 48.4464 189.555 48.4464C184.512 48.4464 182.17 45.9948 182.17 42.4128C182.17 36.0744 186.445 35.3504 192.346 34.5501C195.277 34.1436 196.083 33.572 196.083 32.0478C196.083 30.6124 194.637 29.7741 192.346 29.7741C189.683 29.7741 188.608 31.0697 188.339 33.0386H182.886C182.976 28.4784 185.498 25.3156 192.614 25.3156C199.642 25.3156 202.074 28.4403 202.074 33.9785V47.8748ZM196.173 39.5167L196.224 37.1033C195.635 37.6876 194.598 37.9924 192.448 38.3989C189.12 39.0213 188.032 39.9613 188.032 41.8412C188.032 43.4925 189.018 44.2927 190.874 44.2927C193.882 44.3054 196.134 42.108 196.173 39.5167ZM176.691 47.8748H170.701L167.194 35.0963L163.686 47.8748H157.696L151.398 25.8999H157.568L161.165 40.0121L164.224 25.8999H170.163L173.632 40.0121L177.011 25.8999H183.04L176.691 47.8748ZM149.85 47.8748H144.218L144.166 45.1946C142.771 47.4302 140.698 48.4591 137.997 48.4591C132.416 48.4591 128.41 44.0768 128.41 36.6714C128.41 30.0154 131.789 25.3283 137.498 25.3283C140.25 25.3283 142.4 26.4461 144.064 28.7706V17.8721H149.824V47.8748H149.85ZM139.354 43.7211C142.144 43.7211 144.307 41.1299 144.307 37.4208C144.307 32.6448 142.643 30.2695 139.405 30.2695C135.987 30.2695 134.362 32.5432 134.362 37.0652C134.362 40.9902 136.422 43.7211 139.354 43.7211ZM126.848 38.3989H111.578C111.757 41.7015 113.651 43.8482 116.531 43.8482C118.426 43.8482 120.09 42.9082 120.486 41.3966H126.515C125.158 45.9059 121.523 48.4591 116.787 48.4591C109.402 48.4591 105.715 44.4325 105.715 36.4809C105.715 29.6852 109.632 25.3156 116.429 25.3156C123.226 25.3156 126.848 29.6979 126.848 38.3989ZM111.757 34.7407H120.806C120.717 31.4762 118.554 29.9138 116.262 29.9138C113.92 29.9138 111.987 31.7048 111.757 34.7407ZM103.603 47.8748H97.4848V40.2407C97.4848 37.3827 96.4096 36.2649 92.8 36.2649H86.144V47.8748H80.064V18.215H95.232C100.774 18.215 104.41 21.8733 104.41 26.789C104.41 29.9646 102.835 32.6448 99.9552 33.6737C102.618 34.5247 103.603 35.9982 103.603 39.4786V47.8748ZM94.1952 23.3467H86.1312V31.2602H93.9648C97.2928 31.2602 98.56 29.6089 98.56 27.3352C98.56 24.998 97.3056 23.3467 94.1952 23.3467Z" fill="#FBFBFB"/>
</g>
<path fill-rule="evenodd" clip-rule="evenodd" d="M24.3456 33.9495L32.3712 22.6699L45.6448 27.5095L45.3888 39.8306L32.7936 44.6702L24.3456 33.9495ZM0 35.3721L10.752 28.3732L13.2864 30.2658L24.1152 14.7691L20.6848 12.3938L24.7808 1.01257L34.8928 8.01151L33.3824 11.1998L51.2896 17.6271L53.3376 13.3338L64.5376 13.4227L62.1696 24.4609L57.6768 24.4736L57.5744 43.4254L62.6816 43.6921L67.136 55.0987L54.464 54.6923L52.9664 50.8689L36.672 57.1311L38.1696 60.9545L26.9568 67.2421L22.8608 56.7627L26.368 52.9266L14.2336 39.4369L11.1872 42.333L0 35.3721Z" fill="#FBFBFB"/>
</g>
<defs>
<clipPath id="clip0_113_292">
<rect width="240" height="66.2295" fill="white"/>
</clipPath>
</defs>
</svg>
