<svg width="400" height="58" viewBox="0 0 400 58" fill="none" xmlns="http://www.w3.org/2000/svg">
<g clip-path="url(#clip0_2154_2)">
<path d="M136.008 28.9822H118.157V46.1979H109.66V5.37207H138.576V12.5042H118.157V21.7884H136.008V28.9822Z" fill="white"/>
<path d="M148.837 46.1975H140.891V15.9471H148.837V46.1975ZM148.837 12.3196H140.891V4.87988H148.837V12.3196Z" fill="white"/>
<path d="M180.955 57.7271H173.007C173.007 57.7271 173.007 55.3585 173.007 47.9188V42.4467C170.746 45.5209 167.872 46.9966 164.204 46.9966C156.441 46.9966 151.855 40.5407 151.855 31.3794C151.855 21.173 157.297 15.1475 164.877 15.1475C168.544 15.1475 171.357 16.5616 173.252 19.6359L173.314 15.9468H180.955V47.9803C180.955 52.0997 180.955 57.7271 180.955 57.7271ZM166.772 40.1718C171.174 40.1718 173.435 36.913 173.435 30.3342C173.435 25.2309 170.502 21.6649 166.711 21.6649C162.738 21.6649 159.926 25.4154 159.926 30.826C159.926 37.036 162.126 40.1718 166.772 40.1718Z" fill="white"/>
<path d="M210.892 46.1977H203.372V41.9552C201.295 45.3984 198.176 46.997 194.019 46.997C188.028 46.997 183.811 42.5086 183.811 35.8682V15.9473H191.758V34.6385C191.758 38.4507 193.469 40.2952 196.832 40.2952C200.867 40.2952 203.006 37.4054 203.006 33.4089V15.9473H210.892V46.1977Z" fill="white"/>
<path d="M221.895 28.1208H234.182C234.06 23.6324 231.125 21.4804 228.008 21.4804C224.829 21.4804 222.2 23.9398 221.895 28.1208ZM242.374 33.1625H221.651C221.895 37.7124 224.463 40.6636 228.375 40.6636C230.943 40.6636 233.204 39.3724 233.755 37.2819H241.946C240.112 43.4919 235.16 46.9966 228.741 46.9966C218.716 46.9966 213.703 41.4629 213.703 30.5186C213.703 21.173 219.021 15.1475 228.252 15.1475C237.484 15.1475 242.374 21.173 242.374 33.1625Z" fill="white"/>
<path d="M268.106 30.7653L263.032 14.5333H262.971L257.775 30.7653H268.106ZM282.35 46.1979H273.12L270.552 37.7744H255.575L252.701 46.1979H243.715L258.203 5.37207H268.045L282.35 46.1979Z" fill="white"/>
<path d="M292.35 46.1975H284.402V4.87988H292.35V46.1975Z" fill="white"/>
<path d="M303.205 28.1208H315.492C315.371 23.6324 312.436 21.4804 309.318 21.4804C306.139 21.4804 303.511 23.9398 303.205 28.1208ZM323.684 33.1625H302.96C303.205 37.7124 305.772 40.6636 309.685 40.6636C312.252 40.6636 314.515 39.3724 315.064 37.2819H323.256C321.423 43.4919 316.471 46.9966 310.052 46.9966C300.026 46.9966 295.014 41.4629 295.014 30.5186C295.014 21.173 300.332 15.1475 309.563 15.1475C318.793 15.1475 323.684 21.173 323.684 33.1625Z" fill="white"/>
<path d="M334.379 46.1972H326.432V15.9468H333.889V19.5744C336.519 15.5164 339.575 15.1475 342.815 15.1475H343.854V23.3249C343.121 23.202 342.387 23.1405 341.653 23.1405C336.763 23.1405 334.379 25.5998 334.379 30.4571V46.1972Z" fill="white"/>
<path d="M363.128 34.1464V26.2764H370.525V34.8843C370.525 41.2786 366.857 46.9968 358.359 46.9968C349.557 46.9968 346.072 41.3401 346.072 34.8227V7.76953H353.897V15.947H370.525V21.6036H353.897V34.0235C353.897 37.8355 355.242 40.0489 358.482 40.0489C361.661 40.0489 363.128 37.897 363.128 34.1464Z" fill="white"/>
<path d="M391.991 34.6996L392.052 31.3794C391.258 32.1788 389.851 32.6091 386.917 33.1625C382.393 34.0233 380.926 35.3145 380.926 37.8968C380.926 40.1718 382.271 41.2784 384.777 41.2784C388.873 41.2784 391.93 38.2657 391.991 34.6996ZM399.999 46.1972H392.602C392.358 45.4594 392.174 44.4141 392.113 43.4919C390.218 45.5824 387.039 46.9966 383.005 46.9966C376.158 46.9966 372.979 43.6149 372.979 38.6961C372.979 29.9653 378.786 28.9815 386.795 27.8748C390.768 27.3214 391.868 26.5221 391.868 24.4317C391.868 22.4641 389.912 21.296 386.795 21.296C383.187 21.296 381.721 23.079 381.354 25.7843H373.957C374.079 19.5129 377.502 15.1475 387.162 15.1475C396.698 15.1475 399.999 19.4515 399.999 27.0755V46.1972Z" fill="white"/>
<path d="M41.3467 46.9295L27.6884 28.7231C24.0745 30.5951 16.0122 36.4137 12.6738 44.7127C46.057 67.2151 80.7661 50.4845 92.4263 28.0601C90.2818 25.0312 85.2899 18.5756 82.482 16.9844C76.6477 31.4608 64.518 41.1286 41.3467 46.9295Z" fill="white"/>
<path d="M60.6044 18.2709L60.3314 31.2575C72.9047 25.1425 78.1799 16.6979 79.2459 13.24C49.4507 -12.3823 13.1816 2.74911 0 28.3716C2.55833 34.3931 6.26583 38.8103 7.7998 40.2662C18.9691 19.1756 36.0611 12.109 43.2109 11.2121L60.6044 18.2709Z" fill="white"/>
<path fill-rule="evenodd" clip-rule="evenodd" d="M34.041 27.8838L41.916 16.7217L49.4447 19.4862C48.3069 20.3936 47.5778 21.7918 47.5778 23.3604C47.5778 26.0957 49.7953 28.3132 52.5307 28.3132C53.3543 28.3132 54.1309 28.1122 54.8142 27.7566L54.6923 33.686L42.3348 38.4745L34.041 27.8838Z" fill="white"/>
<path d="M41.3467 46.9295L27.6884 28.7231C24.0745 30.5951 16.0122 36.4137 12.6738 44.7127C46.057 67.2151 80.7661 50.4845 92.4263 28.0601C90.2818 25.0312 85.2899 18.5756 82.482 16.9844C76.6477 31.4608 64.518 41.1286 41.3467 46.9295Z" fill="white"/>
<path d="M60.6044 18.2709L60.3314 31.2575C72.9047 25.1425 78.1799 16.6979 79.2459 13.24C49.4507 -12.3823 13.1816 2.74911 0 28.3716C2.55833 34.3931 6.26583 38.8103 7.7998 40.2662C18.9691 19.1756 36.0611 12.109 43.2109 11.2121L60.6044 18.2709Z" fill="white"/>
<path fill-rule="evenodd" clip-rule="evenodd" d="M34.041 27.8838L41.916 16.7217L49.4447 19.4862C48.3069 20.3936 47.5778 21.7918 47.5778 23.3604C47.5778 26.0957 49.7953 28.3132 52.5307 28.3132C53.3543 28.3132 54.1309 28.1122 54.8142 27.7566L54.6923 33.686L42.3348 38.4745L34.041 27.8838Z" fill="white"/>
</g>
<defs>
<clipPath id="clip0_2154_2">
<rect width="400" height="57.7358" fill="white"/>
</clipPath>
</defs>
</svg>
