<svg width="4337" height="626" viewBox="0 0 4337 626" fill="none" xmlns="http://www.w3.org/2000/svg">
<path d="M1474.66 314.235H1281.11V500.896H1188.98V58.2424H1502.5V135.573H1281.11V236.237H1474.66V314.235Z" fill="black"/>
<path d="M1613.77 500.896H1527.61V172.906H1613.77V500.896ZM1613.77 133.574H1527.61V52.9092H1613.77V133.574Z" fill="black"/>
<path d="M1962.01 625.909H1875.84C1875.84 625.909 1875.84 600.227 1875.84 519.562V460.231C1851.32 493.563 1820.16 509.563 1780.39 509.563C1696.22 509.563 1646.5 439.565 1646.5 340.234C1646.5 229.571 1705.5 164.239 1787.69 164.239C1827.45 164.239 1857.94 179.572 1878.49 212.905L1879.16 172.906H1962.01V520.229C1962.01 564.894 1962.01 625.909 1962.01 625.909ZM1808.23 435.565C1855.96 435.565 1880.48 400.232 1880.48 328.901C1880.48 273.569 1848.67 234.904 1807.57 234.904C1764.49 234.904 1734 275.569 1734 334.234C1734 401.566 1757.86 435.565 1808.23 435.565Z" fill="black"/>
<path d="M2286.59 500.896H2205.06V454.897C2182.53 492.23 2148.72 509.563 2103.65 509.563C2038.69 509.563 1992.96 460.897 1992.96 388.899V172.906H2079.13V375.566C2079.13 416.899 2097.68 436.898 2134.14 436.898C2177.89 436.898 2201.09 405.566 2201.09 362.234V172.906H2286.59V500.896Z" fill="black"/>
<path d="M2405.9 304.902H2539.12C2537.8 256.237 2505.98 232.904 2472.18 232.904C2437.71 232.904 2409.21 259.57 2405.9 304.902ZM2627.94 359.567H2403.25C2405.9 408.899 2433.74 440.898 2476.16 440.898C2504 440.898 2528.52 426.898 2534.49 404.232H2623.3C2603.42 471.564 2549.73 509.563 2480.13 509.563C2371.43 509.563 2317.08 449.564 2317.08 330.901C2317.08 229.571 2374.74 164.239 2474.83 164.239C2574.92 164.239 2627.94 229.571 2627.94 359.567Z" fill="black"/>
<path d="M2906.94 333.568L2851.93 157.573H2851.27L2794.93 333.568H2906.94ZM3061.38 500.896H2961.3L2933.46 409.565H2771.07L2739.91 500.896H2642.48L2799.57 58.2424H2906.28L3061.38 500.896Z" fill="black"/>
<path d="M3169.81 500.896H3083.64V52.9092H3169.81V500.896Z" fill="black"/>
<path d="M3287.5 304.902H3420.73C3419.41 256.237 3387.59 232.904 3353.79 232.904C3319.32 232.904 3290.82 259.57 3287.5 304.902ZM3509.55 359.567H3284.85C3287.5 408.899 3315.34 440.898 3357.76 440.898C3385.6 440.898 3410.13 426.898 3416.09 404.232H3504.91C3485.03 471.564 3431.34 509.563 3361.74 509.563C3253.04 509.563 3198.69 449.564 3198.69 330.901C3198.69 229.571 3256.35 164.239 3356.44 164.239C3456.52 164.239 3509.55 229.571 3509.55 359.567Z" fill="black"/>
<path d="M3625.5 500.896H3539.33V172.906H3620.19V212.238C3648.7 168.239 3681.84 164.239 3716.97 164.239H3728.23V252.903C3720.28 251.57 3712.33 250.903 3704.37 250.903C3651.35 250.903 3625.5 277.569 3625.5 330.234V500.896Z" fill="black"/>
<path d="M3937.22 370.233V284.902H4017.42V378.233C4017.42 447.564 3977.65 509.563 3885.51 509.563C3790.07 509.563 3752.29 448.231 3752.29 377.566V84.2416H3837.13V172.906H4017.42V234.237H3837.13V368.9C3837.13 410.232 3851.71 434.231 3886.84 434.231C3921.31 434.231 3937.22 410.899 3937.22 370.233Z" fill="black"/>
<path d="M4250.15 376.233L4250.81 340.234C4242.2 348.901 4226.95 353.567 4195.14 359.567C4146.09 368.9 4130.18 382.9 4130.18 410.899C4130.18 435.565 4144.76 447.564 4171.94 447.564C4216.35 447.564 4249.49 414.899 4250.15 376.233ZM4336.98 500.896H4256.78C4254.13 492.896 4252.14 481.563 4251.48 471.564C4230.93 494.23 4196.46 509.563 4152.72 509.563C4078.48 509.563 4044.01 472.897 4044.01 419.565C4044.01 324.901 4106.98 314.235 4193.81 302.235C4236.89 296.235 4248.82 287.569 4248.82 264.903C4248.82 243.57 4227.61 230.904 4193.81 230.904C4154.7 230.904 4138.8 250.237 4134.82 279.569H4054.62C4055.94 211.571 4093.06 164.239 4197.79 164.239C4301.19 164.239 4336.98 210.905 4336.98 293.569V500.896Z" fill="black"/>
<path d="M448.3 508.83L300.21 311.427C261.026 331.724 173.61 394.812 137.414 484.794C499.371 728.777 875.704 547.375 1002.13 304.239C978.878 271.398 924.754 201.403 894.309 184.15C831.051 341.111 699.535 445.934 448.3 508.83Z" fill="black"/>
<path d="M657.103 198.102L654.143 338.91C790.469 272.608 847.666 181.047 859.224 143.555C536.169 -134.255 142.922 29.8074 0 307.619C27.7387 372.907 67.9373 420.801 84.5693 436.587C205.672 207.912 390.992 131.292 468.514 121.567L657.103 198.102Z" fill="black"/>
<path fill-rule="evenodd" clip-rule="evenodd" d="M369.094 302.325L454.478 181.3L536.108 211.274C523.772 221.113 515.867 236.273 515.867 253.28C515.867 282.938 539.91 306.981 569.568 306.981C578.498 306.981 586.918 304.802 594.327 300.946L593.006 365.236L459.019 417.155L369.094 302.325Z" fill="black"/>
<path d="M448.3 508.83L300.21 311.427C261.026 331.724 173.61 394.812 137.414 484.794C499.371 728.777 875.704 547.375 1002.13 304.239C978.878 271.398 924.754 201.403 894.309 184.15C831.051 341.111 699.535 445.934 448.3 508.83Z" fill="black"/>
<path d="M657.103 198.102L654.143 338.91C790.469 272.608 847.666 181.047 859.224 143.555C536.169 -134.255 142.922 29.8074 0 307.619C27.7387 372.907 67.9373 420.801 84.5693 436.587C205.672 207.912 390.992 131.292 468.514 121.567L657.103 198.102Z" fill="black"/>
<path fill-rule="evenodd" clip-rule="evenodd" d="M369.094 302.325L454.478 181.3L536.108 211.274C523.772 221.113 515.867 236.273 515.867 253.28C515.867 282.938 539.91 306.981 569.568 306.981C578.498 306.981 586.918 304.802 594.327 300.946L593.006 365.236L459.019 417.155L369.094 302.325Z" fill="black"/>
</svg>
