<svg width="201" height="82" viewBox="0 0 201 82" fill="none" xmlns="http://www.w3.org/2000/svg">
<g clip-path="url(#clip0_95_5148)">
<path fill-rule="evenodd" clip-rule="evenodd" d="M0.749023 39.3812C0.749023 55.4549 13.5463 67.7655 28.9549 67.7331C57.3474 67.6925 69.0336 28.6844 40.6006 14.2003C34.8183 11.2483 28.736 11.3618 22.6455 12.3188C21.2831 12.5378 20.8776 12.6513 19.8801 13.0568C18.9231 13.4623 18.2257 13.7218 17.4147 14.0867C16.3847 14.5652 13.7977 15.8222 12.9867 16.5602C12.4353 17.0387 11.6648 17.5496 10.9998 18.0686C10.2618 18.6607 9.85634 18.9526 9.15889 19.7312C7.93431 21.0936 6.94492 22.01 5.94741 23.413C2.70349 27.9869 0.749023 33.4043 0.749023 39.3812ZM7.0179 54.2708C7.82889 53.9059 9.0778 52.3975 10.0753 51.6919C15.2412 48.083 15.0547 49.924 16.2306 46.68C16.6361 45.4636 17.4147 43.7281 17.6012 42.5522C15.1683 42.5846 4.51197 47.637 4.65795 49.7374C4.69039 50.662 6.57187 53.4598 7.0179 54.2708ZM22.6131 64.7811C22.5725 65.6651 23.3511 65.3731 24.308 65.5191C29.7254 66.3301 35.3292 65.8516 40.1221 63.3457C42.4497 62.0887 44.6636 60.8722 46.537 58.9907C48.2401 57.3363 50.4135 55.2359 51.3704 53.1354C50.6324 53.2409 50.4865 53.5734 49.862 53.9464C49.343 54.2708 48.678 54.6033 48.1671 54.8628C43.5931 57.2633 38.2082 58.5122 33.0828 60.0612C27.925 61.6507 24.5675 64.1161 22.6131 64.7811ZM12.0703 59.7287C12.7353 59.5503 13.4652 58.8123 14.1708 58.3338C16.7172 56.6308 18.0391 55.8603 21.0641 54.5303C22.7266 53.7923 24.827 53.2084 26.4814 52.6489C29.7254 51.5865 34.5588 50.37 37.4378 49.3319C44.7366 46.753 48.6455 46.307 48.6455 38.6432C48.6455 37.9377 48.678 38.1242 48.459 37.6863C47.721 37.7593 45.9125 39.7462 43.6256 41.0762C39.3112 43.5415 38.9057 43.3226 34.9643 44.6526C34.1533 44.9445 32.7179 45.423 31.9069 45.6095C25.5245 46.9396 12.9137 50.1429 8.82639 55.2683C7.97486 56.3064 9.11834 56.9633 9.85634 57.7418C10.2943 58.1797 11.4377 59.4368 12.0703 59.7287ZM13.6517 60.9857C14.5762 61.6507 14.2762 61.6507 16.0117 62.5347C17.0416 63.0537 17.9337 63.5322 18.8907 63.9377C20.7316 64.7081 20.7721 63.8647 24.454 61.7562C31.9393 57.5553 40.5682 56.8173 47.275 53.2409C49.27 52.1704 52.1814 50.3295 53.3979 48.7805C54.1359 47.8235 55.0604 43.3956 54.9469 41.7736C54.2089 42.0331 52.5139 43.9146 50.7784 45.0581C50.008 45.5771 49.343 46.0556 48.532 46.5341C46.0585 48.01 43.4066 49.2265 40.7142 50.1835L34.9643 52.0649C31.1689 53.2084 27.0735 54.0924 23.5376 55.6414C20.0666 57.0768 19.0691 57.3363 15.9387 59.3638C15.3142 59.7693 14.2437 60.6532 13.6517 60.9857ZM2.58995 39.7462C2.58995 42.1791 2.92245 45.35 3.70099 47.1991C4.32545 47.1261 4.84448 46.6395 5.46893 46.1286C8.38035 43.6551 18.6311 39.1541 19.8801 40.4517C20.5126 41.5141 18.2986 45.496 18.1121 47.2721C19.1826 47.2315 25.046 45.277 26.8139 44.8716C32.5638 43.6226 38.0947 42.2521 43.0417 39.1947C44.3636 38.4243 45.3205 37.7187 46.245 36.8023C48.7185 34.4423 50.2999 31.6039 50.3729 38.4567C50.4135 42.3251 50.008 41.4411 49.8215 43.3631C50.673 43.2172 53.3655 40.5247 53.8764 40.0057C55.6443 38.1972 55.1658 37.5727 54.5819 34.1828C53.9169 30.3469 51.7759 26.5515 49.6349 23.7131C38.2812 8.59639 13.6193 10.2508 4.91746 28.8709C3.40093 32.1148 2.58995 35.3993 2.58995 39.7462Z" fill="#4E7A9B"/>
<path fill-rule="evenodd" clip-rule="evenodd" d="M17.6337 29.7954C22.3536 30.2739 25.857 31.8553 27.479 36.8023C28.071 38.6027 27.333 40.7842 29.3199 40.5572C29.5065 40.2976 29.547 40.2976 29.766 40.1192C30.1309 35.1722 32.0854 31.8959 36.4728 30.3793C38.5732 29.6819 40.5682 30.1604 40.5682 28.9845C40.6007 27.3219 37.1783 29.0574 33.0829 25.5864C28.882 21.9776 30.577 17.9551 29.3605 17.4442L28.3305 17.3712C27.3655 18.7337 28.6955 25.2215 20.3991 27.695C19.0691 28.1005 15.9388 27.7274 17.6337 29.7954ZM22.9456 29.0574C24.7866 30.1279 26.3761 31.0443 27.6655 33.0718C28.071 33.6638 28.363 34.2883 28.7685 34.8803C29.1415 34.6938 29.2145 34.5153 29.4335 34.1423C30.577 32.0824 32.6044 29.9009 34.7778 29.0574L33.8614 28.3519C33.4478 28.1005 33.3019 28.0275 32.9369 27.768C30.285 25.9595 29.839 24.224 29.174 23.3806C28.809 22.9345 29.028 23.2265 28.7685 23.0481C27.998 24.2646 27.4385 25.408 26.4085 26.438C25.192 27.695 24.0486 28.1329 23.3836 28.6114C22.8726 28.9845 23.2376 28.6844 22.9456 29.0574Z" fill="#4E7A9B"/>
<path fill-rule="evenodd" clip-rule="evenodd" d="M124.854 50.9539L124.741 46.826C124.741 46.753 124.708 46.7125 124.708 46.6395C124.668 46.4611 124.741 46.4611 124.149 46.3475C122.859 46.161 120.54 46.3881 120.499 46.3881C120.426 46.4205 120.353 46.4611 120.321 46.4611C120.28 46.4611 120.207 46.4935 120.167 46.4935C119.688 47.8235 120.021 77.0999 120.021 81.3008L125 81.2278V70.0931C126.476 70.166 127.579 71.7475 132.339 71.4555C137.132 71.123 140.668 68.2116 142.363 64.0431C143.401 61.4237 143.734 59.6963 143.653 56.6308C143.507 51.7649 140.814 47.564 136.613 46.2016C129.752 43.9146 126.03 50.589 124.854 50.9539ZM125 53.8329V63.8566C125 69.2415 130.563 70.239 133.256 69.2821C139.825 66.9221 139.638 52.9084 134.221 49.7374C132.412 48.7075 130.125 49.113 128.431 49.9645C127.547 50.443 127.101 50.8079 126.403 51.4324C125.625 52.1379 125 52.5759 125 53.8329Z" fill="#4E7A9B"/>
<path fill-rule="evenodd" clip-rule="evenodd" d="M185.134 54.7899C185.101 54.8304 184.988 54.7899 184.988 54.8629L184.031 55.2359C183.585 55.3819 183.293 55.4549 182.847 55.5684C178.387 56.7443 170.569 59.2503 170.423 64.7811C170.35 67.0681 170.796 68.0656 171.858 69.4686C172.75 70.5716 174.624 71.3095 176.14 71.4555C177.949 71.6015 179.895 71.0906 181.225 70.4256C182.555 69.72 184.282 68.2116 185.134 67.8386C185.207 71.2366 184.469 71.0095 187.64 71.0095C190.851 71.0095 190.186 71.9016 190.186 65.5597C190.186 61.9103 190.186 58.2528 190.186 54.6033C190.186 50.37 190.186 48.5615 187.202 46.899C182.774 44.3931 172.896 45.9421 171.493 50.516C170.35 54.3844 175.256 56.0469 176.173 52.7624C176.651 51.1405 176.14 49.778 177.243 48.448C177.949 47.6046 185.758 44.4661 185.134 54.7899ZM185.134 56.8579C182.514 57.0363 179.384 59.0313 177.689 60.2072C172.596 63.7512 176.651 71.934 184.104 66.6221C185.58 65.5597 185.174 65.6327 185.174 62.3888C185.174 60.5397 185.174 58.6988 185.134 56.8579Z" fill="#4E7A9B"/>
<path fill-rule="evenodd" clip-rule="evenodd" d="M109.924 54.0519L109.883 54.7898C109.186 55.2683 106.307 55.8198 105.236 56.2253C101.036 57.6688 95.3182 59.6233 95.1722 64.9677C95.0262 71.6745 101.96 72.7125 106.453 70.1255C107.264 69.647 107.669 69.3145 108.375 68.836C108.626 68.6171 110.07 67.2546 109.737 67.7331C110.248 68.1386 109.956 70.0525 109.956 70.831L114.79 70.8635C114.79 67.3276 114.936 53.1354 114.717 50.8809C113.833 42.7711 95.8372 44.9445 96.0562 51.6189C96.1697 55.0494 100.817 55.5278 101.068 51.8054C101.222 49.9645 101.149 48.9994 102.366 48.156C104.061 46.9396 110.175 46.015 109.924 54.0519ZM109.883 56.7849C107.783 56.8903 103.801 59.1448 102.471 60.1748C100.079 62.0157 98.9676 64.7081 101.368 67.1816C104.207 70.1255 109.81 66.8491 109.924 65.0001C109.997 64.1891 109.924 63.0456 109.924 62.2022C109.924 60.3937 109.956 58.5528 109.883 56.7849Z" fill="#4E7A9B"/>
<path fill-rule="evenodd" clip-rule="evenodd" d="M92.958 61.5048C92.3335 61.2453 92.5201 61.1723 91.7091 61.2453C90.7846 62.3482 90.4926 64.4892 88.1651 66.2977C83.5993 69.8335 75.1164 66.7761 75.1164 56.0793C75.1164 51.5865 77.6223 47.71 82.0503 47.637C84.6292 47.6046 86.1782 48.4885 86.3566 51.0674C86.4377 52.4299 86.5837 53.0219 87.3947 53.6869C89.5681 55.4873 94.361 53.3139 91.8145 49.259C89.9006 46.2016 84.1507 45.1716 80.4608 45.9826C74.9299 47.2315 70.356 52.2434 70.1775 58.4798C69.991 63.0132 72.0914 66.9951 74.8974 68.982C75.6354 69.5416 76.2193 70.0931 77.1033 70.458C82.3017 72.6395 87.2081 71.269 90.7521 66.9951C91.482 66.0706 93.1445 62.9726 92.958 61.5048Z" fill="#4E7A9B"/>
<path fill-rule="evenodd" clip-rule="evenodd" d="M154.35 48.3425L158.551 48.4155C158.697 52.2839 158.259 64.9676 158.696 67.2546C160.14 74.6994 169.945 70.6445 169.985 67.6195C167.877 66.3301 168.874 68.4305 165.922 68.2116C164.227 68.098 163.53 66.7356 163.53 65.0001V48.4885L169.134 48.375C169.32 45.6095 169.134 46.1286 167.033 46.161C166.003 46.161 164.56 46.307 163.749 45.9826C163.53 45.423 163.603 44.6526 163.603 44.0281L163.562 38.0188C161.721 37.3538 162.013 38.4567 161.462 40.6707C160.724 43.6956 159.735 45.0581 157.334 46.5341C156.742 46.899 156.337 46.899 155.42 47.0125C154.35 47.1991 154.163 47.1261 154.35 48.3425Z" fill="#4E7A9B"/>
<path fill-rule="evenodd" clip-rule="evenodd" d="M195.717 35.1398L195.677 70.385C195.677 71.1636 196.861 70.9365 197.672 70.904C198.515 70.904 199.367 70.904 200.218 70.904L200.251 33.7773C199.148 33.9963 196.382 34.6938 195.717 35.1398Z" fill="#4E7A9B"/>
<path fill-rule="evenodd" clip-rule="evenodd" d="M147.343 46.9395C146.978 49.3319 147.197 66.549 147.197 70.385C147.197 71.2689 148.965 70.904 151.065 70.904C151.771 70.904 152.176 71.05 152.176 70.385C152.176 62.7536 152.355 53.2408 152.176 45.869C150.96 45.869 149.038 46.753 147.343 46.9395Z" fill="#4E7A9B"/>
<path fill-rule="evenodd" clip-rule="evenodd" d="M148.413 38.0917C144.837 40.4111 148.008 43.8416 150.96 42.5846C153.206 41.6276 152.833 38.8297 150.7 38.0917C150.295 37.9377 148.851 37.7917 148.413 38.0917Z" fill="#4E7A9B"/>
<path fill-rule="evenodd" clip-rule="evenodd" d="M130.125 29.0899V32.5203C130.271 33.2989 130.165 32.9664 130.676 33.1123C130.676 33.1123 134.585 33.2583 134.958 32.8934C135.364 32.4879 135.137 13.4623 135.137 11.5402V9.29383C135.064 8.81535 135.177 9.40737 135.064 8.96133C134.772 7.89083 131.301 8.36931 130.238 8.48285C129.938 10.0318 130.238 22.456 130.165 25.6594C130.125 27.4355 128.389 28.7249 126.994 29.5683C126.256 29.9738 125.291 30.4604 124.521 30.5334C122.858 30.7118 120.612 29.4629 119.842 28.4654C118.585 26.8435 118.917 24.7755 118.917 22.3101C118.917 20.0231 119.031 9.8453 118.844 8.48285L114.051 8.4423C113.646 10.2183 113.938 17.4036 113.938 19.6906C113.938 23.267 113.459 27.5409 115.154 30.0549C118.066 34.3612 122.453 34.6937 126.954 31.7823C127.651 31.3444 128.024 31.0119 128.503 30.5334C129.314 29.7224 129.314 29.3494 130.125 29.0899Z" fill="#4E7A9B"/>
<path fill-rule="evenodd" clip-rule="evenodd" d="M140.481 27.3219C139.929 27.5814 138.607 28.6844 138.607 29.1629C139.232 30.6794 142.216 32.6663 144.098 33.1853C148.704 34.4748 155.638 33.4043 156.814 27.841C158.922 18.1092 143.141 18.9526 142.662 13.2028C142.403 10.1048 146.012 9.36682 148.672 9.69933C150.294 9.91829 151.989 11.3943 153.019 12.5783C153.319 12.9432 153.246 12.8297 153.497 13.2352C153.83 13.7218 153.651 13.6407 154.057 13.9002C154.057 13.9002 156.854 13.3487 155.087 11.4348C154.381 10.6563 153.538 9.73177 152.54 9.14786C146.052 5.38491 137.018 10.0318 139.232 16.8927C141.146 22.9751 152.654 23.194 152.175 28.4249C151.916 31.3768 146.498 34.4423 141.665 28.7574C141.219 28.2059 140.967 27.8004 140.481 27.3219Z" fill="#4E7A9B"/>
<path fill-rule="evenodd" clip-rule="evenodd" d="M68.6279 9.43979V10.4697L72.9423 10.5508C73.1208 14.3462 72.6828 27.3219 73.1208 29.5359C74.6373 36.9483 84.1096 32.8204 84.4096 29.9008C82.3822 28.2464 82.2281 31.5633 79.5762 30.3469C77.5082 29.3899 77.9137 27.1759 77.9137 24.889C77.9137 20.2421 77.7677 15.2302 77.9542 10.5833L83.2986 10.5103C84.3285 7.15283 81.6766 9.0343 77.9137 8.40985L77.8812 0.0405273L76.4782 0.0729666C75.9592 1.11102 75.7808 6.64191 72.1638 8.52339C71.1339 9.07485 69.9174 9.07485 68.6279 9.43979Z" fill="#4E7A9B"/>
<path fill-rule="evenodd" clip-rule="evenodd" d="M91.5629 15.5627C92.2603 14.1597 94.1012 11.4672 96.3557 12.4647C97.6776 13.0162 97.9777 13.4217 99.8511 13.2352C101.254 13.1297 102.065 12.3188 101.992 10.7698C101.887 8.33685 98.6346 7.45288 96.5342 8.22331C94.9852 8.81533 92.5928 10.8428 91.8143 12.2782C91.3763 11.9863 91.5223 12.7567 91.4088 11.7267L91.3763 8.40984C90.5978 8.15032 87.3539 8.10977 86.8754 8.22331L86.2509 8.55581C85.8454 8.9613 86.0644 26.9894 86.0644 30.2739C86.0644 31.0119 85.8049 32.7068 86.2834 33.1123C86.6889 33.6232 90.7113 33.5908 91.1898 33.1447C91.9278 32.4068 91.1493 18.0281 91.5629 15.5627Z" fill="#4E7A9B"/>
<path fill-rule="evenodd" clip-rule="evenodd" d="M104.238 9.65878V32.1554C104.238 33.3719 104.319 33.1448 108.22 33.1123L109.112 33.0718C109.331 30.9389 109.258 11.4348 109.185 8.1098C108.074 8.15035 107.409 8.40986 106.452 8.66938C105.974 8.81536 105.787 8.84779 105.276 9.00188C104.725 9.14786 104.538 9.22085 104.238 9.65878Z" fill="#4E7A9B"/>
<path fill-rule="evenodd" clip-rule="evenodd" d="M105.568 0.332477C104.465 0.956932 103.248 1.95444 104.205 3.64939C104.87 4.86586 106.525 5.49842 107.928 4.76043C111.504 3.02493 108.22 -1.2165 105.568 0.332477Z" fill="#4E7A9B"/>
</g>
<defs>
<clipPath id="clip0_95_5148">
<rect width="200" height="81.3008" fill="#4E7A9B" transform="translate(0.5)"/>
</clipPath>
</defs>
</svg>
