<svg width="57" height="56" viewBox="0 0 57 56" fill="none" xmlns="http://www.w3.org/2000/svg">
<circle cx="28" cy="28" r="28" fill="#4E7A9B"/>
<path fill-rule="evenodd" clip-rule="evenodd" d="M0 27.5856C0 43.6856 12.8 55.9856 28.2 55.9856C56.6 55.9856 68.3 16.9856 39.8 2.4856C34 -0.514398 27.9 -0.314398 21.8 0.585602C20.4 0.785602 20 0.885602 19 1.2856C18 1.6856 17.3 1.9856 16.5 2.2856C15.5 2.7856 12.9 3.9856 12.1 4.7856C11.5 5.2856 10.8 5.7856 10.1 6.2856C9.4 6.8856 9 7.1856 8.3 7.9856C7.1 9.3856 6.1 10.2856 5.1 11.6856C2 16.1856 0 21.5856 0 27.5856ZM6.3 42.4856C7.1 42.0856 8.4 40.5856 9.4 39.8856C14.6 36.2856 14.4 38.0856 15.6 34.8856C16 33.6856 16.8 31.8856 17 30.7856C14.6 30.7856 3.9 35.8856 4.1 37.9856C4 38.8856 5.9 41.6856 6.3 42.4856ZM21.9 52.9856C21.9 53.8856 22.6 53.5856 23.6 53.6856C29 54.4856 34.6 53.9856 39.4 51.4856C41.7 50.1856 43.9 48.9856 45.8 47.0856C47.5 45.3856 49.7 43.2856 50.6 41.1856C49.9 41.2856 49.7 41.5856 49.1 41.9856C48.6 42.2856 47.9 42.6856 47.4 42.8856C42.8 45.2856 37.4 46.4856 32.3 48.0856C27.2 49.8856 23.9 52.2856 21.9 52.9856ZM11.4 47.8856C12.1 47.6856 12.8 46.9856 13.5 46.4856C16 44.7856 17.4 43.9856 20.4 42.6856C22.1 41.9856 24.2 41.3856 25.8 40.7856C29 39.6856 33.9 38.4856 36.8 37.4856C44.1 34.8856 48 34.4856 48 26.7856C48 26.0856 48 26.2856 47.8 25.7856C47.1 25.8856 45.3 27.8856 43 29.1856C38.7 31.6856 38.3 31.3856 34.3 32.7856C33.5 33.0856 32.1 33.5856 31.2 33.7856C24.8 35.0856 12.2 38.2856 8.1 43.4856C7.2 44.4856 8.4 45.1856 9.1 45.9856C9.6 46.3856 10.7 47.5856 11.4 47.8856ZM13 49.1856C13.9 49.8856 13.6 49.8856 15.4 50.6856C16.4 51.1856 17.3 51.6856 18.3 52.0856C20.1 52.8856 20.2 51.9856 23.9 49.8856C31.4 45.6856 40 44.9856 46.7 41.3856C48.7 40.2856 51.6 38.4856 52.8 36.8856C53.5 35.8856 54.5 31.4856 54.3 29.8856C53.6 30.1856 51.9 31.9856 50.1 33.1856C49.3 33.6856 48.7 34.1856 47.9 34.6856C45.4 36.1856 42.8 37.3856 40.1 38.2856L34.3 40.2856C30.5 41.3856 26.4 42.2856 22.9 43.8856C19.4 45.2856 18.4 45.5856 15.3 47.5856C14.6 47.9856 13.5 48.8856 13 49.1856ZM1.9 27.8856C1.9 30.2856 2.2 33.4856 3 35.3856C3.6 35.2856 4.1 34.7856 4.8 34.2856C7.7 31.7856 18 27.2856 19.2 28.5856C19.8 29.6856 17.6 33.5856 17.4 35.3856C18.5 35.3856 24.3 33.3856 26.1 32.9856C31.8 31.7856 37.4 30.3856 42.3 27.2856C43.6 26.4856 44.6 25.7856 45.5 24.8856C48 22.4856 49.6 19.6856 49.6 26.5856C49.6 30.4856 49.2 29.5856 49 31.4856C49.9 31.3856 52.5 28.6856 53.1 28.0856C54.9 26.2856 54.4 25.6856 53.8 22.2856C53.1 18.4856 51 14.6856 48.9 11.7856C37.6 -3.2144 12.9 -1.5144 4.2 17.0856C2.7 20.2856 1.9 23.5856 1.9 27.8856Z" fill="white"/>
<path fill-rule="evenodd" clip-rule="evenodd" d="M16.9 17.9856C21.6 18.4856 25.1 20.0856 26.7 24.9856C27.3 26.7856 26.6 28.9856 28.5 28.7856C28.7 28.4856 28.7 28.4856 28.9 28.3856C29.3 23.4856 31.2 20.1856 35.6 18.6856C37.7 17.9856 39.7 18.4856 39.7 17.2856C39.7 15.5856 36.3 17.3856 32.2 13.8856C28 10.2856 29.7 6.28561 28.5 5.78561L27.5 5.68561C26.5 7.08561 27.9 13.5856 19.6 15.9856C18.4 16.2856 15.2 15.8856 16.9 17.9856ZM22.2 17.2856C24 18.3856 25.6 19.2856 26.9 21.2856C27.3 21.8856 27.6 22.4856 28 23.0856C28.4 22.8856 28.4 22.6856 28.7 22.3856C29.8 20.2856 31.9 18.1856 34 17.2856L33.1 16.5856C32.7 16.2856 32.5 16.2856 32.2 15.9856C29.5 14.1856 29.1 12.4856 28.4 11.5856C28 11.1856 28.3 11.3856 28 11.2856C27.2 12.4856 26.7 13.6856 25.6 14.6856C24.4 15.9856 23.2 16.3856 22.6 16.8856C22.2 17.1856 22.5 16.8856 22.2 17.2856Z" fill="white"/>
</svg>
