<svg width="38" height="38" viewBox="0 0 38 38" fill="none" xmlns="http://www.w3.org/2000/svg">
<g clip-path="url(#clip0_38_2)">
<path d="M0.040375 19.7932C0.46075 29.9001 8.79106 38 19 38C29.2089 38 37.5392 29.9001 37.9596 19.7932C37.9846 19.7296 37.9983 19.6621 38 19.5938C38 19.551 37.9846 19.5142 37.9762 19.475C37.9798 19.3159 38 19.1603 38 19C38 8.52388 29.4761 0 19 0C8.52388 0 0 8.52388 0 19C0 19.1603 0.0201875 19.3159 0.02375 19.475C0.0154375 19.5142 0 19.551 0 19.5938C0 19.665 0.0178125 19.7303 0.040375 19.7932ZM29.5937 27.0061C27.9801 26.3363 26.3032 25.8307 24.5884 25.4968C24.776 23.7714 24.8864 21.9794 24.9209 20.1887H30.8346C30.7266 22.6278 30.2931 24.9304 29.5937 27.0061ZM32.0209 20.1875H36.7519C36.5426 23.4206 35.4486 26.5341 33.5896 29.1876C32.6661 28.5377 31.6902 27.9657 30.6719 27.4776C31.4379 25.2581 31.9093 22.7953 32.0209 20.1875ZM14.7119 26.4646C16.1304 26.2409 17.564 26.1273 19 26.125C20.4535 26.125 21.8892 26.2461 23.2869 26.4646C22.4628 32.7999 20.6625 36.8125 19 36.8125C17.3375 36.8125 15.5372 32.7999 14.7119 26.4646ZM16.5157 36.4135C13.2489 35.3661 10.4856 32.2917 8.81838 28.12C10.3455 27.4813 11.9328 26.9971 13.5565 26.6748C14.1016 30.8263 15.0979 34.4434 16.5157 36.4135ZM14.5754 12.7169C16.0393 12.9449 17.5185 13.0605 19 13.0625C20.4815 13.0605 21.9607 12.9449 23.4246 12.7169C23.6289 14.6407 23.75 16.7402 23.75 19H14.25C14.25 16.7402 14.3711 14.6407 14.5754 12.7169ZM23.7322 20.1875C23.7038 21.8897 23.6008 23.5899 23.4234 25.2831C21.96 25.055 20.4811 24.9394 19 24.9375C17.5185 24.9395 16.0393 25.055 14.5754 25.2831C14.3975 23.5899 14.2944 21.8897 14.2666 20.1875H23.7322ZM24.4447 26.6748C26.1119 27.0097 27.702 27.4966 29.1828 28.12C27.5156 32.2917 24.7523 35.3661 21.4854 36.4135C22.9021 34.4434 23.8984 30.8263 24.4447 26.6748ZM24.9375 19C24.9375 16.8198 24.8164 14.611 24.5884 12.5044C26.3459 12.1576 28.0274 11.6494 29.5937 10.9951C30.4059 13.4045 30.875 16.1191 30.875 19H24.9375ZM24.4447 11.3252C23.8984 7.17369 22.9033 3.55537 21.4842 1.5865C24.7511 2.63387 27.5144 5.70831 29.1816 9.88C27.6551 10.5193 26.0681 11.0034 24.4447 11.3252ZM23.2881 11.5354C21.8892 11.7539 20.4535 11.875 19 11.875C17.5465 11.875 16.1108 11.7539 14.7119 11.5354C15.5372 5.20006 17.3375 1.1875 19 1.1875C20.6625 1.1875 22.4628 5.20006 23.2881 11.5354ZM13.5553 11.3252C11.9317 11.0027 10.3444 10.5186 8.81719 9.88C10.4844 5.70831 13.2477 2.63387 16.5146 1.5865C15.0979 3.55656 14.1016 7.17369 13.5553 11.3252ZM13.4116 12.5044C13.1797 14.6618 13.0631 16.8301 13.0625 19H7.125C7.125 16.1191 7.59406 13.4045 8.40631 10.9939C9.97263 11.6494 11.6541 12.1564 13.4116 12.5044ZM13.0791 20.1875C13.1136 21.9783 13.224 23.7702 13.4116 25.4968C11.6541 25.8436 9.97263 26.3518 8.40631 27.0061C7.70688 24.9304 7.27344 22.6278 7.16537 20.1875H13.0791ZM7.32688 27.4776C6.30923 27.9662 5.33373 28.5381 4.41037 29.1876C2.55119 26.5341 1.45723 23.4207 1.24806 20.1875H5.97906C6.09069 22.7953 6.56213 25.2581 7.32688 27.4776ZM5.12169 30.1387C5.95278 29.5534 6.82915 29.0352 7.7425 28.5891C8.93475 31.54 10.6507 33.9898 12.7134 35.6464C9.73762 34.5191 7.1168 32.6177 5.12169 30.1387ZM25.2866 35.6452C27.3505 33.9898 29.0652 31.5388 30.2575 28.5879C31.1956 29.0439 32.0649 29.5687 32.8783 30.1376C30.8839 32.6173 28.2629 34.5188 25.2866 35.6452ZM32.0625 19C32.0625 15.9517 31.5542 13.0779 30.6731 10.5224C31.7181 10.0213 32.6895 9.44537 33.5908 8.81244C35.6882 11.7955 36.8133 15.3534 36.8125 19H32.0625ZM32.8795 7.86125C32.0661 8.43006 31.1968 8.95494 30.2587 9.41094C29.0664 6.46 27.3505 4.009 25.2878 2.35362C28.2632 3.48152 30.8839 5.38276 32.8795 7.86125ZM12.7134 2.35481C10.6495 4.01019 8.93475 6.46119 7.7425 9.41213C6.82922 8.96535 5.95286 8.44676 5.12169 7.86125C7.11655 5.38227 9.73748 3.48125 12.7134 2.35481ZM4.41037 8.81244C5.33357 9.46212 6.30908 10.0341 7.32688 10.5224C6.39815 13.252 5.92865 16.1168 5.9375 19H1.1875C1.1875 15.2119 2.38569 11.7028 4.41037 8.81244Z" fill="#F8F8F8"/>
</g>
<defs>
<clipPath id="clip0_38_2">
<rect width="38" height="38" fill="white"/>
</clipPath>
</defs>
</svg>
