<svg width="75" height="75" viewBox="0 0 75 75" fill="none" xmlns="http://www.w3.org/2000/svg">
<rect x="0.5" y="0.694702" width="74" height="74" rx="37" fill="#BF1515"/>
<rect x="5.5" y="5.6947" width="40" height="40" rx="32" fill="#BF1515"/>
<path d="M37.4998 15.6947C36.4173 15.6947 35.4273 16.6147 35.4998 17.6947L36.4998 44.6947C36.4998 44.9599 36.6052 45.2143 36.7927 45.4018C36.9803 45.5893 37.2346 45.6947 37.4998 45.6947C37.7651 45.6947 38.0194 45.5893 38.207 45.4018C38.3945 45.2143 38.4998 44.9599 38.4998 44.6947L39.4998 17.6947C39.5723 16.6147 38.5823 15.6947 37.4998 15.6947Z" stroke="#F8F8F8" stroke-width="4" stroke-linecap="round" stroke-linejoin="round"/>
<path d="M37.5 59.6947C38.6046 59.6947 39.5 58.7993 39.5 57.6947C39.5 56.5901 38.6046 55.6947 37.5 55.6947C36.3954 55.6947 35.5 56.5901 35.5 57.6947C35.5 58.7993 36.3954 59.6947 37.5 59.6947Z" stroke="#F8F8F8" stroke-width="4" stroke-linecap="round" stroke-linejoin="round"/>
</svg>
