<svg width="57" height="57" viewBox="0 0 57 57" fill="none" xmlns="http://www.w3.org/2000/svg">
<path fill-rule="evenodd" clip-rule="evenodd" d="M0 27.6661C0 43.7397 12.7973 56.0504 28.2059 56.0179C56.5983 55.9774 68.2846 16.9692 39.8516 2.48512C34.0693 -0.466852 27.9869 -0.353315 21.8965 0.603642C20.534 0.822607 20.1285 0.936145 19.131 1.34163C18.1741 1.74713 17.4766 2.00664 16.6657 2.37158C15.6357 2.85006 13.0487 4.10708 12.2377 4.84507C11.6862 5.32355 10.9158 5.83447 10.2508 6.3535C9.5128 6.94551 9.10731 7.23746 8.40987 8.01601C7.18529 9.37845 6.19589 10.2949 5.19839 11.6979C1.95446 16.2718 0 21.6891 0 27.6661ZM6.26888 42.5557C7.07986 42.1907 8.32877 40.6823 9.32628 39.9768C14.4922 36.3679 14.3057 38.2088 15.4816 34.9649C15.8871 33.7484 16.6657 32.0129 16.8522 30.837C14.4192 30.8694 3.76295 35.9218 3.90893 38.0223C3.94137 38.9468 5.82284 41.7447 6.26888 42.5557ZM21.864 53.066C21.8235 53.9499 22.602 53.658 23.559 53.804C28.9763 54.615 34.5802 54.1365 39.3731 51.6305C41.7006 50.3735 43.9146 49.1571 45.788 47.2756C47.491 45.6212 49.6645 43.5207 50.6214 41.4203C49.8834 41.5257 49.7374 41.8582 49.113 42.2313C48.594 42.5557 47.929 42.8882 47.418 43.1477C42.8441 45.5482 37.4592 46.7971 32.3338 48.3461C27.176 49.9356 23.8185 52.401 21.864 53.066ZM11.3213 48.0136C11.9863 47.8352 12.7162 47.0972 13.4217 46.6187C15.9682 44.9156 17.2901 44.1452 20.3151 42.8152C21.9776 42.0772 24.078 41.4933 25.7324 40.9337C28.9763 39.8713 33.8098 38.6549 36.6888 37.6168C43.9876 35.0379 47.8965 34.5918 47.8965 26.9281C47.8965 26.2225 47.929 26.409 47.71 25.9711C46.972 26.0441 45.1635 28.031 42.8766 29.361C38.5621 31.8264 38.1566 31.6074 34.2153 32.9374C33.4043 33.2294 31.9689 33.7079 31.1579 33.8944C24.7755 35.2244 12.1647 38.4278 8.07737 43.5532C7.22584 44.5912 8.36932 45.2481 9.10731 46.0267C9.54524 46.4646 10.6887 47.7216 11.3213 48.0136ZM12.9027 49.2706C13.8272 49.9356 13.5272 49.9356 15.2627 50.8196C16.2926 51.3386 17.1847 51.8171 18.1416 52.2226C19.9826 52.993 20.0231 52.1496 23.705 50.041C31.1903 45.8401 39.8192 45.1021 46.526 41.5257C48.521 40.4552 51.4324 38.6143 52.6489 37.0653C53.3869 36.1084 54.3114 31.6804 54.1978 30.0585C53.4599 30.318 51.7649 32.1994 50.0294 33.3429C49.259 33.862 48.594 34.3404 47.783 34.8189C45.3095 36.2949 42.6576 37.5114 39.9651 38.4683L34.2153 40.3498C30.4199 41.4933 26.3244 42.3773 22.7886 43.9262C19.3176 45.3617 18.3201 45.6212 15.1897 47.6486C14.5652 48.0541 13.4947 48.9381 12.9027 49.2706ZM1.84093 28.031C1.84093 30.4639 2.17343 33.6349 2.95197 35.4839C3.57643 35.4109 4.09545 34.9243 4.71991 34.4134C7.63133 31.9399 17.8821 27.439 19.131 28.7366C19.7636 29.7989 17.5496 33.7809 17.3631 35.5569C18.4336 35.5164 24.297 33.5619 26.0649 33.1564C31.8148 31.9075 37.3457 30.5369 42.2926 27.4795C43.6145 26.7091 44.5715 26.0036 45.496 25.0871C47.9695 22.7272 49.5509 19.8888 49.6239 26.7415C49.6645 30.6099 49.259 29.726 49.0724 31.648C49.924 31.502 52.6164 28.8095 53.1273 28.2905C54.8953 26.482 54.4168 25.8576 53.8329 22.4677C53.1679 18.6317 51.0269 14.8364 48.8859 11.9979C37.5322 -3.11876 12.8703 -1.46436 4.16844 17.1558C2.65191 20.3997 1.84093 23.6841 1.84093 28.031Z" fill="white"/>
<path fill-rule="evenodd" clip-rule="evenodd" d="M16.8847 18.0802C21.6046 18.5587 25.108 20.1401 26.73 25.0871C27.322 26.8875 26.584 29.069 28.5709 28.8419C28.7574 28.5824 28.798 28.5824 29.017 28.404C29.3819 23.457 31.3364 20.1807 35.7238 18.6641C37.8242 17.9667 39.8192 18.4452 39.8192 17.2693C39.8517 15.6067 36.4293 17.3422 32.3339 13.8712C28.133 10.2624 29.8279 6.23991 28.6115 5.72899L27.5815 5.65601C26.6164 7.01845 27.9465 13.5063 19.6501 15.9798C18.3201 16.3853 15.1897 16.0122 16.8847 18.0802ZM22.1966 17.3422C24.0375 18.4127 25.6271 19.3291 26.9165 21.3566C27.322 21.9486 27.614 22.5731 28.0194 23.1651C28.3925 22.9786 28.4655 22.8001 28.6845 22.4271C29.8279 20.3672 31.8554 18.1857 34.0288 17.3422L33.1124 16.6367C32.6988 16.3853 32.5528 16.3123 32.1879 16.0528C29.536 14.2443 29.0899 12.5088 28.4249 11.6654C28.06 11.2193 28.279 11.5113 28.0194 11.3329C27.249 12.5493 26.6894 13.6928 25.6595 14.7228C24.443 15.9798 23.2995 16.4177 22.6345 16.8962C22.1236 17.2692 22.4886 16.9692 22.1966 17.3422Z" fill="white"/>
</svg>
