<svg width="39" height="39" viewBox="0 0 39 39" fill="none" xmlns="http://www.w3.org/2000/svg">
<path d="M37.4439 33.1471H25.1672V31.3056C25.1672 31.1428 25.1025 30.9867 24.9874 30.8716C24.8723 30.7564 24.7162 30.6918 24.5534 30.6918H23.9395V28.8503C23.9371 28.7117 23.887 28.5782 23.7978 28.4721L23.8051 28.4666L21.4682 25.5454L21.1085 20.8704H22.7119V19.6427H21.014L20.9189 18.4053C21.0719 18.3944 21.2152 18.3262 21.32 18.2142C21.4249 18.1021 21.4835 17.9547 21.4842 17.8012V15.3459C21.4842 15.1831 21.4195 15.027 21.3044 14.9119C21.1893 14.7967 21.0332 14.7321 20.8704 14.7321V12.8906C20.8704 12.7278 20.8057 12.5716 20.6906 12.4565C20.5755 12.3414 20.4193 12.2767 20.2565 12.2767H17.8012C17.6384 12.2767 17.4823 12.3414 17.3672 12.4565C17.252 12.5716 17.1874 12.7278 17.1874 12.8906V14.7321C17.0246 14.7321 16.8684 14.7967 16.7533 14.9119C16.6382 15.027 16.5735 15.1831 16.5735 15.3459V17.8012C16.5742 17.9547 16.6329 18.1021 16.7377 18.2142C16.8426 18.3262 16.9858 18.3944 17.1389 18.4053L17.0437 19.6427H15.3459V20.8704H16.9492L16.5895 25.5454L14.2526 28.4666L14.26 28.4721C14.1707 28.5782 14.1206 28.7117 14.1182 28.8503V30.6918H13.5044C13.3416 30.6918 13.1854 30.7564 13.0703 30.8716C12.9552 30.9867 12.8905 31.1428 12.8905 31.3056V33.1471H12.2767V31.3056C12.2767 31.1428 12.212 30.9867 12.0969 30.8716C11.9818 30.7564 11.8257 30.6918 11.6629 30.6918H11.049V28.8503C11.0466 28.7117 10.9965 28.5782 10.9072 28.4721L10.9146 28.4666L8.57772 25.5454L8.21802 20.8704H9.82135V19.6427H8.12349L8.02834 18.4053C8.18138 18.3944 8.32467 18.3262 8.4295 18.2142C8.53434 18.1021 8.59298 17.9547 8.59368 17.8012V15.3459C8.59368 15.1831 8.52901 15.027 8.4139 14.9119C8.29878 14.7967 8.14265 14.7321 7.97985 14.7321V12.8906C7.97985 12.7278 7.91518 12.5716 7.80006 12.4565C7.68495 12.3414 7.52881 12.2767 7.36601 12.2767H4.91068C4.74788 12.2767 4.59175 12.3414 4.47663 12.4565C4.36151 12.5716 4.29684 12.7278 4.29684 12.8906V14.7321C4.13404 14.7321 3.97791 14.7967 3.8628 14.9119C3.74768 15.027 3.68301 15.1831 3.68301 15.3459V17.8012C3.68371 17.9547 3.74235 18.1021 3.84719 18.2142C3.95203 18.3262 4.09531 18.3944 4.24835 18.4053L4.1532 19.6427H2.45534V20.8704H4.05867L3.69897 25.5454L1.3621 28.4666L1.36946 28.4721C1.28017 28.5782 1.2301 28.7117 1.22767 28.8503V30.6918H0.613835C0.451035 30.6918 0.294904 30.7564 0.179788 30.8716C0.0646716 30.9867 0 31.1428 0 31.3056V37.444C0 37.6067 0.0646716 37.7629 0.179788 37.878C0.294904 37.9931 0.451035 38.0578 0.613835 38.0578H37.4439C37.6067 38.0578 37.7628 37.9931 37.878 37.878C37.9931 37.7629 38.0577 37.6067 38.0577 37.444V33.7609C38.0577 33.5981 37.9931 33.442 37.878 33.3269C37.7628 33.2118 37.6067 33.1471 37.4439 33.1471ZM17.8012 17.1874V15.9597H20.2565V17.1874H17.8012ZM18.415 13.5044H19.6427V14.7321H18.415V13.5044ZM18.3696 18.4151H19.6881L19.7827 19.6427H18.2751L18.3696 18.4151ZM17.6668 26.1647C17.7441 26.0685 17.7909 25.9514 17.8012 25.8284L18.1806 20.8704H19.8772L20.2565 25.8284C20.2663 25.9512 20.3125 26.0683 20.3891 26.1647L22.0483 28.2364H16.0094L17.6668 26.1647ZM15.3459 29.4641H22.7119V30.6918H15.3459V29.4641ZM14.1182 31.9194H23.9395V33.1471H14.1182V31.9194ZM4.91068 17.1874V15.9597H7.36601V17.1874H4.91068ZM5.52451 13.5044H6.75218V14.7321H5.52451V13.5044ZM5.47909 18.4151H6.7976L6.89213 19.6427H5.38456L5.47909 18.4151ZM4.77625 26.1647C4.85358 26.0685 4.90039 25.9514 4.91068 25.8284L5.29003 20.8704H6.98666L7.36601 25.8284C7.37577 25.9512 7.42193 26.0683 7.4986 26.1647L9.1578 28.2364H3.11889L4.77625 26.1647ZM2.45534 29.4641H9.82135V30.6918H2.45534V29.4641ZM11.049 31.9194V33.1471H1.22767V31.9194H11.049ZM36.8301 36.8301H1.22767V34.3748H36.8301V36.8301Z" fill="white"/>
<path d="M20.2565 1.22767H38.0577V0H20.2565C19.7681 7.27769e-09 19.2998 0.194015 18.9544 0.539364C18.6091 0.884713 18.415 1.35311 18.415 1.8415C18.415 2.3299 18.6091 2.79829 18.9544 3.14364C19.2998 3.48899 19.7681 3.68301 20.2565 3.68301H24.5534V7.36601C24.5534 7.5288 24.6181 7.68491 24.7332 7.8L26.8289 9.89563C26.9995 10.0673 27.2024 10.2034 27.426 10.296C27.6496 10.3887 27.8894 10.436 28.1314 10.4352H28.2364V11.049C28.2371 11.2024 28.2957 11.3499 28.4006 11.4619C28.5054 11.5739 28.6487 11.6422 28.8017 11.653L28.7066 12.8905H27.0087V14.1182H28.6121L28.2524 18.7932L25.9155 21.7144L25.9228 21.7199C25.8336 21.8259 25.7835 21.9595 25.7811 22.098V23.9395H25.1672C25.0044 23.9395 24.8483 24.0042 24.7332 24.1193C24.6181 24.2345 24.5534 24.3906 24.5534 24.5534V27.0087C24.5534 27.1715 24.6181 27.3277 24.7332 27.4428C24.8483 27.5579 25.0044 27.6226 25.1672 27.6226H36.2162C36.379 27.6226 36.5352 27.5579 36.6503 27.4428C36.7654 27.3277 36.8301 27.1715 36.8301 27.0087V24.5534C36.8301 24.3906 36.7654 24.2345 36.6503 24.1193C36.5352 24.0042 36.379 23.9395 36.2162 23.9395H35.6024V22.098C35.6 21.9595 35.5499 21.8259 35.4606 21.7199L35.468 21.7144L33.1311 18.7932L32.7714 14.1182H34.3747V12.8905H32.6769L32.5817 11.653C32.7348 11.6422 32.878 11.5739 32.9829 11.4619C33.0877 11.3499 33.1464 11.2024 33.1471 11.049V10.4352H33.252C33.4941 10.436 33.7338 10.3887 33.9574 10.296C34.181 10.2034 34.384 10.0673 34.5546 9.89563L36.6502 7.8C36.7653 7.68491 36.83 7.5288 36.8301 7.36601V3.68301H38.0577V2.45534H36.2162C36.0534 2.45534 35.8973 2.52001 35.7822 2.63513C35.6671 2.75024 35.6024 2.90637 35.6024 3.06917V7.11189L33.6866 9.02767C33.6296 9.08474 33.5618 9.13001 33.4872 9.16087C33.4127 9.19173 33.3327 9.20758 33.252 9.20752H33.1471C32.9843 9.20752 32.8281 9.14285 32.713 9.02773C32.5979 8.91261 32.5332 8.75648 32.5332 8.59368V8.4881C32.5339 8.32544 32.5985 8.16955 32.7131 8.05412L34.1949 6.57233C34.31 6.45724 34.3747 6.30113 34.3747 6.13835V4.29684C34.3747 3.80844 34.1807 3.34005 33.8354 2.9947C33.49 2.64935 33.0216 2.45534 32.5332 2.45534H28.8502C28.3618 2.45534 27.8934 2.64935 27.5481 2.9947C27.2027 3.34005 27.0087 3.80844 27.0087 4.29684V6.13835C27.0088 6.30113 27.0735 6.45724 27.1886 6.57233L28.6704 8.05412C28.785 8.16955 28.8496 8.32544 28.8502 8.4881V8.59368C28.8502 8.75648 28.7856 8.91261 28.6704 9.02773C28.5553 9.14285 28.3992 9.20752 28.2364 9.20752H28.1314C28.0507 9.20758 27.9708 9.19173 27.8962 9.16087C27.8216 9.13001 27.7539 9.08474 27.6968 9.02767L25.7811 7.11189V3.06917C25.7811 2.90637 25.7164 2.75024 25.6013 2.63513C25.4861 2.52001 25.33 2.45534 25.1672 2.45534H20.2565C20.0937 2.45534 19.9376 2.39067 19.8225 2.27555C19.7074 2.16043 19.6427 2.0043 19.6427 1.8415C19.6427 1.6787 19.7074 1.52257 19.8225 1.40746C19.9376 1.29234 20.0937 1.22767 20.2565 1.22767ZM35.6024 26.3949H25.7811V25.1672H35.6024V26.3949ZM27.0087 23.9395V22.7119H34.3747V23.9395H27.0087ZM31.9194 19.0761C31.9292 19.199 31.9753 19.3161 32.052 19.4125L33.7112 21.4842H27.6723L29.3296 19.4125C29.407 19.3163 29.4538 19.1992 29.4641 19.0761L29.8434 14.1182H31.54L31.9194 19.0761ZM29.9379 12.8905L30.0325 11.6629H31.351L31.4455 12.8905H29.9379ZM31.9194 10.4352H29.4641V9.9564C29.6905 9.75209 29.8626 9.49477 29.965 9.20752H31.4185C31.5209 9.49477 31.693 9.75209 31.9194 9.9564V10.4352ZM31.3056 7.97985H30.0779V6.75218H31.3056V7.97985ZM28.2364 5.88422V4.29684C28.2364 4.13404 28.3011 3.97791 28.4162 3.8628C28.5313 3.74768 28.6874 3.68301 28.8502 3.68301H32.5332C32.696 3.68301 32.8522 3.74768 32.9673 3.8628C33.0824 3.97791 33.1471 4.13404 33.1471 4.29684V5.88422L32.5332 6.49805V6.13835C32.5332 5.97555 32.4686 5.81942 32.3534 5.7043C32.2383 5.58918 32.0822 5.52451 31.9194 5.52451H29.4641C29.3013 5.52451 29.1451 5.58918 29.03 5.7043C28.9149 5.81942 28.8502 5.97555 28.8502 6.13835V6.49805L28.2364 5.88422Z" fill="white"/>
</svg>
