<svg width="786" height="623" viewBox="0 0 786 623" fill="none" xmlns="http://www.w3.org/2000/svg">
<path fill-rule="evenodd" clip-rule="evenodd" d="M0 305.413C0 527.668 178.94 697.891 394.393 697.442C791.394 696.882 954.799 157.505 557.231 -42.771C476.379 -83.5887 391.331 -82.0188 306.171 -68.7867C287.12 -65.759 281.45 -64.1891 267.502 -58.5822C254.122 -52.9754 244.37 -49.387 233.03 -44.3409C218.629 -37.7248 182.455 -20.3437 171.115 -10.1393C163.404 -3.52321 152.632 3.5414 143.333 10.7181C133.014 18.9041 127.344 22.941 117.592 33.7061C100.469 52.5451 86.6349 65.2165 72.6872 84.6161C27.3286 147.861 0 222.768 0 305.413ZM87.6555 511.296C98.9952 506.25 116.458 485.392 130.406 475.636C202.64 425.735 200.031 451.191 216.474 406.336C222.144 389.515 233.03 365.518 235.638 349.258C201.619 349.707 52.616 419.568 54.6571 448.611C55.1107 461.395 81.4187 500.082 87.6555 511.296ZM305.717 656.625C305.15 668.847 316.036 664.811 329.417 666.829C405.166 678.043 483.523 671.427 550.54 636.776C583.085 619.395 614.042 602.575 640.237 576.559C664.05 553.683 694.44 524.64 707.821 495.597C697.502 497.054 695.461 501.652 686.729 506.81C679.472 511.296 670.174 515.893 663.03 519.482C599.074 552.674 523.779 569.943 452.112 591.361C379.992 613.34 333.046 647.429 305.717 656.625ZM158.302 586.764C167.6 584.297 177.806 574.092 187.671 567.476C223.278 543.927 241.761 533.274 284.058 514.884C307.305 504.68 336.674 496.606 359.807 488.868C405.166 474.178 472.75 457.358 513.006 443.005C615.063 407.345 669.72 401.178 669.72 295.209C669.72 285.453 670.174 288.032 667.112 281.976C656.793 282.986 631.505 310.459 599.527 328.85C539.201 362.939 533.531 359.911 478.42 378.302C467.08 382.339 447.009 388.955 435.669 391.534C346.426 409.924 170.095 454.218 112.943 525.089C101.036 539.442 117.025 548.525 127.344 559.29C133.468 565.345 149.457 582.727 158.302 586.764ZM180.414 604.145C193.341 613.34 189.145 613.34 213.412 625.563C227.814 632.74 240.287 639.356 253.668 644.962C279.409 655.615 279.976 643.953 331.458 614.798C436.123 556.711 556.777 546.507 650.556 497.054C678.451 482.252 719.161 456.797 736.17 435.379C746.489 422.147 759.417 360.921 757.829 338.493C747.51 342.082 723.81 368.097 699.543 383.909C688.771 391.085 679.472 397.701 668.132 404.317C633.546 424.726 596.466 441.547 558.818 454.779L478.42 480.794C425.35 496.606 368.085 508.829 318.644 530.247C270.111 550.095 256.163 553.683 212.392 581.717C203.66 587.324 188.692 599.547 180.414 604.145ZM25.741 310.459C25.741 344.1 30.3903 387.945 41.2763 413.513C50.0079 412.503 57.2652 405.775 65.9968 398.711C106.706 364.509 250.039 302.273 267.502 320.215C276.347 334.905 245.39 389.964 242.782 414.522C257.75 413.961 339.736 386.936 364.456 381.329C444.855 364.06 522.191 345.109 591.363 302.834C609.847 292.181 623.227 282.425 636.155 269.754C670.74 237.122 692.853 197.874 693.873 292.629C694.44 346.119 688.771 333.896 686.162 360.472C698.069 358.454 735.717 321.224 742.861 314.048C767.581 289.041 760.891 280.407 752.726 233.533C743.428 180.493 713.491 128.013 683.554 88.7652C524.799 -120.257 179.96 -97.3816 58.2858 160.084C37.0807 204.939 25.741 250.354 25.741 310.459Z" fill="#5C6D7A" fill-opacity="0.08"/>
<path fill-rule="evenodd" clip-rule="evenodd" d="M55.6778 151.602C121.675 158.218 170.662 180.084 193.341 248.488C201.619 273.382 191.3 303.547 219.082 300.407C221.69 296.818 222.257 296.818 225.319 294.351C230.422 225.948 257.75 180.645 319.098 159.675C348.468 150.032 376.363 156.648 376.363 140.388C376.817 117.4 328.963 141.397 271.698 93.4027C212.959 43.5019 236.659 -12.1178 219.649 -19.1824L205.248 -20.1917C191.754 -1.35271 210.351 88.3566 94.346 122.558C75.749 128.165 31.9779 123.007 55.6778 151.602ZM129.953 141.397C155.694 156.199 177.919 168.871 195.949 196.905C201.619 205.091 205.701 213.725 211.371 221.911C216.587 219.332 217.608 216.865 220.67 211.707C236.659 183.224 265.008 153.059 295.398 141.397L282.584 131.641C276.801 128.165 274.76 127.156 269.657 123.567C232.576 98.561 226.34 74.5637 217.041 62.9015C211.938 56.734 215 60.7709 211.371 58.3039C200.599 75.1244 192.774 90.9357 178.373 105.177C161.363 122.558 145.374 128.614 136.076 135.23C128.932 140.388 134.035 136.239 129.953 141.397Z" fill="#5C6D7A" fill-opacity="0.08"/>
</svg>
